<!DOCTYPE svg PUBLIC "-//W3C//DTD SVG 1.1//EN" "http://www.w3.org/Graphics/SVG/1.1/DTD/svg11.dtd">
<!-- Uploaded to: SVG Repo, www.svgrepo.com, Transformed by: SVG Repo Mixer Tools -->
<svg width="199px" height="199px" viewBox="-2.34 -2.34 22.68 22.68" xmlns="http://www.w3.org/2000/svg" mirror-in-rtl="true" fill="#000000" stroke="#000000" stroke-width="0.00018" transform="matrix(1, 0, 0, 1, 0, 0)rotate(0)">
<g id="SVGRepo_bgCarrier" stroke-width="0"/>
<g id="SVGRepo_tracerCarrier" stroke-linecap="round" stroke-linejoin="round" stroke="#CCCCCC" stroke-width="0.72"> <path fill="#494c4e" d="M4.1 2h-.2A2.906 2.906 0 0 0 1 4.9v1.2A2.906 2.906 0 0 0 3.9 9h.2A2.906 2.906 0 0 0 7 6.1V4.9A2.906 2.906 0 0 0 4.1 2zM4 10a4.012 4.012 0 0 0-4 4v2.667a1.326 1.326 0 0 0 1.333 1.324l5.333.01A1.337 1.337 0 0 0 8 16.667V14a4.01 4.01 0 0 0-4-4zM18 1v4a1 1 0 0 1-1 1h-3.99l-1.19 1.88a.47.47 0 0 1-.32.12.538.538 0 0 1-.21-.05.493.493 0 0 1-.29-.45V6h-1a1 1 0 0 1-1-1V1a1 1 0 0 1 1-1h7a1 1 0 0 1 1 1z"/> </g>
<g id="SVGRepo_iconCarrier"> <path fill="#494c4e" d="M4.1 2h-.2A2.906 2.906 0 0 0 1 4.9v1.2A2.906 2.906 0 0 0 3.9 9h.2A2.906 2.906 0 0 0 7 6.1V4.9A2.906 2.906 0 0 0 4.1 2zM4 10a4.012 4.012 0 0 0-4 4v2.667a1.326 1.326 0 0 0 1.333 1.324l5.333.01A1.337 1.337 0 0 0 8 16.667V14a4.01 4.01 0 0 0-4-4zM18 1v4a1 1 0 0 1-1 1h-3.99l-1.19 1.88a.47.47 0 0 1-.32.12.538.538 0 0 1-.21-.05.493.493 0 0 1-.29-.45V6h-1a1 1 0 0 1-1-1V1a1 1 0 0 1 1-1h7a1 1 0 0 1 1 1z"/> </g>
</svg>