<?xml version="1.0" encoding="utf-8"?>
<!-- Generator: Adobe Illustrator 27.5.0, SVG Export Plug-In . SVG Version: 6.00 Build 0)  -->
<svg version="1.1" id="Layer_1" xmlns="http://www.w3.org/2000/svg" xmlns:xlink="http://www.w3.org/1999/xlink" x="0px" y="0px"
	 viewBox="0 0 3000 1800" style="enable-background:new 0 0 3000 1800;" xml:space="preserve">
<rect style="fill:#FFFFFF;" width="3000" height="1800"/>
<g>
	<path style="fill:#DCECFD;" d="M350.704,1602.195h2389.393c21.044-314.676,157.104-799.837-132.411-1036.935
		c-361.559-407.579-1084.881,43.888-1488.848,142.204c-270.446-23.899-641.223-107.357-812.963,174.507
		C138.646,1096.54,269.933,1381.666,350.704,1602.195z"/>
	<g>
		<g>
			<path style="fill:#FFFFFF;" d="M841.276,1345.628c-7.316-8.375-14.818-17.024-22.453-25.9c0.256,0.096,0.493,0.209,0.751,0.301
				c0,0,48.049-97.637,10.36-233.711c0,0-61.287,127.334-43.229,195.613c-17.22-20.521-34.757-41.853-52.108-63.561
				c7.013-14.226,34.339-77.366,15.515-164.469c0,0-45.908,82.85-39.996,133.408c-7.397-9.523-14.712-19.078-21.907-28.629
				c0.039-0.11,0.088-0.212,0.126-0.324c-5.006-5.278-8.993-11.954-13.545-17.681c0.868,0.284,1.758,0.544,2.686,0.758
				c0,0,20.695-58.432-9.67-132.914c0,0-21.627,62.793-14.542,102.359c-11.308-15.995-22.069-31.805-32.083-47.261
				c5.748-9.395,22.472-41.236,17.866-87.461c0,0-28.709,40.261-30.075,68.19c-31.533-39.72-4.468-60.118-75.192-133.226
				c0,0,10.973,106.848,53.43,106.359c4.819,8.546,9.969,17.277,15.412,26.162c-12.644-10.923-35.377-26.211-68.842-32.721
				c0,0,50.29,64.811,77.645,47.41c7.512,10.971,14.676,22.063,22.427,33.433c-8.627-4.638-49.733-24.349-107.871-13.652
				c0,0,89.86,53.476,109.13,15.498c13.933,20.377,28.818,41.093,43.801,61.074c-19.014-6.487-65.23-17.792-123.758-0.995
				c0,0,106.771,50.174,130.627,10.145c8.772,11.617,17.719,23.235,26.765,34.789c2.897,8.811,8.118,16.003,16.381,20.724
				c7.025,8.806,14.081,17.552,21.139,26.21c-23.714-11.231-87.664-35.372-173.997-19.659c0,0,146.322,87.459,181.766,29.153
				c23.015,27.996,45.098,55.222,69.065,81.743c-31.071-15.129-122.103-51.28-246.127-28.707c0,0,207.342,123.947,255.437,39.407
				c97.821,112.169,189.373,205.603,189.425,205.589l3.598-3.539C1028.354,1548.654,940.529,1459.233,841.276,1345.628z"/>
			<path style="fill:#FFFFFF;" d="M782.518,1460.123c-8.62-3.622-17.482-7.382-26.527-11.265c0.228-0.022,0.449-0.024,0.679-0.05
				c0,0,0.21-91.494-78.535-180.335c0,0,0.766,118.814,39.633,163.708c-20.588-9.135-41.715-18.766-62.84-28.749
				c0.04-13.336-2.653-71.119-49.056-129.946c0,0-4.057,79.535,19.089,115.534c-9.106-4.459-18.161-8.972-27.124-13.527
				c-0.011-0.098-0.012-0.193-0.024-0.291c-5.731-2.136-11.209-5.705-16.763-8.348c0.761-0.106,1.528-0.239,2.308-0.42
				c0,0-5.961-51.777-56.417-96.808c0,0,6.869,55.415,26.841,82.679c-14.451-7.901-28.42-15.866-41.694-23.838
				c0.87-9.219,1.735-39.447-18.825-72.655c0,0-6.805,41.015,2.483,62.613c-38.492-18.346-25.589-43.752-106.016-72.833
				c0,0,47.769,76.641,79.653,60.584c6.798,4.674,13.913,9.365,21.307,14.063c-13.586-3.578-36.404-6.724-64.083,0.726
				c0,0,61.93,30.365,76.159,7.115c9.727,5.51,19.236,11.24,29.292,16.963c-8.229-0.315-46.558-0.012-86.513,29.549
				c0,0,87.625,7.183,88.146-28.62c18.052,10.241,36.949,20.386,55.647,29.94c-16.757,2.127-55.838,10.666-93.835,44.979
				c0,0,99.177-1.56,102.403-40.607c10.918,5.532,21.967,11,33.069,16.384c5.444,5.584,12.044,9.087,20.029,9.599
				c8.559,4.055,17.121,8.053,25.65,11.984c-22.059,0.28-79.277,5.679-138.673,49.447c0,0,142.825,11.984,148.049-45.147
				c27.727,12.64,54.465,25.041,82.365,36.215c-29.056,0.056-111.165,6.39-196.492,69.266c0,0,202.392,16.994,207.477-64.626
				c115.326,48.568,218.995,85.303,219.029,85.274l1.41-4.002C998.827,1544.328,899.456,1509.247,782.518,1460.123z"/>
		</g>
		<g>
			<defs>
				<path id="XMLID_00000091709727494539009500000018065903389892303537_" d="M1000.76,1236.287c0,0-21.32-135.676-269.772-245.304
					c0,0,38.917,217.819,124.466,385.702c-59.48-49.209-136.699-98.795-234.452-136.517c0,0,48.282,130.953,116.974,241.271
					c-39.766-9.386-86.413-17.581-141.116-23.704c0,0,63.556,107.074,154.354,144.459h86.96c43.1-0.058,149.136,0.042,191.058,0
					L1000.76,1236.287z"/>
			</defs>
			<use xlink:href="#XMLID_00000091709727494539009500000018065903389892303537_"  style="overflow:visible;fill:#324D90;"/>
			<clipPath id="XMLID_00000107572577131141095870000012480311504405035942_">
				<use xlink:href="#XMLID_00000091709727494539009500000018065903389892303537_"  style="overflow:visible;"/>
			</clipPath>
			<path style="clip-path:url(#XMLID_00000107572577131141095870000012480311504405035942_);fill:#152E60;" d="M737.975,1481.44
				c0,0,171.424,38.568,255.385,99.837c0,0-162.145-142.587-288.706-157.524c-126.562-14.937,0,0,0,0l34.916,63.532"/>
			<path style="clip-path:url(#XMLID_00000107572577131141095870000012480311504405035942_);fill:#152E60;" d="M855.454,1376.686
				c0,0,99.784,97.428,165.652,199.359c0,0-107.921-213.4-204.659-286.441s0,0,0,0S843.817,1355.05,855.454,1376.686"/>
			<g style="clip-path:url(#XMLID_00000107572577131141095870000012480311504405035942_);">
				<path style="fill:#152E60;" d="M1071.171,1595.518c-45.046-190.366-337.818-599.998-340.77-604.113l1.173-0.843
					c2.954,4.118,295.891,413.982,341.003,604.624L1071.171,1595.518z"/>
			</g>
			<g style="clip-path:url(#XMLID_00000107572577131141095870000012480311504405035942_);">
				<path style="fill:#152E60;" d="M1007.648,1617.132c-73.177-106.374-316.834-321.784-387.099-376.401l0.907-1.124
					c71.153,55.442,313.317,269.427,387.352,376.665L1007.648,1617.132z"/>
			</g>
			<g style="clip-path:url(#XMLID_00000107572577131141095870000012480311504405035942_);">
				<path style="fill:#152E60;" d="M994.542,1628.009c-123.912-67.23-395.21-168.58-397.937-169.596l0.506-1.354
					c2.725,1.016,274.118,102.401,398.121,169.679L994.542,1628.009z"/>
			</g>
		</g>
	</g>
	<g>
		<g>
			<path style="fill:#FFFFFF;" d="M2213.744,1396.689c7.316-8.375,14.818-17.024,22.452-25.9c-0.255,0.096-0.492,0.209-0.751,0.301
				c0,0-48.049-97.637-10.36-233.711c0,0,61.287,127.334,43.229,195.613c17.22-20.521,34.757-41.853,52.108-63.561
				c-7.013-14.226-34.339-77.366-15.515-164.469c0,0,45.908,82.85,39.996,133.408c7.397-9.523,14.712-19.078,21.907-28.629
				c-0.039-0.111-0.088-0.212-0.126-0.324c5.006-5.278,8.993-11.954,13.545-17.681c-0.868,0.284-1.758,0.544-2.686,0.758
				c0,0-20.696-58.432,9.67-132.914c0,0,21.627,62.793,14.542,102.359c11.308-15.995,22.069-31.805,32.083-47.261
				c-5.748-9.395-22.472-41.236-17.866-87.461c0,0,28.709,40.261,30.075,68.19c31.533-39.72,4.468-60.118,75.192-133.225
				c0,0-10.973,106.848-53.43,106.359c-4.819,8.546-9.969,17.277-15.413,26.162c12.644-10.923,35.377-26.211,68.842-32.721
				c0,0-50.29,64.811-77.645,47.41c-7.512,10.971-14.676,22.063-22.427,33.433c8.626-4.638,49.733-24.349,107.871-13.652
				c0,0-89.86,53.476-109.13,15.498c-13.933,20.377-28.818,41.093-43.801,61.074c19.014-6.487,65.229-17.792,123.759-0.995
				c0,0-106.771,50.174-130.627,10.145c-8.772,11.617-17.719,23.235-26.765,34.789c-2.897,8.811-8.118,16.003-16.381,20.724
				c-7.025,8.806-14.081,17.553-21.139,26.21c23.714-11.231,87.664-35.372,173.997-19.659c0,0-146.322,87.459-181.766,29.153
				c-23.015,27.996-45.098,55.221-69.065,81.743c31.071-15.129,122.103-51.28,246.127-28.707c0,0-207.342,123.947-255.437,39.407
				c-97.821,112.169-189.373,205.603-189.425,205.589l-3.598-3.538C2026.666,1599.715,2114.491,1510.295,2213.744,1396.689z"/>
			<path style="fill:#FFFFFF;" d="M2272.502,1511.185c8.62-3.621,17.482-7.382,26.528-11.265c-0.228-0.022-0.449-0.024-0.679-0.05
				c0,0-0.21-91.493,78.535-180.335c0,0-0.766,118.814-39.633,163.708c20.588-9.135,41.715-18.766,62.84-28.749
				c-0.04-13.336,2.654-71.119,49.056-129.946c0,0,4.057,79.535-19.089,115.534c9.105-4.459,18.161-8.972,27.124-13.527
				c0.011-0.098,0.012-0.193,0.024-0.291c5.731-2.136,11.209-5.705,16.763-8.348c-0.761-0.106-1.529-0.239-2.309-0.42
				c0,0,5.961-51.777,56.417-96.808c0,0-6.869,55.415-26.841,82.679c14.451-7.901,28.42-15.866,41.694-23.838
				c-0.87-9.219-1.735-39.447,18.825-72.655c0,0,6.805,41.015-2.483,62.613c38.492-18.346,25.589-43.752,106.016-72.833
				c0,0-47.769,76.641-79.653,60.583c-6.798,4.674-13.913,9.365-21.307,14.063c13.585-3.578,36.404-6.724,64.083,0.726
				c0,0-61.929,30.365-76.158,7.115c-9.727,5.51-19.236,11.24-29.292,16.963c8.229-0.315,46.557-0.012,86.513,29.549
				c0,0-87.625,7.183-88.146-28.62c-18.052,10.241-36.949,20.386-55.647,29.94c16.757,2.127,55.838,10.666,93.835,44.979
				c0,0-99.177-1.56-102.403-40.607c-10.918,5.532-21.968,11-33.069,16.384c-5.444,5.584-12.045,9.087-20.029,9.599
				c-8.559,4.055-17.121,8.053-25.649,11.984c22.059,0.28,79.277,5.679,138.673,49.447c0,0-142.825,11.985-148.049-45.147
				c-27.727,12.64-54.465,25.041-82.365,36.215c29.056,0.056,111.165,6.39,196.491,69.266c0,0-202.392,16.994-207.477-64.626
				c-115.326,48.568-218.995,85.303-219.029,85.274l-1.41-4.002C2056.193,1595.39,2155.564,1560.309,2272.502,1511.185z"/>
		</g>
		<g>
			<defs>
				<path id="XMLID_00000046331767806117658850000007881423160465224085_" d="M2131.164,1236.287c0,0,21.32-135.676,269.772-245.304
					c0,0-38.917,217.819-124.466,385.702c59.48-49.209,136.699-98.795,234.452-136.517c0,0-48.282,130.953-116.974,241.271
					c39.766-9.386,86.413-17.581,141.116-23.704c0,0-63.556,107.074-154.354,144.459h-86.96c-43.1-0.058-149.136,0.042-191.058,0
					L2131.164,1236.287z"/>
			</defs>
			<use xlink:href="#XMLID_00000046331767806117658850000007881423160465224085_"  style="overflow:visible;fill:#324D90;"/>
			<clipPath id="XMLID_00000075871215193316450010000001141733017517268387_">
				<use xlink:href="#XMLID_00000046331767806117658850000007881423160465224085_"  style="overflow:visible;"/>
			</clipPath>
			<path style="clip-path:url(#XMLID_00000075871215193316450010000001141733017517268387_);fill:#152E60;" d="M2393.948,1481.44
				c0,0-171.424,38.568-255.385,99.837c0,0,162.145-142.587,288.706-157.524c126.562-14.937,0,0,0,0l-34.915,63.532"/>
			<path style="clip-path:url(#XMLID_00000075871215193316450010000001141733017517268387_);fill:#152E60;" d="M2276.469,1376.686
				c0,0-99.784,97.428-165.651,199.359c0,0,107.921-213.4,204.658-286.441s0,0,0,0S2288.106,1355.05,2276.469,1376.686"/>
			<g style="clip-path:url(#XMLID_00000075871215193316450010000001141733017517268387_);">
				<path style="fill:#152E60;" d="M2060.753,1595.518c45.046-190.366,337.818-599.998,340.77-604.113l-1.173-0.843
					c-2.954,4.118-295.892,413.982-341.003,604.624L2060.753,1595.518z"/>
			</g>
			<g style="clip-path:url(#XMLID_00000075871215193316450010000001141733017517268387_);">
				<path style="fill:#152E60;" d="M2124.275,1617.132c73.177-106.374,316.834-321.784,387.099-376.401l-0.907-1.124
					c-71.153,55.442-313.317,269.427-387.352,376.665L2124.275,1617.132z"/>
			</g>
			<g style="clip-path:url(#XMLID_00000075871215193316450010000001141733017517268387_);">
				<path style="fill:#152E60;" d="M2137.381,1628.009c123.912-67.23,395.21-168.58,397.937-169.596l-0.506-1.354
					c-2.725,1.016-274.118,102.401-398.121,169.679L2137.381,1628.009z"/>
			</g>
		</g>
	</g>
	<g>
		<g>
			<path style="fill:#BEDBFA;" d="M2110.373,1527.425H1029.23c-27.055,0-48.988-21.933-48.988-48.988V881.963
				c0-27.055,21.933-48.988,48.988-48.988h1081.143c27.055,0,48.988,21.933,48.988,48.988v596.474
				C2159.361,1505.492,2137.428,1527.425,2110.373,1527.425z"/>
			<g>
				<path style="fill:#BEDBFA;" d="M2200.821,1602.195H938.781c-10.285,0-18.622-8.338-18.622-18.622v-37.525
					c0-10.285,8.338-18.622,18.622-18.622h1262.04c27.361,0.514,16.614,39.312,18.623,56.148
					C2219.444,1593.858,2211.106,1602.195,2200.821,1602.195z"/>
				<path style="fill:#FFFFFF;" d="M1641.166,1553.083h-142.73c-14.17,0-25.657-11.487-25.657-25.657l0,0h194.045
					C1666.824,1541.595,1655.337,1553.083,1641.166,1553.083z"/>
			</g>
			<g>
				<defs>
					
						<rect id="XMLID_00000005956082819321763520000015898825169522474370_" x="1021.106" y="875.197" width="1097.392" height="609.052"/>
				</defs>
				<use xlink:href="#XMLID_00000005956082819321763520000015898825169522474370_"  style="overflow:visible;fill:#DCECFD;"/>
				<clipPath id="XMLID_00000056406817550677752200000008428944989256162957_">
					<use xlink:href="#XMLID_00000005956082819321763520000015898825169522474370_"  style="overflow:visible;"/>
				</clipPath>
				<g style="clip-path:url(#XMLID_00000056406817550677752200000008428944989256162957_);">
					<g>
						<rect x="1099.785" y="923.2" style="fill:#BEDBFA;" width="436.992" height="322.284"/>
						<polygon style="fill:#DCECFD;" points="1396.52,1087.641 1268.527,1014.8 1268.527,1160.482 						"/>
					</g>
					<rect x="1098.258" y="1291.985" style="fill:#BEDBFA;" width="419.925" height="28.971"/>
					<rect x="1098.258" y="1350.107" style="fill:#BEDBFA;" width="419.925" height="28.971"/>
					<rect x="1098.258" y="1408.229" style="fill:#BEDBFA;" width="151.403" height="28.971"/>
				</g>
				
					<rect x="1786.146" y="914.045" style="clip-path:url(#XMLID_00000056406817550677752200000008428944989256162957_);fill:#BEDBFA;" width="253.596" height="140.381"/>
				<g style="clip-path:url(#XMLID_00000056406817550677752200000008428944989256162957_);">
					<rect x="1786.146" y="1078.191" style="fill:#BEDBFA;" width="254.792" height="16.244"/>
					<rect x="1786.146" y="1108.9" style="fill:#BEDBFA;" width="254.792" height="16.244"/>
					<rect x="1786.146" y="1139.609" style="fill:#BEDBFA;" width="155.93" height="16.244"/>
				</g>
				
					<rect x="1786.146" y="1185.521" style="clip-path:url(#XMLID_00000056406817550677752200000008428944989256162957_);fill:#BEDBFA;" width="253.596" height="140.381"/>
				<g style="clip-path:url(#XMLID_00000056406817550677752200000008428944989256162957_);">
					<rect x="1786.146" y="1349.667" style="fill:#BEDBFA;" width="254.792" height="16.244"/>
					<rect x="1786.146" y="1380.376" style="fill:#BEDBFA;" width="254.792" height="16.244"/>
					<rect x="1786.146" y="1411.085" style="fill:#BEDBFA;" width="155.93" height="16.244"/>
				</g>
			</g>
		</g>
		<path style="fill:#152E60;" d="M1029.23,1527.425c350.081-2.835,739.185-2.859,1089.267,0
			C1768.417,1530.284,1379.313,1530.261,1029.23,1527.425L1029.23,1527.425z"/>
	</g>
	<g>
		<path style="fill:#324D90;" d="M1887.526,739.073l224.595-7.575l189.787,131.428
			C2043.762,851.006,2108.18,878.185,1887.526,739.073z"/>
		<path style="fill:#152E60;" d="M2159.361,922.589c0,0,50.313-102.231-59.475-146.341l0.066-0.188
			c-2.379-0.768-4.637-1.566-6.97-2.464l-0.066,0.188c-103.444-30.925-142.703,57.406-142.703,57.406
			c54.545,10.173,101.089,27.736,114.115,34.556C2077.199,872.486,2106.633,883.945,2159.361,922.589z"/>
		<g>
			
				<rect x="2195.725" y="916.651" transform="matrix(0.1761 -0.9844 0.9844 0.1761 959.6964 2981.3977)" style="fill:#152E60;" width="130.415" height="1.452"/>
			<path style="fill:#152E60;" d="M2233.955,1028.673c-5.709-26.299-7.292-60.423,19.357-75.84
				C2281.881,981.195,2255.303,1007.286,2233.955,1028.673z"/>
		</g>
	</g>
	<g>
		<g>
			<path style="fill:#59445A;" d="M1567.231,820.857h-79.015l5.55-50.937l-22.202,50.937h-17.885
				c4.874-325.884,222.118-339.868,221.4,0h-17.722l-5.05-58.469l-9.429,58.469h-32.699v-54.291l-10.446,54.292L1567.231,820.857z"
				/>
			<g>
				<g>
					<g>
						<path style="fill:#EDA19D;" d="M1513.007,675.231c4.175,26.361-17.947,30.117-22.709,3.857
							C1486.123,652.727,1508.245,648.971,1513.007,675.231z"/>
						<path style="fill:#EDA19D;" d="M1621.476,675.231c-4.175,26.361,17.947,30.117,22.709,3.857
							C1648.36,652.727,1626.238,648.971,1621.476,675.231z"/>
					</g>
					<g>
						<path style="fill:#F4D2C6;" d="M1600.654,697.436c-16.794,0-50.035,0-66.825,0c8.061,23.011-9.526,138.259-9.526,138.259
							c21.543,0,64.34,0,85.878,0C1610.18,835.695,1592.593,720.447,1600.654,697.436z"/>
						<g>
							<defs>
								<path id="XMLID_00000152969999208918654900000000280662542698783881_" d="M1631.709,678.484
									c-1.605,103.177-127.341,103.164-128.935-0.003C1491.34,572.868,1639.73,571.834,1631.709,678.484z"/>
							</defs>
							<use xlink:href="#XMLID_00000152969999208918654900000000280662542698783881_"  style="overflow:visible;fill:#F4D2C6;"/>
							<clipPath id="XMLID_00000124884060949590930340000002089738581497367171_">
								<use xlink:href="#XMLID_00000152969999208918654900000000280662542698783881_"  style="overflow:visible;"/>
							</clipPath>
							<path style="clip-path:url(#XMLID_00000124884060949590930340000002089738581497367171_);fill:#EDA19D;" d="
								M1502.774,660.213c0,0,23.176-4.179,34.374-14.993l-11.134,17.139c0,0,33.616-9.381,45.605-37.591
								c0,0,11.284,19.747,12.929,43.489c0,0,14.34-8.228,18.336-28.209c0,0,11.56,19.44,27.642,18.535c16.082-0.904,0,0,0,0
								l-9.071-44.394l-48.661-22.614l-55.714,23.084l-18.279,32.441L1502.774,660.213"/>
						</g>
					</g>
				</g>
				<path style="fill:#EDA19D;" d="M1534.739,746.23c0,0,30.279,23.35,64.995,0l1.827,20.902c0,0-37.38,17.467-68.662,0.215
					L1534.739,746.23z"/>
			</g>
		</g>
		<g>
			<defs>
				<path id="XMLID_00000003096014137532082210000016069047771664682625_" d="M1699.334,869.798
					c-12.8-69.801-69.368-85.788-132.093-81.666v-0.037c-0.453,0.018-1.369,0.017-1.823,0v0.038
					c-61.732-4.44-118.211,13.507-130.28,81.668c0-0.003-26.142,226.599-26.142,226.599c146.05,42.187,170.949,39.692,316.479,0
					L1699.334,869.798z"/>
			</defs>
			<use xlink:href="#XMLID_00000003096014137532082210000016069047771664682625_"  style="overflow:visible;fill:#4292F3;"/>
			<clipPath id="XMLID_00000005952094792631094470000000329734642829927582_">
				<use xlink:href="#XMLID_00000003096014137532082210000016069047771664682625_"  style="overflow:visible;"/>
			</clipPath>
		</g>
		<g>
			<path style="fill:#F4D2C6;" d="M1515.603,789.179c6.334,42.474,97.05,42.288,103.267,0
				C1618.87,789.179,1566.157,785.454,1515.603,789.179z"/>
			<g>
				<path style="fill:#FFFFFF;" d="M1567.231,821.307l-32.559,32.46c0,0-33.114-20.394-27.762-62.83l8.693-1.758L1567.231,821.307z"
					/>
				<path style="fill:#FFFFFF;" d="M1567.231,821.307l32.559,32.46c0,0,33.113-20.394,27.762-62.83l-8.693-1.758L1567.231,821.307z"
					/>
			</g>
		</g>
		<path style="fill:#152E60;" d="M1708.992,1099.402h-284.095c-30.249,54.222-18.579,95.008-18.579,95.008h0
			c8.443,73.117,117.031,98.747,160.923,40.451c43.903,58.312,152.485,32.647,160.923-40.451h0.002
			C1739.572,1148.997,1708.992,1099.402,1708.992,1099.402z"/>
		<g>
			<rect x="1230.81" y="1085.903" style="fill:#324D90;" width="691.026" height="29.04"/>
			<g>
				<rect x="1262.712" y="1114.943" style="fill:#152E60;" width="13.1" height="412.24"/>
				<rect x="1876.834" y="1115.369" style="fill:#152E60;" width="13.1" height="412.24"/>
			</g>
		</g>
		<g>
			<g>
				<g>
					<defs>
						<path id="XMLID_00000138533236218625324860000002293431905756392833_" d="M1533.824,1199.169l-19.105,293.877l-52.406-1.199
							c6.459-1.301-121.381-362.231,19.241-355.495C1512.717,1139.879,1535.314,1167.852,1533.824,1199.169z"/>
					</defs>
					<use xlink:href="#XMLID_00000138533236218625324860000002293431905756392833_"  style="overflow:visible;fill:#F4D2C6;"/>
					<clipPath id="XMLID_00000043417729556028752860000012830084155720190131_">
						<use xlink:href="#XMLID_00000138533236218625324860000002293431905756392833_"  style="overflow:visible;"/>
					</clipPath>
					<path style="clip-path:url(#XMLID_00000043417729556028752860000012830084155720190131_);fill:#EDA19D;" d="M1409.745,1235.681
						c1.617-2.364,27.469-72.75,73.8-66.984c46.331,5.766,42.78,145.822,42.78,145.822s38.707-123.757,27.674-149.762
						c-15.843-64.104-157.087-67.579-159.189,4.731C1395.601,1202.582,1409.745,1235.681,1409.745,1235.681z"/>
				</g>
				<polygon style="fill:#F08F3C;" points="1524.526,1434.902 1442.564,1434.902 1457.973,1493.046 1514.719,1493.046 				"/>
				<path style="fill:#152E60;" d="M1545.965,1527.609c0,0-3.13-64.723-34.934-63.635c-52.832,2.891-70.643,27.487-68.467,62.806
					L1545.965,1527.609z"/>
			</g>
			<g>
				<g>
					<defs>
						<path id="XMLID_00000049922469154833170160000002212179396956753067_" d="M1585.944,1199.169l19.105,293.877l52.406-1.199
							c-6.459-1.301,121.381-362.231-19.241-355.495C1607.052,1139.879,1584.454,1167.852,1585.944,1199.169z"/>
					</defs>
					<use xlink:href="#XMLID_00000049922469154833170160000002212179396956753067_"  style="overflow:visible;fill:#F4D2C6;"/>
					<clipPath id="XMLID_00000083049161932052323830000005803676170548454530_">
						<use xlink:href="#XMLID_00000049922469154833170160000002212179396956753067_"  style="overflow:visible;"/>
					</clipPath>
					<path style="clip-path:url(#XMLID_00000083049161932052323830000005803676170548454530_);fill:#EDA19D;" d="M1703.434,1164.362
						c0,0-79.291,3.849-93.403,27.583c-14.112,23.735-19.244,122.573-19.244,122.573s-39.699-114.234-23.377-146.949
						c16.321-32.715,67.639-50.707,90.091-44.277C1679.952,1129.723,1703.434,1164.362,1703.434,1164.362z"/>
				</g>
				<polygon style="fill:#F08F3C;" points="1595.242,1434.902 1677.205,1434.902 1661.795,1493.046 1605.05,1493.046 				"/>
				<path style="fill:#152E60;" d="M1573.804,1527.609c0,0,3.13-64.723,34.934-63.635c52.832,2.891,70.643,27.487,68.466,62.806
					L1573.804,1527.609z"/>
			</g>
		</g>
		<path style="fill:#59445A;" d="M1575.494,586.435c0,0-9.896,47.057-32.123,58.522l7.468-24.99c0,0-18.522,27.048-52.037,32.046
			C1502.163,612.302,1531.547,582.912,1575.494,586.435z"/>
		<path style="fill:#59445A;" d="M1569.332,591.577c0,0,13.571,36.987,17.296,70.782c0,0,13.302-6.544,14.934-40.706
			c0,0,8.619,32.133,28.964,36.931C1630.526,658.584,1631.865,591.311,1569.332,591.577z"/>
		<g>
			<polygon style="fill:#4292F3;" points="1687.253,835.695 1764.578,943.863 1706.754,978.282 			"/>
			<g>
				<defs>
					<path id="XMLID_00000168831944359073934480000004801686898638828961_" d="M1755.817,949.078
						c6.858,16.094,33.93,52.426,30.138,70.953c-1.644,17.263-13.644,31.78-30.288,36.642l-100.051,29.23l-10.962-42.703
						l70.746-34.138l-3.878-33.618L1755.817,949.078z"/>
				</defs>
				<use xlink:href="#XMLID_00000168831944359073934480000004801686898638828961_"  style="overflow:visible;fill:#F4D2C6;"/>
				<clipPath id="XMLID_00000063616311103830001890000016447002964466885505_">
					<use xlink:href="#XMLID_00000168831944359073934480000004801686898638828961_"  style="overflow:visible;"/>
				</clipPath>
				<path style="clip-path:url(#XMLID_00000063616311103830001890000016447002964466885505_);fill:#EDA19D;" d="M1769.915,958.216
					c0,0-20.832,43.431-59.665,51.249l-7.564-39.477l47.295-32.442L1769.915,958.216z"/>
			</g>
		</g>
		<g>
			<polygon style="fill:#4292F3;" points="1448.408,833.112 1371.083,941.28 1428.907,975.699 			"/>
			<g>
				<defs>
					<path id="XMLID_00000018934529373437839520000001569227591929418659_" d="M1379.844,946.495
						c-6.906,15.971-33.896,52.515-30.138,70.954l0,0c1.644,17.262,13.644,31.779,30.288,36.641l100.051,29.23l10.962-42.703
						l-70.746-34.138l3.878-33.618L1379.844,946.495z"/>
				</defs>
				<use xlink:href="#XMLID_00000018934529373437839520000001569227591929418659_"  style="overflow:visible;fill:#F4D2C6;"/>
				<clipPath id="XMLID_00000116225520719056506830000007972356361119183515_">
					<use xlink:href="#XMLID_00000018934529373437839520000001569227591929418659_"  style="overflow:visible;"/>
				</clipPath>
				<path style="clip-path:url(#XMLID_00000116225520719056506830000007972356361119183515_);fill:#EDA19D;" d="M1365.745,955.633
					c0,0,20.832,43.431,59.665,51.249l7.564-39.477l-47.295-32.442L1365.745,955.633z"/>
			</g>
		</g>
		<path style="fill:#FFFFFF;" d="M1677.616,1085.903H1457c-6.792,0-12.533-5.031-13.424-11.764l-19.245-145.351
			c-1.074-8.114,5.24-15.319,13.424-15.319h258.952c8.179,0,14.491,7.195,13.426,15.305l-19.091,145.351
			C1690.157,1080.864,1684.413,1085.903,1677.616,1085.903z"/>
	</g>
	<path style="fill:#152E60;" d="M283.124,1599.74c836.669-5.799,1693.619-5.847,2530.29-0.001
		C1976.744,1605.587,1119.795,1605.54,283.124,1599.74L283.124,1599.74z"/>
	<g>
		<path style="fill:#DCECFD;" d="M1342.099,305.799c114.978-0.516,214.373,77.424,142.279,159.165
			c25.446,112.585,20.297,78.797-73.845,40.892C1185.589,568.444,1052.727,326.549,1342.099,305.799z"/>
		<g>
			<path style="fill:#FFFFFF;" d="M1407.172,408.88c0.088,19.569,29.842,19.567,29.927-0.001
				C1437.011,389.311,1407.258,389.313,1407.172,408.88z"/>
			<path style="fill:#FFFFFF;" d="M1320.038,408.88c0.088,19.569,29.842,19.567,29.927-0.001
				C1349.877,389.311,1320.124,389.313,1320.038,408.88z"/>
			<path style="fill:#FFFFFF;" d="M1232.905,408.88c0.088,19.569,29.842,19.567,29.927-0.001
				C1262.743,389.311,1232.99,389.313,1232.905,408.88z"/>
		</g>
	</g>
	<g>
		<g>
			<g>
				<path style="fill:#F08F3C;" d="M2527.231,223.949l-42.219,139.934c-0.847,2.808-4.587,3.35-6.197,0.898l-22.913-34.906
					L2527.231,223.949z"/>
				<polygon style="fill:#F9CE68;" points="2455.902,329.876 2408.683,322.616 2527.231,223.949 				"/>
				<polygon style="fill:#F9CE68;" points="2527.231,223.949 2485.174,335.256 2541.436,344.045 				"/>
			</g>
			<g>
				<g>
					<path style="fill:#F08F3C;" d="M2477.651,398.322l-1.792-0.349c0.41-2.095,0.809-4.184,1.197-6.265l1.792,0.335
						C2478.46,394.129,2478.061,396.221,2477.651,398.322z"/>
				</g>
				<g>
					<path style="fill:#F08F3C;" d="M2136.491,711.273l-0.296-1.801c4.267-0.699,8.479-1.546,12.517-2.515l0.424,1.775
						C2145.056,709.711,2140.802,710.566,2136.491,711.273z M2154.494,707.349l-0.488-1.759c4.208-1.164,8.285-2.49,12.121-3.941
						l0.645,1.707C2162.885,704.826,2158.755,706.17,2154.494,707.349z M2171.911,701.28l-0.723-1.675
						c4.034-1.74,7.851-3.665,11.346-5.722l0.927,1.573C2179.899,697.551,2176.013,699.51,2171.911,701.28z M2188.159,692.491
						l-1.023-1.511c3.622-2.453,6.935-5.126,9.841-7.948l1.272,1.31C2195.265,687.238,2191.871,689.979,2188.159,692.491z
						 M2231.101,686.918c-4.463-0.032-8.805-0.342-12.907-0.92l0.253-1.807c4.023,0.568,8.285,0.871,12.668,0.902L2231.101,686.918z
						 M2236.646,686.823l-0.075-1.823c4.073-0.168,8.343-0.556,12.686-1.154l0.25,1.807
						C2245.104,686.26,2240.778,686.652,2236.646,686.823z M2212.717,685.037c-4.373-0.93-8.438-2.137-12.419-3.779l0.702-1.684
						c0.157,0.065,0.312,0.129,0.469,0.193l-0.771-0.667c2.799-3.236,5.197-6.724,7.127-10.371l1.614,0.854
						c-1.953,3.688-4.367,7.219-7.179,10.498c3.438,1.321,7.046,2.373,10.831,3.172L2212.717,685.037z M2254.97,684.8l-0.314-1.798
						c4.043-0.702,8.244-1.592,12.489-2.645l0.438,1.771C2263.298,683.191,2259.054,684.09,2254.97,684.8z M2272.927,680.727
						l-0.488-1.759c3.993-1.106,8.102-2.37,12.212-3.759l0.584,1.728C2281.092,678.338,2276.952,679.613,2272.927,680.727z
						 M2195.254,678.855c-3.847-2.069-7.45-4.554-10.707-7.39l1.197-1.375c3.156,2.746,6.644,5.154,10.372,7.158L2195.254,678.855z
						 M2290.443,675.116l-0.62-1.716c4.007-1.448,8.001-3.007,11.886-4.674l0.72,1.677
						C2298.51,672.085,2294.486,673.656,2290.443,675.116z M2307.475,668.162l-0.763-1.657c3.838-1.768,7.681-3.682,11.421-5.691
						l0.862,1.607C2315.224,664.448,2311.347,666.38,2307.475,668.162z M2180.519,667.588c-3.109-3.323-5.652-6.9-7.555-10.632
						l1.625-0.828c1.826,3.58,4.269,7.016,7.263,10.213L2180.519,667.588z M2211.796,664.521l-1.693-0.685
						c1.568-3.871,2.727-7.983,3.227-12.126l1.81,0.223C2214.624,656.234,2213.419,660.502,2211.796,664.521z M2323.824,659.746
						l-0.905-1.584c3.658-2.089,7.321-4.331,10.888-6.661l0.998,1.527C2331.208,655.379,2327.514,657.639,2323.824,659.746z
						 M2170.773,651.777c-1.412-4.228-2.139-8.598-1.668-13.011l1.814,0.191c-0.441,4.152,0.254,8.254,1.582,12.234
						L2170.773,651.777z M2339.374,649.961l-1.037-1.502c3.46-2.386,6.922-4.923,10.29-7.543l1.119,1.44
						C2346.351,644.997,2342.861,647.556,2339.374,649.961z M2213.646,646.341c-0.03-4.407-0.779-8.52-2.222-12.227l1.7-0.663
						c1.525,3.914,2.315,8.247,2.347,12.877L2213.646,646.341z M2354.056,638.919l-1.155-1.413c3.259-2.661,6.512-5.469,9.672-8.347
						l1.229,1.349C2360.618,633.408,2357.338,636.237,2354.056,638.919z M2172.066,633.806l-1.725-0.597
						c1.465-4.239,4.041-7.99,7.449-10.85l1.172,1.397C2175.808,626.404,2173.424,629.879,2172.066,633.806z M2209.038,629.367
						c-2.192-3.5-5.455-6.695-8.841-8.42l0.844-1.618c3.672,1.873,7.174,5.291,9.54,9.063L2209.038,629.367z M2367.841,626.747
						l-1.258-1.322c3.042-2.896,6.083-5.941,9.037-9.049l1.322,1.256C2373.967,620.762,2370.906,623.828,2367.841,626.747z
						 M2183.375,620.882l-0.802-1.639c4.126-2.004,8.648-2.686,13.055-1.822l-0.353,1.791
						C2191.256,618.424,2187.146,619.052,2183.375,620.882z M2380.706,613.587l-1.347-1.229c2.824-3.096,5.652-6.345,8.401-9.657
						l1.404,1.165C2386.395,607.2,2383.549,610.47,2380.706,613.587z M2392.654,599.578l-1.426-1.139
						c2.614-3.272,5.231-6.696,7.779-10.176l1.472,1.078C2397.917,592.842,2395.284,596.286,2392.654,599.578z M2403.705,584.849
						l-1.49-1.051c2.414-3.422,4.829-6.992,7.177-10.612l1.532,0.992C2408.562,577.819,2406.133,581.41,2403.705,584.849z
						 M2413.896,569.518l-1.547-0.969c2.231-3.558,4.454-7.253,6.609-10.979l1.579,0.912
						C2418.372,562.228,2416.138,565.941,2413.896,569.518z M2423.265,553.679l-1.593-0.891c2.062-3.687,4.103-7.485,6.069-11.288
						l1.621,0.837C2427.388,546.159,2425.335,549.974,2423.265,553.679z M2431.865,537.416l-1.632-0.816
						c1.882-3.76,3.752-7.645,5.559-11.546l1.657,0.768C2435.634,529.739,2433.754,533.64,2431.865,537.416z M2439.735,520.802
						l-1.664-0.746c1.719-3.833,3.43-7.789,5.08-11.76l1.686,0.7C2443.179,512.983,2441.462,516.955,2439.735,520.802z
						 M2446.921,503.898l-1.693-0.682c1.566-3.886,3.123-7.903,4.629-11.939l1.711,0.638
						C2450.057,495.965,2448.493,499.997,2446.921,503.898z M2453.464,486.747l-1.718-0.62c1.429-3.952,2.842-8.019,4.201-12.088
						l1.732,0.579C2456.315,478.701,2454.895,482.782,2453.464,486.747z M2459.397,469.397l-1.736-0.561
						c1.295-4.007,2.571-8.117,3.795-12.214l1.75,0.522C2461.977,461.254,2460.696,465.377,2459.397,469.397z M2464.757,451.859
						l-1.753-0.506c1.165-4.036,2.316-8.191,3.419-12.351l1.764,0.469C2467.08,443.642,2465.926,447.81,2464.757,451.859z
						 M2469.576,434.14l-1.768-0.453c1.041-4.061,2.067-8.249,3.052-12.448l1.774,0.417
						C2471.648,425.866,2470.619,430.067,2469.576,434.14z M2473.867,416.288l-1.778-0.401c0.923-4.098,1.83-8.315,2.692-12.531
						l1.789,0.365C2475.704,407.95,2474.795,412.178,2473.867,416.288z"/>
				</g>
				<g>
					<path style="fill:#F08F3C;" d="M2124.575,712.851l-0.185-1.816c2.09-0.212,4.194-0.458,6.313-0.743l0.242,1.809
						C2128.809,712.387,2126.683,712.637,2124.575,712.851z"/>
				</g>
			</g>
		</g>
	</g>
	<g>
		<g>
			<g>
				<defs>
					<path id="XMLID_00000168800793914356489220000011138113715505481888_" d="M1148.454,774.959
						c-3.568,208.934-314.353,208.901-317.891-0.007C834.131,566.026,1144.916,566.059,1148.454,774.959z"/>
				</defs>
				<use xlink:href="#XMLID_00000168800793914356489220000011138113715505481888_"  style="overflow:visible;fill:#F9CE68;"/>
				<clipPath id="XMLID_00000115505577222625191250000010858878975181805970_">
					<use xlink:href="#XMLID_00000168800793914356489220000011138113715505481888_"  style="overflow:visible;"/>
				</clipPath>
				<path style="clip-path:url(#XMLID_00000115505577222625191250000010858878975181805970_);fill:#F08F3C;" d="M1113.429,648.436
					c85.406,195.369-144.328,350.773-290.167,204.555c0,0,86.804,117.674,186.773,106.677s164.981-62.686,169.38-105.577
					C1183.814,811.201,1153.021,668.232,1113.429,648.436z"/>
			</g>
			<g>
				<path style="fill:#324D90;" d="M1030.382,827.634H922.916c-10.222,0-18.508-8.286-18.508-18.508v-63.01
					c0-10.222,8.286-18.508,18.508-18.508h107.467c10.222,0,18.508,8.286,18.508,18.508v63.01
					C1048.891,819.347,1040.604,827.634,1030.382,827.634z"/>
				<polygon style="fill:#324D90;" points="1055.812,752.271 1055.812,795.707 1095.227,820.325 1095.227,733.851 				"/>
			</g>
		</g>
		<path style="fill:#324D90;" d="M920.159,662.359c-0.872,51.063-76.827,51.055-77.691-0.002
			C843.34,611.297,919.294,611.305,920.159,662.359z"/>
	</g>
	<g>
		<g>
			<path style="fill:#A7C9E8;" d="M2199.51,505.539c-65.51,132.872-264.751,38.809-203.804-96.197
				C2061.214,276.474,2260.455,370.538,2199.51,505.539z"/>
			<g>
				<defs>
					<path id="XMLID_00000144322150416531280840000015452027823757225901_" d="M2209.173,485.066
						c-70.43,142.85-284.633,41.723-219.109-103.421C2060.491,238.799,2274.694,339.926,2209.173,485.066z"/>
				</defs>
				<use xlink:href="#XMLID_00000144322150416531280840000015452027823757225901_"  style="overflow:visible;fill:#F9CE68;"/>
				<clipPath id="XMLID_00000000185698150651695200000015091209351142727072_">
					<use xlink:href="#XMLID_00000144322150416531280840000015452027823757225901_"  style="overflow:visible;"/>
				</clipPath>
				<path style="clip-path:url(#XMLID_00000000185698150651695200000015091209351142727072_);fill:#F08F3C;" d="M2065.037,302.569
					c5.295,8.836,13.403,16.361,17.084,25.857c-6.74,12.622-21.805,21.341-25.35,35.805c-0.754,15.717,8.785,30.054-1.931,45.367
					c-2.275,4.363-6.873,6.409-11.249,3.843c-9.946-4.126-19.893-8.253-29.839-12.379c-2.246-1.241-4.931-0.928-6.463,1.256
					c-9.159,11.533,10.937,29.413,0.094,40.428c-23.066,11.358-1.808,30.974-31.64,51.455
					C1946.41,396.019,1957.202,332.534,2065.037,302.569z"/>
				<path style="clip-path:url(#XMLID_00000000185698150651695200000015091209351142727072_);fill:#F08F3C;" d="M2184.178,470.931
					c-10.333-16.475-34.545,2.724-42.054,13.73c-2.14,3.715-5.899,6.775-9.611,3.547c-7.026-4.534-14.388-8.548-22.005-11.998
					c-7.649-4.922-16.347,0.662-17.132,9.51c-1.25,10.45,6.458,23.255-1.546,32.255c24.205,25.539,48.469-4.344,49.131,10.625
					c1.028,20.105,15.221,31.189,32.539,18.244c9.868-6.572,29.668-22.544,31.089-35.466
					C2205.886,499.587,2190.766,480.008,2184.178,470.931z"/>
				<path style="clip-path:url(#XMLID_00000000185698150651695200000015091209351142727072_);fill:#F08F3C;" d="M2126.777,358.614
					c-6.23,1.332-9.992,7.516-13.017,13.123c-7.094,15.112-17.991,29.36-23.007,45.053c4.262,8.432,25.664,9.495,30.385,1.671
					c6.484-11.462,3.356-24.256,20.923-19.763c18.62,2.609,25.984-13.974,35.095-26.495c5.169-6.655,31.078-19.12,18.504-27.821
					c-4.616-1.976-8.994-6.562-14.153-6.411c-10.113,5.166-12.545,33.519-24.461,35.379
					C2146.43,374.654,2139.814,355.826,2126.777,358.614z"/>
			</g>
		</g>
		<g>
			<polygon style="fill:#152E60;" points="2208.455,505.981 2217.264,515.229 2217.173,515.314 			"/>
			<polygon style="fill:#152E60;" points="2225.891,524.651 2234.27,534.299 2233.984,534.538 2225.705,524.816 			"/>
			<path style="fill:#152E60;" d="M2242.268,544.272c2.571,3.401,5.056,6.877,7.268,10.539l-0.534,0.318
				c-2.158-3.652-4.6-7.141-7.131-10.558L2242.268,544.272z"/>
			<path style="fill:#152E60;" d="M2253.637,566.929c-1.852,4.794-8.409,2.073-11.957,1.023l0.254-0.708
				c3.241,0.896,9.178,3.64,11.018-0.499L2253.637,566.929z"/>
			<polygon style="fill:#152E60;" points="2230.005,562.673 2218.852,556.41 2219.281,555.691 2230.373,561.969 			"/>
			<polygon style="fill:#152E60;" points="2207.988,549.671 2197.323,542.628 2197.841,541.865 2208.465,548.931 			"/>
			<polygon style="fill:#152E60;" points="2186.809,535.367 2176.416,527.934 2177.01,527.119 2187.366,534.578 			"/>
			<polygon style="fill:#152E60;" points="2166.128,520.36 2155.93,512.664 2156.595,511.795 2166.758,519.518 			"/>
			<polygon style="fill:#152E60;" points="2145.813,504.86 2135.774,496.96 2136.509,496.037 2146.513,503.964 			"/>
			<polygon style="fill:#152E60;" points="2125.805,488.97 2115.902,480.897 2116.708,479.921 2126.575,488.021 			"/>
			<polygon style="fill:#152E60;" points="2106.068,472.746 2096.294,464.518 2097.17,463.489 2106.908,471.744 			"/>
			<polygon style="fill:#152E60;" points="2086.591,456.206 2076.968,447.799 2077.841,446.805 2087.484,455.172 			"/>
			<polygon style="fill:#152E60;" points="2067.409,439.321 2057.917,430.768 2058.747,429.85 2068.261,438.365 			"/>
			<polygon style="fill:#152E60;" points="2048.492,422.139 2039.141,413.43 2039.928,412.59 2049.301,421.26 			"/>
			<polygon style="fill:#152E60;" points="2029.868,404.637 2020.679,395.753 2021.422,394.99 2030.632,403.835 			"/>
			<polygon style="fill:#152E60;" points="2011.586,386.771 2002.604,377.682 2003.303,376.997 2012.307,386.047 			"/>
			<polygon style="fill:#152E60;" points="1993.749,368.468 1985.049,359.105 1985.708,358.502 1994.427,367.823 			"/>
			<polygon style="fill:#152E60;" points="1976.55,349.556 1968.332,339.756 1968.959,339.249 1977.191,348.998 			"/>
			<path style="fill:#152E60;" d="M1960.571,329.582c-2.461-3.486-4.833-7.054-6.759-10.896l0.645-0.32
				c1.906,3.773,4.275,7.315,6.735,10.773L1960.571,329.582z"/>
			<path style="fill:#152E60;" d="M1955.099,307.587c4.355-0.289,8.476,1.596,12.411,3.201l-0.209,0.485
				c-3.843-1.524-7.913-3.341-12.117-3.038L1955.099,307.587z"/>
			<polygon style="fill:#152E60;" points="1978.922,316.561 1989.915,323.073 1989.769,323.31 1978.727,316.914 			"/>
			<polygon style="fill:#152E60;" points="2000.654,329.989 2011.213,337.174 2011.197,337.197 2000.569,330.117 			"/>
		</g>
		<g>
			<polygon style="fill:#152E60;" points="2223.843,411.421 2236.613,411.71 2236.608,411.833 			"/>
			<polygon style="fill:#152E60;" points="2249.376,412.243 2262.126,413.101 2262.094,413.469 2249.362,412.489 			"/>
			<path style="fill:#152E60;" d="M2274.839,414.434c4.226,0.558,8.444,1.226,12.611,2.18l-0.142,0.6
				c-4.128-0.988-8.326-1.694-12.536-2.292L2274.839,414.434z"/>
			<path style="fill:#152E60;" d="M2299.326,421.494c4.117,4.053-2.296,8.065-5.666,9.696l-0.339-0.668
				c2.885-1.515,9.128-4.822,5.511-8.522L2299.326,421.494z"/>
			<polygon style="fill:#152E60;" points="2281.735,435.897 2269.44,439.429 2269.233,438.621 2281.492,435.143 			"/>
			<polygon style="fill:#152E60;" points="2257.003,442.39 2244.488,444.982 2244.314,444.08 2256.816,441.533 			"/>
			<polygon style="fill:#152E60;" points="2231.924,447.306 2219.323,449.419 2219.165,448.427 2231.76,446.359 			"/>
			<polygon style="fill:#152E60;" points="2206.695,451.354 2194.043,453.138 2193.899,452.058 2206.544,450.319 			"/>
			<polygon style="fill:#152E60;" points="2181.373,454.786 2168.69,456.311 2168.558,455.144 2181.235,453.663 			"/>
			<polygon style="fill:#152E60;" points="2155.993,457.722 2143.283,459.025 2143.162,457.772 2155.865,456.512 			"/>
			<polygon style="fill:#152E60;" points="2130.567,460.226 2117.839,461.329 2117.731,459.99 2130.452,458.93 			"/>
			<polygon style="fill:#152E60;" points="2105.102,462.33 2092.354,463.199 2092.266,461.871 2105.001,460.959 			"/>
			<polygon style="fill:#152E60;" points="2079.6,463.973 2066.841,464.649 2066.778,463.404 2079.525,462.687 			"/>
			<polygon style="fill:#152E60;" points="2054.075,465.222 2041.305,465.688 2041.266,464.528 2054.024,464.02 			"/>
			<polygon style="fill:#152E60;" points="2028.531,466.04 2015.753,466.268 2015.737,465.193 2028.503,464.922 			"/>
			<polygon style="fill:#152E60;" points="2002.971,466.362 1990.193,466.304 1990.202,465.314 2002.968,465.329 			"/>
			<polygon style="fill:#152E60;" points="1977.416,466.07 1964.643,465.625 1964.681,464.722 1977.439,465.123 			"/>
			<polygon style="fill:#152E60;" points="1951.879,464.915 1939.136,463.843 1939.218,463.028 1951.937,464.055 			"/>
			<path style="fill:#152E60;" d="M1926.445,462.214c-4.212-0.686-8.417-1.493-12.524-2.734l0.214-0.702
				c4.055,1.211,8.239,2.001,12.432,2.669L1926.445,462.214z"/>
			<path style="fill:#152E60;" d="M1904.991,451.513c2.13-3.909,6.727-5.468,10.535-7.234l0.219,0.525
				c-3.624,1.721-8.092,3.294-10.114,6.969L1904.991,451.513z"/>
			<polygon style="fill:#152E60;" points="1927.638,440.162 1940.004,436.931 1940.08,437.242 1927.765,440.588 			"/>
			<polygon style="fill:#152E60;" points="1952.482,434.187 1965.025,431.772 1965.038,431.843 1952.522,434.379 			"/>
		</g>
	</g>
</g>
</svg>

