<?xml version="1.0" encoding="utf-8"?>
<!-- Generator: Adobe Illustrator 27.5.0, SVG Export Plug-In . SVG Version: 6.00 Build 0)  -->
<svg version="1.1" xmlns="http://www.w3.org/2000/svg" xmlns:xlink="http://www.w3.org/1999/xlink" x="0px" y="0px"
	 viewBox="0 0 500 500" style="enable-background:new 0 0 500 500;" xml:space="preserve">
<g id="Background_Complete">
	<g>
		<rect y="382.398" style="fill:#EBEBEB;" width="500" height="0.25"/>
		<rect x="416.779" y="398.494" style="fill:#EBEBEB;" width="33.122" height="0.25"/>
		<rect x="322.527" y="401.208" style="fill:#EBEBEB;" width="8.693" height="0.25"/>
		<rect x="396.586" y="389.208" style="fill:#EBEBEB;" width="19.192" height="0.25"/>
		<rect x="52.459" y="390.888" style="fill:#EBEBEB;" width="43.193" height="0.25"/>
		<rect x="104.556" y="390.888" style="fill:#EBEBEB;" width="6.333" height="0.25"/>
		<rect x="131.471" y="395.111" style="fill:#EBEBEB;" width="93.676" height="0.25"/>
		<path style="fill:#EBEBEB;" d="M237.014,337.8H43.915c-3.147,0-5.708-2.561-5.708-5.708V60.66c0-3.147,2.561-5.708,5.708-5.708
			h193.099c3.146,0,5.707,2.561,5.707,5.708v271.432C242.721,335.239,240.16,337.8,237.014,337.8z M43.915,55.203
			c-3.01,0-5.458,2.448-5.458,5.458v271.432c0,3.01,2.448,5.458,5.458,5.458h193.099c3.009,0,5.457-2.448,5.457-5.458V60.66
			c0-3.009-2.448-5.458-5.457-5.458H43.915z"/>
		<path style="fill:#EBEBEB;" d="M453.31,337.8H260.212c-3.147,0-5.707-2.561-5.707-5.708V60.66c0-3.147,2.561-5.708,5.707-5.708
			H453.31c3.148,0,5.708,2.561,5.708,5.708v271.432C459.019,335.239,456.458,337.8,453.31,337.8z M260.212,55.203
			c-3.009,0-5.457,2.448-5.457,5.458v271.432c0,3.01,2.448,5.458,5.457,5.458H453.31c3.01,0,5.458-2.448,5.458-5.458V60.66
			c0-3.009-2.448-5.458-5.458-5.458H260.212z"/>
	</g>
	<g>
		<path style="fill:#F0F0F0;" d="M156.516,292.522l-13.846,11.581l19.73,28.673l15.764-8.795
			c8.325,7.969,18.152,14.485,29.185,18.984l-1.596,17.93l34.224,6.323l4.916-17.315c11.912-0.258,23.418-2.836,34.039-7.303
			l11.583,13.847l28.671-19.73l-8.793-15.764c7.969-8.326,14.485-18.151,18.983-29.184l17.929,1.595l6.325-34.224l-17.316-4.917
			c-0.259-11.912-2.834-23.419-7.301-34.042l13.846-11.58l-19.728-28.673l-15.764,8.792c-8.326-7.965-18.151-14.485-29.185-18.982
			l1.596-17.93l-34.224-6.324l-4.918,17.317c-11.91,0.26-23.419,2.836-34.04,7.301l-11.581-13.844l-28.673,19.73l8.792,15.766
			c-7.967,8.323-14.483,18.148-18.984,29.183l-17.929-1.595l-6.324,34.223l17.318,4.918
			C149.473,270.394,152.049,281.899,156.516,292.522z M196.431,247.793c4.728-25.588,29.304-42.499,54.891-37.771
			c25.59,4.728,42.501,29.304,37.774,54.892c-4.728,25.588-29.304,42.499-54.894,37.772
			C208.615,297.957,191.704,273.38,196.431,247.793z"/>
		<path style="fill:#F0F0F0;" d="M387.381,274.831l10.819,1.999l1.553-5.473c3.766-0.082,7.403-0.897,10.761-2.309l3.661,4.378
			l9.063-6.238l-2.78-4.983c2.519-2.631,4.579-5.738,6.001-9.225l5.667,0.505l1.999-10.818l-5.473-1.554
			c-0.082-3.766-0.896-7.404-2.309-10.76l4.377-3.661l-6.237-9.064l-4.983,2.78c-2.632-2.517-5.737-4.579-9.226-6.001l0.505-5.666
			l-10.819-2l-1.553,5.474c-3.766,0.083-7.403,0.897-10.761,2.308l-3.661-4.376l-9.063,6.238l2.78,4.984
			c-2.518,2.631-4.579,5.736-6.001,9.225l-5.668-0.505l-1.999,10.818l5.474,1.554c0.081,3.765,0.896,7.403,2.307,10.76l-4.376,3.661
			l6.236,9.064l4.983-2.781c2.632,2.518,5.739,4.579,9.227,6L387.381,274.831z M384.435,239.078
			c1.495-8.088,9.263-13.433,17.351-11.939c8.09,1.494,13.434,9.262,11.941,17.351c-1.495,8.089-9.263,13.434-17.353,11.94
			C388.286,254.936,382.94,247.167,384.435,239.078z"/>
		<path style="fill:#F0F0F0;" d="M83.701,305.644l8.241,1.522l1.183-4.169c2.869-0.063,5.639-0.683,8.197-1.759l2.789,3.335
			l6.904-4.752l-2.117-3.796c1.919-2.004,3.488-4.371,4.571-7.027l4.316,0.384l1.523-8.241l-4.169-1.184
			c-0.063-2.869-0.683-5.64-1.759-8.197l3.334-2.789l-4.751-6.905l-3.796,2.117c-2.005-1.917-4.37-3.488-7.028-4.571l0.385-4.316
			l-8.241-1.524l-1.183,4.17c-2.869,0.063-5.64,0.683-8.197,1.758l-2.789-3.334l-6.904,4.751l2.117,3.796
			c-1.918,2.004-3.488,4.37-4.571,7.027l-4.317-0.384l-1.522,8.241l4.17,1.184c0.062,2.868,0.682,5.639,1.757,8.197l-3.334,2.789
			l4.75,6.905l3.796-2.118c2.005,1.918,4.372,3.488,7.029,4.571L83.701,305.644z M81.457,278.409
			c1.138-6.161,7.056-10.233,13.217-9.095c6.162,1.138,10.233,7.056,9.096,13.217c-1.139,6.162-7.056,10.234-13.218,9.095
			C84.391,290.489,80.319,284.571,81.457,278.409z"/>
		<path style="fill:#F0F0F0;" d="M230.854,122.017l6.235,1.152l0.895-3.155c2.17-0.047,4.267-0.517,6.202-1.331l2.11,2.523
			l5.224-3.595l-1.602-2.872c1.452-1.516,2.639-3.307,3.459-5.317l3.266,0.291l1.152-6.235l-3.154-0.896
			c-0.047-2.171-0.517-4.267-1.331-6.202l2.523-2.11l-3.595-5.224l-2.872,1.602c-1.517-1.451-3.307-2.639-5.317-3.459l0.291-3.266
			l-6.235-1.153l-0.895,3.155c-2.171,0.048-4.267,0.517-6.202,1.33l-2.11-2.522l-5.224,3.595l1.602,2.872
			c-1.451,1.516-2.639,3.306-3.458,5.317l-3.266-0.291l-1.152,6.235l3.155,0.895c0.047,2.17,0.516,4.266,1.33,6.202l-2.522,2.11
			l3.594,5.224l2.872-1.603c1.517,1.451,3.308,2.639,5.318,3.458L230.854,122.017z M229.156,101.411
			c0.861-4.662,5.339-7.742,10-6.881c4.662,0.861,7.743,5.338,6.882,10c-0.862,4.662-5.339,7.743-10.001,6.881
			C231.375,110.55,228.294,106.073,229.156,101.411z"/>
		<path style="fill:#F0F0F0;" d="M334.489,172.185l4.159,0.768l0.597-2.104c1.448-0.032,2.846-0.345,4.136-0.887l1.407,1.683
			l3.484-2.398l-1.068-1.915c0.968-1.011,1.76-2.206,2.307-3.546l2.178,0.194l0.768-4.158l-2.104-0.597
			c-0.031-1.448-0.344-2.846-0.887-4.136l1.683-1.407l-2.397-3.484l-1.915,1.068c-1.011-0.968-2.205-1.76-3.546-2.307l0.194-2.178
			l-4.159-0.769l-0.597,2.104c-1.448,0.032-2.846,0.345-4.136,0.887l-1.407-1.682l-3.484,2.398l1.068,1.916
			c-0.968,1.011-1.76,2.205-2.306,3.546l-2.179-0.194l-0.768,4.158l2.104,0.597c0.031,1.447,0.344,2.846,0.887,4.136l-1.682,1.407
			l2.397,3.484l1.915-1.069c1.012,0.968,2.206,1.76,3.547,2.307L334.489,172.185z M333.357,158.443
			c0.574-3.109,3.561-5.163,6.669-4.589c3.109,0.575,5.164,3.56,4.59,6.669c-0.575,3.109-3.561,5.164-6.67,4.589
			C334.837,164.538,332.782,161.552,333.357,158.443z"/>
		<path style="fill:#F0F0F0;" d="M142.749,122.072l4.159,0.768l0.597-2.104c1.448-0.032,2.846-0.345,4.136-0.887l1.407,1.683
			l3.484-2.398l-1.068-1.915c0.968-1.011,1.76-2.206,2.307-3.546l2.178,0.194l0.768-4.158l-2.104-0.597
			c-0.032-1.448-0.344-2.846-0.887-4.136l1.683-1.407l-2.397-3.484l-1.915,1.068c-1.011-0.968-2.205-1.76-3.546-2.307l0.194-2.178
			l-4.158-0.769l-0.597,2.104c-1.448,0.032-2.846,0.345-4.136,0.887l-1.407-1.682l-3.484,2.397l1.068,1.916
			c-0.968,1.011-1.76,2.205-2.307,3.546l-2.179-0.194l-0.768,4.158l2.104,0.597c0.031,1.447,0.344,2.846,0.887,4.136l-1.682,1.407
			l2.397,3.484l1.915-1.069c1.012,0.968,2.206,1.76,3.547,2.306L142.749,122.072z M141.616,108.329
			c0.574-3.109,3.561-5.163,6.669-4.589c3.109,0.575,5.164,3.56,4.59,6.669c-0.575,3.109-3.561,5.164-6.67,4.589
			C143.096,114.424,141.042,111.438,141.616,108.329z"/>
		<path style="fill:#F0F0F0;" d="M327.621,343.762c0.054,2.526,0.601,4.966,1.548,7.218l-2.937,2.456l4.184,6.079l3.343-1.865
			c1.766,1.689,3.848,3.072,6.188,4.025l-0.338,3.802l7.257,1.34l1.042-3.671c2.526-0.055,4.966-0.602,7.218-1.549l2.455,2.936
			l6.08-4.183l-1.864-3.343c1.689-1.765,3.071-3.849,4.025-6.188l3.801,0.339l1.341-7.257l-3.672-1.042
			c-0.055-2.526-0.601-4.966-1.548-7.218l2.936-2.456l-4.184-6.079l-3.342,1.864c-1.765-1.689-3.848-3.071-6.188-4.025l0.338-3.801
			l-7.257-1.341l-1.042,3.672c-2.526,0.055-4.965,0.601-7.219,1.548l-2.455-2.935l-6.079,4.183l1.865,3.343
			c-1.689,1.765-3.072,3.849-4.025,6.188l-3.802-0.339l-1.34,7.257L327.621,343.762z M337.632,341.495
			c1.003-5.425,6.214-9.011,11.64-8.008c5.425,1.002,9.011,6.214,8.009,11.639c-1.003,5.426-6.213,9.011-11.639,8.009
			C340.215,352.131,336.63,346.921,337.632,341.495z"/>
		<g>
			<path style="fill:#E0E0E0;" d="M390.432,300.699l-11.173,4.092l11.173,4.059v4.193l-15.97-6.072v-4.361l15.97-6.073V300.699z"/>
			<path style="fill:#E0E0E0;" d="M402.454,288.284h4.663l-11.071,31.605h-4.665L402.454,288.284z"/>
			<path style="fill:#E0E0E0;" d="M423.699,302.611v4.361l-15.971,6.072v-4.193l11.172-4.059l-11.172-4.092v-4.161L423.699,302.611z
				"/>
		</g>
		<g>
			<path style="fill:#E0E0E0;" d="M112.843,354.076c1.602,0.488,2.334,1.498,2.334,3.903v5.575c0,1.637,0.837,2.579,2.544,2.579
				h0.628v4.25h-2.021c-4.355,0-6.585-2.23-6.585-6.238v-6.306c0-1.115-0.593-1.639-1.534-1.639h-1.151v-4.25h1.151
				c0.94,0,1.534-0.523,1.534-1.639v-6.307c0-4.006,2.23-6.236,6.585-6.236h2.021v4.25h-0.628c-1.707,0-2.544,0.941-2.544,2.579
				v5.575C115.177,352.577,114.445,353.587,112.843,354.076z"/>
			<path style="fill:#E0E0E0;" d="M140.557,351.95v4.25h-1.15c-0.941,0-1.533,0.523-1.533,1.639v6.306
				c0,4.008-2.23,6.238-6.585,6.238h-2.021v-4.25h0.628c1.707,0,2.544-0.942,2.544-2.579v-5.575c0-2.405,0.731-3.415,2.334-3.903
				c-1.603-0.488-2.334-1.498-2.334-3.903v-5.575c0-1.638-0.837-2.579-2.544-2.579h-0.628v-4.25h2.021
				c4.355,0,6.585,2.23,6.585,6.236v6.307c0,1.115,0.593,1.639,1.533,1.639H140.557z"/>
		</g>
		<g>
			<path style="fill:#E0E0E0;" d="M98.489,151.126c0-6.852,5.26-11.756,12.34-11.756c3.929,0,7.209,1.429,9.352,4.027l-3.378,3.117
				c-1.526-1.753-3.441-2.663-5.715-2.663c-4.254,0-7.274,2.988-7.274,7.274s3.02,7.274,7.274,7.274c2.274,0,4.19-0.91,5.715-2.696
				l3.378,3.117c-2.143,2.631-5.423,4.06-9.385,4.06C103.749,162.882,98.489,157.978,98.489,151.126z"/>
			<path style="fill:#E0E0E0;" d="M138.313,153.106h-5.65v5.521h-4.19v-5.521h-5.617v-3.961h5.617v-5.521h4.19v5.521h5.65V153.106z"
				/>
			<path style="fill:#E0E0E0;" d="M157.971,153.106h-5.65v5.521h-4.189v-5.521h-5.617v-3.961h5.617v-5.521h4.189v5.521h5.65V153.106
				z"/>
		</g>
		<g>
			<path style="fill:#E0E0E0;" d="M182.055,265.631l3.288-3.944c1.388,1.862,2.922,2.812,4.749,2.812
				c2.374,0,3.616-1.425,3.616-4.237v-12.166h-8.986v-4.749h14.868v16.586c0,6.319-3.178,9.425-9.206,9.425
				C186.95,269.358,183.919,268.044,182.055,265.631z"/>
			<path style="fill:#E0E0E0;" d="M203.143,267.093l1.901-4.091c1.752,1.132,4.42,1.899,6.831,1.899
				c2.629,0,3.615-0.695,3.615-1.789c0-3.215-11.871,0.073-11.871-7.781c0-3.727,3.36-6.356,9.096-6.356
				c2.702,0,5.698,0.62,7.561,1.716l-1.899,4.056c-1.936-1.096-3.873-1.462-5.662-1.462c-2.558,0-3.654,0.805-3.654,1.826
				c0,3.361,11.873,0.11,11.873,7.854c0,3.654-3.397,6.248-9.279,6.248C208.33,269.213,204.969,268.298,203.143,267.093z"/>
		</g>
	</g>
</g>
<g id="Background_Simple" style="display:none;">
	<g style="display:inline;">
		<path style="fill:#407BFF;" d="M249.826,86.19c-74.558,35.448-8.31,95.436-51.569,129.378
			c-43.259,33.941-158.871-2.645-115.914,83.006c50.458,100.609,278.553,82.873,329.622-42.339
			C463.034,131.023,324.384,50.743,249.826,86.19z"/>
		<path style="opacity:0.9;fill:#FFFFFF;" d="M249.826,86.19c-74.558,35.448-8.31,95.436-51.569,129.378
			c-43.259,33.941-158.871-2.645-115.914,83.006c50.458,100.609,278.553,82.873,329.622-42.339
			C463.034,131.023,324.384,50.743,249.826,86.19z"/>
	</g>
</g>
<g id="Shadow_1_">
	<ellipse id="_x3C_Path_x3E__359_" style="fill:#F5F5F5;" cx="250" cy="416.238" rx="193.889" ry="11.323"/>
</g>
<g id="Program_icons">
	<g>
		<g>
			<path style="fill:#407BFF;" d="M325.931,127.38h-29.832c-1.254,0-2.27-1.016-2.27-2.27V95.278c0-1.254,1.016-2.27,2.27-2.27
				h29.832c1.254,0,2.27,1.016,2.27,2.27v29.832C328.201,126.364,327.185,127.38,325.931,127.38z"/>
		</g>
		<g style="opacity:0.4;enable-background:new    ;">
			<path style="fill:#FFFFFF;" d="M325.931,127.38h-29.832c-1.254,0-2.27-1.016-2.27-2.27V95.278c0-1.254,1.016-2.27,2.27-2.27
				h29.832c1.254,0,2.27,1.016,2.27,2.27v29.832C328.201,126.364,327.185,127.38,325.931,127.38z"/>
		</g>
		<g>
			<path style="fill:#FFFFFF;" d="M306.402,108.385l-5.965,2.185l5.965,2.168v2.239l-8.527-3.242v-2.329l8.527-3.243V108.385z"/>
			<path style="fill:#FFFFFF;" d="M312.815,101.757h2.49l-5.912,16.875h-2.49L312.815,101.757z"/>
			<path style="fill:#FFFFFF;" d="M324.155,109.406v2.329l-8.527,3.242v-2.239l5.965-2.168l-5.965-2.185v-2.222L324.155,109.406z"/>
		</g>
		<g>
			<path style="fill:#263238;" d="M301.401,133.656v8.353h-1.933v-3.425h-3.794v3.425h-1.933v-8.353h1.933v3.293h3.794v-3.293
				H301.401z"/>
			<path style="fill:#263238;" d="M305.118,135.231h-2.673v-1.575h7.279v1.575h-2.673v6.778h-1.933V135.231z"/>
			<path style="fill:#263238;" d="M318.367,142.009l-0.012-5.012l-2.458,4.129h-0.871l-2.446-4.021v4.904h-1.814v-8.353h1.599
				l3.126,5.19l3.078-5.19h1.587l0.023,8.353H318.367z"/>
			<path style="fill:#263238;" d="M322.168,133.656h1.933v6.777h4.188v1.575h-6.122V133.656z"/>
		</g>
		<g style="opacity:0.6;enable-background:new    ;">
			<path style="fill:#FFFFFF;" d="M301.401,133.656v8.353h-1.933v-3.425h-3.794v3.425h-1.933v-8.353h1.933v3.293h3.794v-3.293
				H301.401z"/>
			<path style="fill:#FFFFFF;" d="M305.118,135.231h-2.673v-1.575h7.279v1.575h-2.673v6.778h-1.933V135.231z"/>
			<path style="fill:#FFFFFF;" d="M318.367,142.009l-0.012-5.012l-2.458,4.129h-0.871l-2.446-4.021v4.904h-1.814v-8.353h1.599
				l3.126,5.19l3.078-5.19h1.587l0.023,8.353H318.367z"/>
			<path style="fill:#FFFFFF;" d="M322.168,133.656h1.933v6.777h4.188v1.575h-6.122V133.656z"/>
		</g>
	</g>
	<g>
		<g>
			<path style="fill:#407BFF;" d="M399.439,145.7h-29.832c-1.254,0-2.27-1.016-2.27-2.27v-29.832c0-1.254,1.016-2.27,2.27-2.27
				h29.832c1.254,0,2.27,1.016,2.27,2.27v29.832C401.709,144.683,400.693,145.7,399.439,145.7z"/>
		</g>
		<g style="opacity:0.4;enable-background:new    ;">
			<path style="fill:#FFFFFF;" d="M399.439,145.7h-29.832c-1.254,0-2.27-1.016-2.27-2.27v-29.832c0-1.254,1.016-2.27,2.27-2.27
				h29.832c1.254,0,2.27,1.016,2.27,2.27v29.832C401.709,144.683,400.693,145.7,399.439,145.7z"/>
		</g>
		<g>
			<path style="fill:#FFFFFF;" d="M378.89,128.514c0.824,0.25,1.2,0.77,1.2,2.006v2.866c0,0.842,0.43,1.326,1.308,1.326h0.322v2.185
				h-1.039c-2.239,0-3.386-1.146-3.386-3.207v-3.242c0-0.573-0.305-0.842-0.789-0.842h-0.591v-2.186h0.591
				c0.484,0,0.789-0.269,0.789-0.842v-3.242c0-2.06,1.146-3.206,3.386-3.206h1.039v2.185h-0.322c-0.878,0-1.308,0.483-1.308,1.326
				v2.866C380.09,127.743,379.714,128.263,378.89,128.514z"/>
			<path style="fill:#FFFFFF;" d="M393.13,127.421v2.186h-0.591c-0.483,0-0.788,0.269-0.788,0.842v3.242
				c0,2.06-1.146,3.207-3.386,3.207h-1.039v-2.185h0.323c0.877,0,1.308-0.484,1.308-1.326v-2.866c0-1.236,0.376-1.756,1.2-2.006
				c-0.824-0.251-1.2-0.771-1.2-2.006v-2.866c0-0.842-0.43-1.326-1.308-1.326h-0.323v-2.185h1.039c2.239,0,3.386,1.146,3.386,3.206
				v3.242c0,0.573,0.305,0.842,0.788,0.842H393.13z"/>
		</g>
		<g>
			<path style="fill:#263238;" d="M372.968,156.284c0-2.518,1.933-4.319,4.534-4.319c1.444,0,2.649,0.525,3.436,1.48l-1.241,1.145
				c-0.561-0.645-1.265-0.979-2.1-0.979c-1.563,0-2.673,1.098-2.673,2.673c0,1.575,1.11,2.673,2.673,2.673
				c0.835,0,1.539-0.334,2.1-0.99l1.241,1.145c-0.788,0.966-1.993,1.491-3.448,1.491
				C374.901,160.603,372.968,158.801,372.968,156.284z"/>
			<path style="fill:#263238;" d="M381.517,159.637l0.656-1.456c0.704,0.513,1.754,0.871,2.756,0.871
				c1.146,0,1.611-0.382,1.611-0.895c0-1.563-4.856-0.489-4.856-3.592c0-1.42,1.146-2.601,3.52-2.601c1.05,0,2.124,0.25,2.9,0.74
				l-0.597,1.467c-0.776-0.441-1.575-0.656-2.315-0.656c-1.146,0-1.587,0.43-1.587,0.955c0,1.54,4.857,0.478,4.857,3.544
				c0,1.396-1.158,2.589-3.544,2.589C383.593,160.603,382.256,160.21,381.517,159.637z"/>
			<path style="fill:#263238;" d="M389.134,159.637l0.656-1.456c0.704,0.513,1.754,0.871,2.756,0.871
				c1.146,0,1.611-0.382,1.611-0.895c0-1.563-4.857-0.489-4.857-3.592c0-1.42,1.146-2.601,3.52-2.601c1.05,0,2.124,0.25,2.9,0.74
				l-0.597,1.467c-0.776-0.441-1.575-0.656-2.315-0.656c-1.145,0-1.587,0.43-1.587,0.955c0,1.54,4.857,0.478,4.857,3.544
				c0,1.396-1.158,2.589-3.544,2.589C391.21,160.603,389.874,160.21,389.134,159.637z"/>
		</g>
		<g style="opacity:0.6;enable-background:new    ;">
			<path style="fill:#FFFFFF;" d="M372.968,156.284c0-2.518,1.933-4.319,4.534-4.319c1.444,0,2.649,0.525,3.436,1.48l-1.241,1.145
				c-0.561-0.645-1.265-0.979-2.1-0.979c-1.563,0-2.673,1.098-2.673,2.673c0,1.575,1.11,2.673,2.673,2.673
				c0.835,0,1.539-0.334,2.1-0.99l1.241,1.145c-0.788,0.966-1.993,1.491-3.448,1.491
				C374.901,160.603,372.968,158.801,372.968,156.284z"/>
			<path style="fill:#FFFFFF;" d="M381.517,159.637l0.656-1.456c0.704,0.513,1.754,0.871,2.756,0.871
				c1.146,0,1.611-0.382,1.611-0.895c0-1.563-4.856-0.489-4.856-3.592c0-1.42,1.146-2.601,3.52-2.601c1.05,0,2.124,0.25,2.9,0.74
				l-0.597,1.467c-0.776-0.441-1.575-0.656-2.315-0.656c-1.146,0-1.587,0.43-1.587,0.955c0,1.54,4.857,0.478,4.857,3.544
				c0,1.396-1.158,2.589-3.544,2.589C383.593,160.603,382.256,160.21,381.517,159.637z"/>
			<path style="fill:#FFFFFF;" d="M389.134,159.637l0.656-1.456c0.704,0.513,1.754,0.871,2.756,0.871
				c1.146,0,1.611-0.382,1.611-0.895c0-1.563-4.857-0.489-4.857-3.592c0-1.42,1.146-2.601,3.52-2.601c1.05,0,2.124,0.25,2.9,0.74
				l-0.597,1.467c-0.776-0.441-1.575-0.656-2.315-0.656c-1.145,0-1.587,0.43-1.587,0.955c0,1.54,4.857,0.478,4.857,3.544
				c0,1.396-1.158,2.589-3.544,2.589C391.21,160.603,389.874,160.21,389.134,159.637z"/>
		</g>
	</g>
</g>
<g id="Tabs">
	<g>
		<g>
			<rect x="148.552" y="107.981" width="122.51" height="88.678"/>
			<rect x="148.552" y="107.981" style="opacity:0.9;fill:#FFFFFF;enable-background:new    ;" width="122.51" height="88.678"/>
			<rect x="148.552" y="107.981" style="opacity:0.1;" width="17.063" height="88.678"/>
			<rect x="148.552" y="107.981" style="fill:#407BFF;" width="122.51" height="8.29"/>
			<g style="opacity:0.2;">
				<g>
					<path d="M197.712,128.779h-22.317c-0.552,0-1-0.448-1-1c0-0.552,0.448-1,1-1h22.317c0.552,0,1,0.448,1,1
						C198.712,128.331,198.264,128.779,197.712,128.779z"/>
				</g>
				<g>
					<path d="M246.965,128.779h-43.319c-0.552,0-1-0.448-1-1c0-0.552,0.448-1,1-1h43.319c0.552,0,1,0.448,1,1
						C247.965,128.331,247.517,128.779,246.965,128.779z"/>
				</g>
				<g>
					<path d="M236.679,135.307h-58.282c-0.552,0-1-0.448-1-1c0-0.552,0.448-1,1-1h58.282c0.552,0,1,0.448,1,1
						C237.679,134.859,237.231,135.307,236.679,135.307z"/>
				</g>
				<g>
					<path d="M212.943,141.834h-37.548c-0.552,0-1-0.448-1-1c0-0.552,0.448-1,1-1h37.548c0.552,0,1,0.448,1,1
						C213.943,141.386,213.495,141.834,212.943,141.834z"/>
				</g>
				<g>
					<path d="M246.965,141.834h-26.901c-0.552,0-1-0.448-1-1c0-0.552,0.448-1,1-1h26.901c0.552,0,1,0.448,1,1
						C247.965,141.386,247.517,141.834,246.965,141.834z"/>
				</g>
				<g>
					<path d="M196.13,148.362h-20.735c-0.552,0-1-0.448-1-1c0-0.552,0.448-1,1-1h20.735c0.552,0,1,0.448,1,1
						C197.13,147.914,196.682,148.362,196.13,148.362z"/>
				</g>
				<g>
					<path d="M235.492,148.362h-32.637c-0.552,0-1-0.448-1-1c0-0.552,0.448-1,1-1h32.637c0.552,0,1,0.448,1,1
						C236.492,147.914,236.044,148.362,235.492,148.362z"/>
				</g>
				<g>
					<path d="M206.287,154.889h-27.89c-0.552,0-1-0.448-1-1c0-0.552,0.448-1,1-1h27.89c0.552,0,1,0.448,1,1
						C207.287,154.441,206.839,154.889,206.287,154.889z"/>
				</g>
				<g>
					<path d="M209.778,161.416h-31.381c-0.552,0-1-0.448-1-1c0-0.552,0.448-1,1-1h31.381c0.552,0,1,0.448,1,1
						C210.778,160.969,210.331,161.416,209.778,161.416z"/>
				</g>
				<g>
					<path d="M246.965,161.416h-32.044c-0.552,0-1-0.448-1-1c0-0.552,0.448-1,1-1h32.044c0.552,0,1,0.448,1,1
						C247.965,160.969,247.517,161.416,246.965,161.416z"/>
				</g>
				<g>
					<path d="M193.36,167.944h-17.965c-0.552,0-1-0.448-1-1c0-0.552,0.448-1,1-1h17.965c0.552,0,1,0.448,1,1
						C194.36,167.496,193.913,167.944,193.36,167.944z"/>
				</g>
				<g>
					<path d="M246.965,167.944h-47.473c-0.552,0-1-0.448-1-1c0-0.552,0.448-1,1-1h47.473c0.552,0,1,0.448,1,1
						C247.965,167.496,247.517,167.944,246.965,167.944z"/>
				</g>
				<g>
					<path d="M209.58,174.472h-31.183c-0.552,0-1-0.448-1-1s0.448-1,1-1h31.183c0.552,0,1,0.448,1,1S210.132,174.472,209.58,174.472
						z"/>
				</g>
				<g>
					<path d="M234.108,174.472h-20.176c-0.552,0-1-0.448-1-1s0.448-1,1-1h20.176c0.552,0,1,0.448,1,1
						S234.66,174.472,234.108,174.472z"/>
				</g>
				<g>
					<path d="M214.292,180.999h-35.895c-0.552,0-1-0.448-1-1c0-0.552,0.448-1,1-1h35.895c0.552,0,1,0.448,1,1
						C215.292,180.551,214.844,180.999,214.292,180.999z"/>
				</g>
			</g>
			<g>
				<circle style="opacity:0.4;fill:#FFFFFF;" cx="265.788" cy="112.184" r="1.714"/>
				<circle style="opacity:0.4;fill:#FFFFFF;" cx="259.784" cy="112.184" r="1.714"/>
				<circle style="opacity:0.4;fill:#FFFFFF;" cx="253.78" cy="112.184" r="1.714"/>
			</g>
			<g style="opacity:0.2;">
				<g>
					<path d="M157.384,128.779h-0.046c-0.552,0-1-0.448-1-1c0-0.552,0.448-1,1-1c0.552,0,1.023,0.448,1.023,1
						C158.361,128.331,157.936,128.779,157.384,128.779z"/>
				</g>
				<g>
					<path d="M157.384,135.307h-0.046c-0.552,0-1-0.448-1-1c0-0.552,0.448-1,1-1c0.552,0,1.023,0.448,1.023,1
						C158.361,134.859,157.936,135.307,157.384,135.307z"/>
				</g>
				<g>
					<path d="M157.384,141.834h-0.046c-0.552,0-1-0.448-1-1c0-0.552,0.448-1,1-1c0.552,0,1.023,0.448,1.023,1
						C158.361,141.386,157.936,141.834,157.384,141.834z"/>
				</g>
				<g>
					<path d="M157.384,148.362h-0.046c-0.552,0-1-0.448-1-1c0-0.552,0.448-1,1-1c0.552,0,1.023,0.448,1.023,1
						C158.361,147.914,157.936,148.362,157.384,148.362z"/>
				</g>
				<g>
					<path d="M157.384,154.889h-0.046c-0.552,0-1-0.448-1-1c0-0.552,0.448-1,1-1c0.552,0,1.023,0.448,1.023,1
						C158.361,154.441,157.936,154.889,157.384,154.889z"/>
				</g>
				<g>
					<path d="M157.384,161.416h-0.046c-0.552,0-1-0.448-1-1c0-0.552,0.448-1,1-1c0.552,0,1.023,0.448,1.023,1
						C158.361,160.969,157.936,161.416,157.384,161.416z"/>
				</g>
				<g>
					<path d="M157.384,167.944h-0.046c-0.552,0-1-0.448-1-1c0-0.552,0.448-1,1-1c0.552,0,1.023,0.448,1.023,1
						C158.361,167.496,157.936,167.944,157.384,167.944z"/>
				</g>
				<g>
					<path d="M157.384,174.472h-0.046c-0.552,0-1-0.448-1-1s0.448-1,1-1c0.552,0,1.023,0.448,1.023,1
						S157.936,174.472,157.384,174.472z"/>
				</g>
				<g>
					<path d="M157.384,180.999h-0.046c-0.552,0-1-0.448-1-1c0-0.552,0.448-1,1-1c0.552,0,1.023,0.448,1.023,1
						C158.361,180.551,157.936,180.999,157.384,180.999z"/>
				</g>
			</g>
		</g>
		<g>
			<rect x="221.492" y="180.344" style="fill:#263238;" width="160.534" height="102.786"/>
			<rect x="221.492" y="180.344" style="opacity:0.9;fill:#FFFFFF;enable-background:new    ;" width="160.534" height="102.786"/>
			<rect x="221.492" y="180.344" style="opacity:0.1;" width="25.041" height="102.786"/>
			<rect x="221.492" y="180.344" style="fill:#407BFF;" width="160.534" height="8.29"/>
			<g>
				<path style="fill:#FFFFFF;" d="M232.833,197.719l-2.663,0.976l2.663,0.967v1l-3.806-1.447v-1.04l3.806-1.447V197.719z"/>
				<path style="fill:#FFFFFF;" d="M235.698,194.761h1.111l-2.638,7.532h-1.111L235.698,194.761z"/>
				<path style="fill:#FFFFFF;" d="M240.763,198.175v1.04l-3.806,1.447v-1l2.663-0.967l-2.663-0.976v-0.992L240.763,198.175z"/>
			</g>
			<g style="opacity:0.2;">
				<g>
					<path d="M240.202,209.147h-10.879c-0.552,0-1-0.448-1-1c0-0.552,0.448-1,1-1h10.879c0.552,0,1,0.448,1,1
						C241.202,208.699,240.754,209.147,240.202,209.147z"/>
				</g>
				<g>
					<path d="M240.202,215.674h-10.879c-0.552,0-1-0.448-1-1c0-0.552,0.448-1,1-1h10.879c0.552,0,1,0.448,1,1
						C241.202,215.227,240.754,215.674,240.202,215.674z"/>
				</g>
				<g>
					<path d="M240.202,222.202h-10.879c-0.552,0-1-0.448-1-1c0-0.552,0.448-1,1-1h10.879c0.552,0,1,0.448,1,1
						C241.202,221.754,240.754,222.202,240.202,222.202z"/>
				</g>
				<g>
					<path d="M240.202,228.73h-10.879c-0.552,0-1-0.448-1-1c0-0.552,0.448-1,1-1h10.879c0.552,0,1,0.448,1,1
						C241.202,228.282,240.754,228.73,240.202,228.73z"/>
				</g>
				<g>
					<path d="M240.202,235.257h-10.879c-0.552,0-1-0.447-1-1c0-0.553,0.448-1,1-1h10.879c0.552,0,1,0.447,1,1
						C241.202,234.81,240.754,235.257,240.202,235.257z"/>
				</g>
				<g>
					<path d="M240.202,241.784h-10.879c-0.552,0-1-0.447-1-1c0-0.553,0.448-1,1-1h10.879c0.552,0,1,0.447,1,1
						C241.202,241.337,240.754,241.784,240.202,241.784z"/>
				</g>
				<g>
					<path d="M240.202,248.311h-10.879c-0.552,0-1-0.447-1-1c0-0.553,0.448-1,1-1h10.879c0.552,0,1,0.447,1,1
						C241.202,247.864,240.754,248.311,240.202,248.311z"/>
				</g>
				<g>
					<path d="M240.202,254.839h-10.879c-0.552,0-1-0.447-1-1c0-0.553,0.448-1,1-1h10.879c0.552,0,1,0.447,1,1
						C241.202,254.392,240.754,254.839,240.202,254.839z"/>
				</g>
				<g>
					<path d="M240.202,261.366h-10.879c-0.552,0-1-0.447-1-1s0.448-1,1-1h10.879c0.552,0,1,0.447,1,1
						S240.754,261.366,240.202,261.366z"/>
				</g>
			</g>
			<g>
				<g>
					<path style="fill:#407BFF;" d="M271.652,209.147h-22.317c-0.552,0-1-0.448-1-1c0-0.552,0.448-1,1-1h22.317c0.552,0,1,0.448,1,1
						C272.652,208.699,272.204,209.147,271.652,209.147z"/>
				</g>
				<g>
					<path style="fill:#263238;" d="M335.74,209.147h-58.154c-0.552,0-1-0.448-1-1c0-0.552,0.448-1,1-1h58.154c0.552,0,1,0.448,1,1
						C336.74,208.699,336.293,209.147,335.74,209.147z"/>
				</g>
				<g style="opacity:0.2;">
					<path style="fill:#263238;" d="M362.278,209.147h-16.846c-0.552,0-1-0.448-1-1c0-0.552,0.448-1,1-1h16.846c0.552,0,1,0.448,1,1
						C363.278,208.699,362.831,209.147,362.278,209.147z"/>
				</g>
				<g style="opacity:0.2;">
					<path style="fill:#263238;" d="M310.619,215.674h-58.282c-0.552,0-1-0.448-1-1c0-0.552,0.448-1,1-1h58.282c0.552,0,1,0.448,1,1
						C311.619,215.227,311.172,215.674,310.619,215.674z"/>
				</g>
				<g>
					<path style="fill:#407BFF;" d="M370.283,215.674H315.96c-0.552,0-1-0.448-1-1c0-0.552,0.448-1,1-1h54.323c0.552,0,1,0.448,1,1
						C371.283,215.227,370.836,215.674,370.283,215.674z"/>
				</g>
				<g>
					<path style="fill:#263238;" d="M286.883,222.202h-34.546c-0.552,0-1-0.448-1-1c0-0.552,0.448-1,1-1h34.546c0.552,0,1,0.448,1,1
						C287.883,221.754,287.435,222.202,286.883,222.202z"/>
				</g>
				<g>
					<path style="fill:#407BFF;" d="M328.026,222.202h-34.022c-0.552,0-1-0.448-1-1c0-0.552,0.448-1,1-1h34.022c0.552,0,1,0.448,1,1
						C329.026,221.754,328.578,222.202,328.026,222.202z"/>
				</g>
				<g>
					<path style="fill:#263238;" d="M370.283,222.202h-36.719c-0.552,0-1-0.448-1-1c0-0.552,0.448-1,1-1h36.719c0.552,0,1,0.448,1,1
						C371.283,221.754,370.836,222.202,370.283,222.202z"/>
				</g>
				<g>
					<path style="fill:#263238;" d="M290.082,228.73h-20.735c-0.552,0-1-0.448-1-1c0-0.552,0.448-1,1-1h20.735c0.552,0,1,0.448,1,1
						C291.082,228.282,290.635,228.73,290.082,228.73z"/>
				</g>
				<g>
					<path style="fill:#263238;" d="M319.439,228.73h-22.631c-0.552,0-1-0.448-1-1c0-0.552,0.448-1,1-1h22.631c0.552,0,1,0.448,1,1
						C320.439,228.282,319.991,228.73,319.439,228.73z"/>
				</g>
				<g style="opacity:0.2;">
					<path style="fill:#263238;" d="M361.278,228.73h-36.696c-0.552,0-1-0.448-1-1c0-0.552,0.448-1,1-1h36.696c0.552,0,1,0.448,1,1
						C362.278,228.282,361.83,228.73,361.278,228.73z"/>
				</g>
				<g style="opacity:0.2;">
					<path style="fill:#263238;" d="M280.227,235.257h-27.89c-0.552,0-1-0.447-1-1c0-0.553,0.448-1,1-1h27.89c0.552,0,1,0.447,1,1
						C281.227,234.81,280.779,235.257,280.227,235.257z"/>
				</g>
				<g>
					<path style="fill:#407BFF;" d="M283.718,241.784h-31.381c-0.552,0-1-0.447-1-1c0-0.553,0.448-1,1-1h31.381c0.552,0,1,0.447,1,1
						C284.718,241.337,284.27,241.784,283.718,241.784z"/>
				</g>
				<g>
					<path style="fill:#263238;" d="M336.136,241.784h-47.275c-0.552,0-1-0.447-1-1c0-0.553,0.448-1,1-1h47.275c0.552,0,1,0.447,1,1
						C337.136,241.337,336.688,241.784,336.136,241.784z"/>
				</g>
				<g>
					<path style="fill:#263238;" d="M370.283,241.784h-28.411c-0.552,0-1-0.447-1-1c0-0.553,0.448-1,1-1h28.411c0.552,0,1,0.447,1,1
						C371.283,241.337,370.836,241.784,370.283,241.784z"/>
				</g>
				<g style="opacity:0.2;">
					<path style="fill:#263238;" d="M280.309,248.311h-17.965c-0.552,0-1-0.447-1-1c0-0.553,0.448-1,1-1h17.965c0.552,0,1,0.447,1,1
						C281.309,247.864,280.861,248.311,280.309,248.311z"/>
				</g>
				<g style="opacity:0.2;">
					<path style="fill:#263238;" d="M320.905,248.311H286.44c-0.552,0-1-0.447-1-1c0-0.553,0.448-1,1-1h34.465c0.552,0,1,0.447,1,1
						C321.905,247.864,321.457,248.311,320.905,248.311z"/>
				</g>
				<g>
					<path style="fill:#263238;" d="M361.278,248.311H327.63c-0.552,0-1-0.447-1-1c0-0.553,0.448-1,1-1h33.647c0.552,0,1,0.447,1,1
						C362.278,247.864,361.83,248.311,361.278,248.311z"/>
				</g>
				<g>
					<path style="fill:#263238;" d="M293.526,254.839H272.35c-0.552,0-1-0.447-1-1c0-0.553,0.448-1,1-1h21.177c0.552,0,1,0.447,1,1
						C294.526,254.392,294.079,254.839,293.526,254.839z"/>
				</g>
				<g style="opacity:0.2;">
					<path style="fill:#263238;" d="M318.054,254.839h-20.176c-0.552,0-1-0.447-1-1c0-0.553,0.448-1,1-1h20.176c0.552,0,1,0.447,1,1
						C319.054,254.392,318.607,254.839,318.054,254.839z"/>
				</g>
				<g>
					<path style="fill:#407BFF;" d="M361.278,254.839h-36.894c-0.552,0-1-0.447-1-1c0-0.553,0.448-1,1-1h36.894c0.552,0,1,0.447,1,1
						C362.278,254.392,361.83,254.839,361.278,254.839z"/>
				</g>
				<g style="opacity:0.2;">
					<path style="fill:#263238;" d="M298.238,261.366H272.35c-0.552,0-1-0.447-1-1s0.448-1,1-1h25.889c0.552,0,1,0.447,1,1
						S298.791,261.366,298.238,261.366z"/>
				</g>
			</g>
			<g>
				<path style="opacity:0.4;fill:#FFFFFF;" d="M375.037,184.546c0,0.947,0.767,1.714,1.714,1.714c0.947,0,1.714-0.768,1.714-1.714
					c0-0.947-0.767-1.714-1.714-1.714C375.804,182.832,375.037,183.6,375.037,184.546z"/>
				<circle style="opacity:0.4;fill:#FFFFFF;" cx="370.747" cy="184.546" r="1.714"/>
				<circle style="opacity:0.4;fill:#FFFFFF;" cx="364.743" cy="184.546" r="1.714"/>
			</g>
		</g>
	</g>
</g>
<g id="Speech_bubble">
	<g>
		<g>
			<path style="fill:#407BFF;" d="M113.263,186.415H84.535c-4.886,0-8.846,3.96-8.846,8.846v25.002c0,4.885,3.961,8.846,8.846,8.846
				h20.368l6.004,7.894v-7.894h2.357c4.885,0,8.846-3.96,8.846-8.846v-25.002C122.109,190.376,118.149,186.415,113.263,186.415z"/>
			<path style="opacity:0.7;fill:#FFFFFF;" d="M113.263,186.415H84.535c-4.886,0-8.846,3.96-8.846,8.846v25.002
				c0,4.885,3.961,8.846,8.846,8.846h20.368l6.004,7.894v-7.894h2.357c4.885,0,8.846-3.96,8.846-8.846v-25.002
				C122.109,190.376,118.149,186.415,113.263,186.415z"/>
		</g>
		<g>
			<g style="enable-background:new    ;">
				
					<ellipse transform="matrix(0.7071 -0.7071 0.7071 0.7071 -117.8671 130.7529)" style="fill:#407BFF;" cx="98.899" cy="207.655" rx="14.258" ry="14.258"/>
			</g>
			<g>
				<path style="fill:#FFFFFF;" d="M97.403,214.023c-0.385,0-0.75-0.169-0.999-0.462l-5.594-6.591
					c-0.468-0.552-0.4-1.378,0.151-1.847c0.551-0.467,1.378-0.401,1.847,0.151l4.595,5.414l7.588-8.94
					c0.469-0.553,1.296-0.619,1.847-0.151c0.552,0.468,0.62,1.295,0.151,1.847l-8.587,10.118
					C98.153,213.854,97.787,214.023,97.403,214.023z"/>
			</g>
		</g>
	</g>
</g>
<g id="Character">
	<g>
		<g>
			<g>
				<path style="fill:#EBB376;" d="M204.724,363.481l21.465-1.055l-2.087,18.672c0,0-14.9,2.846-21.547-7.756L204.724,363.481z"/>
				<polygon style="fill:#EBB376;" points="240.032,368.935 235.144,382.48 224.102,381.098 226.189,362.426 				"/>
			</g>
			<path style="fill:#407BFF;" d="M184.11,393.784c12.825-6.458,22.075-16.396,22.075-16.396l-1.461-13.907
				c-20.292,2.958-31.99,7.291-31.99,7.291s7.513-26.956,0.638-36.776l-18.888,3.424c0,0-20.069,41.718-6.572,56.364H184.11z"/>
			<path style="opacity:0.7;fill:#FFFFFF;enable-background:new    ;" d="M184.083,393.784
				c12.831-6.451,22.095-16.388,22.095-16.388l-1.463-13.921c-19.636,2.88-31.249,7.018-31.957,7.269
				c0.251-0.983,7.361-27.111,0.617-36.758l-18.882,3.429c0,0-5.967,12.39-9.212,26.06c-2.699,11.389-3.495,23.651,2.65,30.309
				H184.083z"/>
			<path style="opacity:0.2;" d="M168.554,393.784c6.667-42.268,0.752-52.986,0.752-52.986l-24.025,22.676
				c-2.699,11.389-3.495,23.651,2.65,30.309H168.554z"/>
			<path style="fill:#407BFF;" d="M164.379,393.784c4.496-21.365,9.547-54.808,8.992-59.788
				c-0.806-7.235-40.186-38.258-74.358-15.675c-6.98,4.613-10.572,54.337-11.793,75.463H164.379z"/>
			<path style="opacity:0.7;fill:#FFFFFF;enable-background:new    ;" d="M164.379,393.784c4.498-21.366,9.548-54.809,8.997-59.798
				c-0.8-7.224-40.187-38.244-74.361-15.659c-2.538,1.692-4.618,9.327-6.332,19.408c-2.286,13.716-3.863,31.935-4.8,45.673
				c-0.264,3.89-0.479,7.408-0.65,10.376H164.379z"/>
			<path style="fill:#263238;" d="M147.514,226.546c-11.851-4.789-39.792,12.403-42.24,43.054
				c-2.449,30.651,13.091,22.155,13.091,22.155s2.764,11.696,14.084,8.084c0,0,9.35,10.592,18.055,6.282
				c0,0,10.825,11.28,16.637,5.325c0,0,6.325,7.218,12.095,1.75c5.77-5.467,22.252-61.202-3.616-74.088
				S147.514,226.546,147.514,226.546z"/>
			<g>
				<path style="fill:#263238;" d="M147.53,351.963l-1.139-0.102c1.314-14.757-1.933-21.291-1.965-21.355l1.015-0.524
					C145.582,330.254,148.877,336.823,147.53,351.963z"/>
				<path style="fill:#263238;" d="M152.887,352.135c-7.842-18.497,0.979-22.801,1.358-22.975l0.477,1.039l-0.238-0.52l0.241,0.519
					c-0.082,0.038-8.161,4.094-0.785,21.491L152.887,352.135z"/>
				<path style="fill:#407BFF;" d="M145.216,333.543c0,0-15.149-11.982-38.667-18.76l-7.536,3.537c0,0-12.661-15.675,8.44-20.799
					c21.101-5.124,49.801,8.97,57.013,21.101c7.212,12.131-12.519,15.976-12.519,15.976S150.107,332.164,145.216,333.543z"/>
				<path style="opacity:0.6;fill:#FFFFFF;enable-background:new    ;" d="M145.216,333.543c0,0-15.149-11.982-38.667-18.76
					l-7.536,3.537c0,0-12.661-15.675,8.44-20.799c21.101-5.124,49.801,8.97,57.013,21.101c7.212,12.131-12.519,15.976-12.519,15.976
					S150.107,332.164,145.216,333.543z"/>
				<path style="fill:#FFFFFF;" d="M154.359,351.913c0,0.551-0.447,0.999-0.999,0.999c-0.551,0-0.999-0.447-0.999-0.999
					c0-0.552,0.447-0.999,0.999-0.999C153.912,350.914,154.359,351.361,154.359,351.913z"/>
				<path style="fill:#FFFFFF;" d="M147.866,351.913c0,0.551-0.447,0.999-0.999,0.999c-0.551,0-0.999-0.447-0.999-0.999
					c0-0.552,0.447-0.999,0.999-0.999C147.419,350.914,147.866,351.361,147.866,351.913z"/>
			</g>
			<g>
				<path style="fill:#EBB376;" d="M137.169,276.966c-0.922,10.738-4.21,29.83-12.941,34.034c0,0,9.765,1.988,24.983,21.315
					c8.669-6.086,5.391-10.23,5.391-10.23c-10.143-6.65-7.513-14.853-3.41-21.961L137.169,276.966z"/>
				<path style="opacity:0.2;" d="M142.884,286.413l8.302,13.699c-0.978,1.68-1.861,3.422-2.502,5.196
					c-3.989-2.137-8.381-8.919-7.557-13.558C141.538,289.437,142.236,287.324,142.884,286.413z"/>
			</g>
			<g>
				<path style="fill:#EBB376;" d="M135.981,254.305c-2.793,16.863-4.326,23.923,1.917,34.778
					c9.391,16.328,30.198,17.095,37.848,1.656c6.885-13.897,10.297-39.139-4.064-50.283
					C157.534,229.477,138.774,237.442,135.981,254.305z"/>
				<g>
					<path style="fill:#263238;" d="M170.533,231.066c10.925,6.067,21.334,25.008,5.784,20.273
						c-2.344,4.548-10.72,0.385-15.584-5.079c-0.819,3.785-9.788,7.588-16.384,1.719c3.188,4.602-2.236,16.214-7.891,14.211
						c-5.656-2.003-18.332-4.631-7.093-22.531C140.604,221.759,158.859,224.584,170.533,231.066z"/>
				</g>
				<path style="fill:#D58745;" d="M166.552,270.219c0,0,1.006,6.696,2.901,10.326c-2.137,1.229-4.986-0.418-4.986-0.418
					L166.552,270.219z"/>
				<path style="fill:#263238;" d="M155.651,283.13c0.669,0.326,1.403,0.613,2.21,0.842c0.217,0.062,0.433-0.073,0.481-0.302
					c0.048-0.227-0.085-0.459-0.308-0.524c-5.891-1.666-7.741-6.759-7.759-6.81c-0.078-0.226-0.312-0.349-0.52-0.276
					c-0.209,0.072-0.315,0.314-0.236,0.538C149.589,276.796,151.076,280.898,155.651,283.13z"/>
				<path style="fill:#EBB376;" d="M127.492,266.426c1.063,3.886,3.67,6.832,6.378,8.316c4.074,2.232,7.048-1.59,6.701-6.347
					c-0.313-4.281-2.809-10.601-7.275-10.852C128.896,257.296,126.277,261.983,127.492,266.426z"/>
				<path style="fill:#263238;" d="M154.505,254.767c0.204,0.078,0.432,0.072,0.634-0.035c3.151-1.687,5.792-0.115,5.823-0.097
					c0.391,0.234,0.882,0.106,1.092-0.301c0.208-0.406,0.058-0.93-0.337-1.172c-0.138-0.083-3.452-2.059-7.362,0.036
					c-0.39,0.209-0.53,0.722-0.314,1.145C154.146,254.547,154.314,254.694,154.505,254.767z"/>
				<path style="fill:#263238;" d="M181.375,261.349c0.182,0.098,0.396,0.127,0.6,0.064c0.422-0.132,0.647-0.606,0.503-1.059
					c-1.447-4.542-5.051-5.736-5.206-5.785c-0.433-0.137-0.872,0.117-0.981,0.569c-0.109,0.451,0.152,0.927,0.583,1.067
					c0.142,0.045,2.925,1.013,4.076,4.625C181.024,261.063,181.182,261.245,181.375,261.349z"/>
				<g>
					<path style="fill:#263238;" d="M159.875,265.803c-0.49,1.332-1.607,2.147-2.495,1.82c-0.888-0.327-1.211-1.671-0.721-3.003
						c0.49-1.332,1.607-2.147,2.495-1.821C160.042,263.126,160.365,264.471,159.875,265.803z"/>
					<path style="fill:#263238;" d="M158.76,262.728l3.315-0.071C162.075,262.657,159.736,264.564,158.76,262.728z"/>
				</g>
				<g>
					<path style="fill:#263238;" d="M176.671,271.125c-0.49,1.332-1.607,2.147-2.495,1.82c-0.888-0.327-1.211-1.671-0.721-3.003
						c0.49-1.332,1.607-2.148,2.495-1.821C176.838,268.449,177.161,269.793,176.671,271.125z"/>
					<path style="fill:#263238;" d="M175.556,268.05l3.315-0.071C178.871,267.979,176.532,269.887,175.556,268.05z"/>
				</g>
				<path style="fill:#263238;" d="M158.3,275.253c-1.024,0-2.031-0.211-2.977-0.634c-1.992-0.89-3.465-2.609-4.148-4.842
					c-0.674-2.205-0.496-4.649,0.504-6.885c0.999-2.234,2.701-3.999,4.794-4.967c2.119-0.98,4.383-1.029,6.375-0.139
					c1.992,0.89,3.465,2.609,4.147,4.843c0.674,2.204,0.495,4.649-0.503,6.884h-0.001c-0.999,2.234-2.701,3.999-4.793,4.967
					C160.585,274.995,159.432,275.253,158.3,275.253z M159.871,258.297c-0.969,0-1.96,0.223-2.919,0.666
					c-1.841,0.853-3.344,2.413-4.229,4.397c-0.887,1.982-1.048,4.143-0.455,6.083c0.585,1.912,1.835,3.38,3.521,4.134
					c1.685,0.755,3.614,0.707,5.428-0.133c1.841-0.853,3.344-2.413,4.23-4.396l0.521,0.233l-0.521-0.233
					c0.886-1.982,1.047-4.143,0.454-6.083c-0.585-1.912-1.835-3.38-3.521-4.134C161.586,258.475,160.736,258.297,159.871,258.297z"
					/>
				<path style="fill:#263238;" d="M174.943,280.348c-1.005,0-2.009-0.201-2.962-0.628c-1.992-0.89-3.465-2.61-4.148-4.843
					c-0.674-2.205-0.496-4.65,0.504-6.885c0.999-2.234,2.701-3.998,4.793-4.966c2.12-0.98,4.384-1.029,6.375-0.139
					c1.992,0.89,3.465,2.609,4.147,4.842c0.674,2.205,0.496,4.649-0.503,6.885h-0.001
					C181.56,278.171,178.244,280.348,174.943,280.348z M176.529,263.397c-0.97,0-1.959,0.223-2.918,0.666
					c-1.841,0.852-3.344,2.413-4.23,4.396c-0.886,1.982-1.047,4.143-0.454,6.084c0.585,1.912,1.835,3.38,3.521,4.134
					c3.506,1.569,7.84-0.465,9.658-4.529l0,0c0.886-1.982,1.047-4.143,0.454-6.083c-0.585-1.912-1.836-3.38-3.521-4.134
					C178.244,263.575,177.395,263.397,176.529,263.397z"/>
				<path style="fill:#263238;" d="M167.805,269.923c-0.086-0.216-0.203-0.284-0.295-0.32c-0.405-0.157-1.083,0.091-1.289,0.191
					l-0.503-1.026c0.126-0.063,1.258-0.594,2.201-0.232c0.437,0.169,0.765,0.503,0.949,0.966L167.805,269.923z"/>
				
					<rect x="144.645" y="254.556" transform="matrix(0.2962 -0.9551 0.9551 0.2962 -147.6641 322.8018)" style="fill:#263238;" width="1.143" height="14.096"/>
			</g>
			<path style="opacity:0.2;" d="M137.281,364.457c0,0-26.311,20.162-49.399,18.951c0.937-13.738,2.514-31.957,4.8-45.673
				c2.355-2.606,3.909-4.183,3.909-4.183l14.035,10.47l-3.406,4.275c0,0,21.191-1.074,28.574,0L137.281,364.457z"/>
			<g>
				<g>
					<path style="fill:#EBB376;" d="M139.996,348.3l21.059-4.288l0.759,18.773c0,0-14.299,5.066-22.472-4.41L139.996,348.3z"/>
					<polygon style="fill:#EBB376;" points="175.723,348.355 172.939,362.483 161.814,362.786 161.055,344.013 					"/>
				</g>
				<polygon style="fill:#407BFF;" points="139.996,348.3 141.026,362.786 135.79,365.136 133.549,348.3 				"/>
				<polygon style="opacity:0.6;fill:#FFFFFF;enable-background:new    ;" points="139.996,348.3 141.026,362.786 135.79,365.136 
					133.549,348.3 				"/>
				<path style="fill:#407BFF;" d="M106.55,314.784c0,0-8.093,0.899-14.446,8.36c-6.353,7.461-28.735,29.617-23.761,47.703
					c4.974,18.086,52.828,4.63,67.448-5.711l-2.24-16.836l-33.153,2.435l10.223-6.722C117.628,324.5,106.55,314.784,106.55,314.784z
					"/>
				<path style="opacity:0.7;fill:#FFFFFF;enable-background:new    ;" d="M106.55,314.784c0,0-8.093,0.899-14.446,8.36
					c-6.353,7.461-28.735,29.617-23.761,47.703c4.974,18.086,52.828,4.63,67.448-5.711l-2.24-16.836l-33.153,2.435l10.223-6.722
					C117.628,324.5,106.55,314.784,106.55,314.784z"/>
			</g>
			<polygon style="fill:#407BFF;" points="202.555,363.802 208.588,362.786 208.588,378.953 203.813,379.734 			"/>
			<polygon style="opacity:0.6;fill:#FFFFFF;enable-background:new    ;" points="202.555,363.802 208.588,362.786 208.588,378.953 
				203.813,379.734 			"/>
		</g>
		<g>
			<path style="fill:#407BFF;" d="M190.374,378.794c-0.011-0.885,0.017-1.796,0.13-2.65l0.177-1.333l-1.291,0.762l-0.769,0.454
				c-0.265,0.095-0.521,0.239-0.779,0.297c-0.516,0.16-0.988,0.16-1.402,0.03c-0.411-0.136-0.784-0.426-1.123-0.815
				c-0.324-0.379-0.632-0.919-0.79-1.361l-1.128-3.154l-0.797,3.334c-0.079,0.332-0.132,0.667-0.196,1.002
				c-0.078,0.323-0.194,0.617-0.283,0.931c-0.262,0.546-0.555,1.029-0.933,1.267c-0.371,0.247-0.902,0.264-1.508,0.134
				c-0.596-0.129-1.245-0.448-1.786-0.785l-1.737-1.083l0.706,1.766c0.293,0.732,0.534,1.535,0.717,2.323
				c0.081,0.398,0.146,0.798,0.162,1.201c0.004,0.398-0.013,0.82-0.262,1.177c0.356-0.251,0.573-0.695,0.679-1.122
				c0.115-0.433,0.171-0.88,0.18-1.321c0.01-0.354-0.012-0.7-0.036-1.047c0.282,0.161,0.576,0.308,0.898,0.436
				c0.801,0.32,1.885,0.417,2.846-0.062c0.965-0.48,1.488-1.337,1.868-2.123c0.015-0.043,0.031-0.087,0.047-0.131
				c0.51,0.547,1.199,1.018,2.009,1.198c0.85,0.189,1.74,0.077,2.441-0.249c0.31-0.125,0.574-0.3,0.847-0.462
				c0.005,0.038,0.009,0.075,0.014,0.112c0.062,0.471,0.162,0.939,0.29,1.4c0.122,0.461,0.279,0.918,0.499,1.349
				c0.21,0.429,0.493,0.844,0.869,1.125c-0.256-0.393-0.352-0.838-0.436-1.271C190.423,379.682,190.385,379.24,190.374,378.794z"/>
			<path style="fill:#407BFF;" d="M226.14,356.228c-0.656,0.093-1.551-0.009-2.307-0.245c-0.76-0.245-1.576-0.619-2.178-1.049
				c-0.626-0.452-1.168-1.045-1.607-1.726c-0.444-0.656-0.838-1.449-1.07-2.149l-0.655-1.979l-1.122,1.767
				c-0.452,0.712-1.088,1.437-1.719,1.992c-0.645,0.561-1.369,0.931-2.011,0.915l-0.242-0.014c-0.093-0.013-0.202-0.041-0.302-0.06
				c-0.206-0.034-0.411-0.1-0.617-0.157c-0.41-0.128-0.813-0.31-1.206-0.518c-0.775-0.415-1.543-1.007-2.156-1.596l-1.74-1.67
				l0.357,2.288c0.188,1.201,0.301,2.487,0.238,3.697c-0.044,0.6-0.129,1.207-0.351,1.701c-0.219,0.505-0.629,0.748-1.218,0.702
				l-0.456-0.035l0.141,0.37c0.287,0.751,0.591,1.498,0.903,2.242c-0.098-0.667-0.208-1.331-0.323-1.993l0.184,0.028
				c0.192,0.002,0.396-0.063,0.597-0.104c0.184-0.081,0.356-0.202,0.529-0.316c0.131-0.141,0.266-0.288,0.392-0.441
				c0.435-0.635,0.604-1.327,0.747-2c0.135-0.678,0.201-1.352,0.224-2.025c0-0.011,0-0.021,0-0.032
				c0.327,0.26,0.666,0.506,1.032,0.734c0.466,0.282,0.956,0.538,1.481,0.737c0.553,0.189,1.016,0.363,1.732,0.391
				c1.364,0.038,2.495-0.624,3.343-1.326c0.408-0.339,0.761-0.7,1.087-1.083c0.194,0.349,0.404,0.688,0.645,1.021
				c0.587,0.803,1.318,1.532,2.192,2.089c0.903,0.571,1.796,0.856,2.775,1.081c0.632,0.115,1.253,0.182,1.905,0.14
				c-0.077,0.205-0.166,0.406-0.235,0.614c-0.174,0.578-0.323,1.164-0.413,1.764c-0.105,0.594-0.125,1.208-0.077,1.809
				c0.049,0.597,0.197,1.209,0.527,1.699c-0.208-0.55-0.177-1.138-0.125-1.695c0.066-0.562,0.205-1.109,0.385-1.643
				c0.357-1.068,0.878-2.077,1.451-3.05l0.629-1.069L226.14,356.228z"/>
		</g>
	</g>
</g>
<g id="Table">
	<g>
		<g>
			<path style="fill:#407BFF;" d="M75.498,415.323h350.703c2.453,0,4.441-1.988,4.441-4.441v-10.801H71.057v10.801
				C71.057,413.335,73.046,415.323,75.498,415.323z"/>
		</g>
		
			<rect x="71.057" y="400.082" transform="matrix(-1 -1.224647e-16 1.224647e-16 -1 501.7 807.7841)" style="opacity:0.2;enable-background:new    ;" width="359.585" height="7.621"/>
		<g>
			<path style="fill:#407BFF;" d="M63.517,402.069h374.666c2.371,0,4.294-1.922,4.294-4.294l0,0c0-2.371-1.923-4.294-4.294-4.294
				H63.517c-2.371,0-4.293,1.922-4.293,4.294l0,0C59.223,400.146,61.146,402.069,63.517,402.069z"/>
		</g>
	</g>
</g>
<g id="Device_2">
	<g>
		<path style="fill:#263238;" d="M412.786,341.039l-10.939,49.616c-0.355,1.634-1.946,2.82-3.552,2.82h-59.752
			c-1.591,0-2.614-1.483-2.245-3.117l10.925-49.238c0.369-1.62,1.946-2.427,3.552-2.427h59.753
			C412.133,338.694,413.142,339.42,412.786,341.039z"/>
		<path style="opacity:0.4;fill:#FFFFFF;enable-background:new    ;" d="M412.786,341.039l-10.939,49.616
			c-0.355,1.634-1.946,2.82-3.552,2.82h-57.721c-1.606,0-2.614-1.483-2.259-3.117l10.939-49.238c0.355-1.62,1.946-2.427,3.552-2.427
			h57.721C412.133,338.694,413.142,339.42,412.786,341.039z"/>
		<path style="fill:#407BFF;" d="M403.259,391.914l10.884-49.367c0.355-1.619-0.654-2.346-2.258-2.346h-57.722
			c-1.606,0-3.196,0.808-3.552,2.427l-11.047,49.927L403.259,391.914z"/>
		<path style="opacity:0.4;fill:#FFFFFF;enable-background:new    ;" d="M414.136,342.536l-5.738,26.083l-5.143,23.294
			l-34.106,0.343l-29.58,0.297l11.041-49.925c0.366-1.623,1.943-2.423,3.543-2.423h57.743
			C413.496,340.205,414.501,340.936,414.136,342.536z"/>
		<path style="opacity:0.2;enable-background:new    ;" d="M408.398,368.619l-5.143,23.294l-34.106,0.343h-28.323l4.634-21.297
			c0.297-1.365,1.506-2.339,2.903-2.339H408.398z"/>
		<path style="fill:#407BFF;" d="M409.383,371.864c-0.355-1.62-1.946-2.427-3.552-2.427H348.11c-1.605,0-2.613,0.727-2.258,2.346
			l4.376,19.852h-9.744c-0.506,0-0.92,0.414-0.92,0.92c0,0.506,0.414,0.92,0.92,0.92h10.15h59.252h1.693
			c1.337,0,2.329-1.238,2.04-2.543L409.383,371.864z"/>
		<path style="opacity:0.4;fill:#FFFFFF;enable-background:new    ;" d="M409.383,371.864c-0.355-1.62-1.946-2.427-3.552-2.427
			H348.11c-1.605,0-2.613,0.727-2.258,2.346l4.376,19.852h-9.744c-0.506,0-0.92,0.414-0.92,0.92c0,0.506,0.414,0.92,0.92,0.92h10.15
			h59.252h1.693c1.337,0,2.329-1.238,2.04-2.543L409.383,371.864z"/>
		<polygon points="338.752,383.909 335.398,383.909 334.984,385.718 338.245,385.718 		"/>
		<path d="M317.579,393.712h-9.649c-0.315,0-0.571-0.256-0.571-0.571c0-0.315,0.256-0.571,0.571-0.571h9.649
			c3.225,0,6.234-1.44,8.256-3.952c2.24-2.782,5.573-4.378,9.146-4.378h1.699c0.315,0,0.571,0.256,0.571,0.571
			c0,0.316-0.256,0.571-0.571,0.571h-1.699c-3.225,0-6.234,1.44-8.255,3.952C324.485,392.116,321.151,393.712,317.579,393.712z"/>
	</g>
</g>
<g id="Device_1">
	<g>
		<path style="fill:#263238;" d="M156.779,386.648v4.175c0,1.881,2.266,2.652,4.147,2.652h146.582c1.858,0,4.074-0.771,4.074-2.652
			v-4.175H156.779z"/>
		<path style="opacity:0.4;fill:#FFFFFF;enable-background:new    ;" d="M156.779,386.648v4.175c0,1.881,2.266,2.652,4.147,2.652
			h146.582c1.858,0,4.074-0.771,4.074-2.652v-4.175H156.779z"/>
		<path style="opacity:0.2;enable-background:new    ;" d="M206.716,386.648v4.175c0,1.881,2.233,2.652,4.114,2.652h96.679
			c1.858,0,4.074-0.771,4.074-2.652v-4.175H206.716z"/>
		<path style="fill:#263238;" d="M336.109,307.331l-17.45,79.149c-0.567,2.606-3.105,4.498-5.666,4.498h-95.319
			c-2.539,0-4.17-2.366-3.581-4.972l17.428-78.546c0.589-2.583,3.105-3.872,5.665-3.872h95.32
			C335.067,303.589,336.676,304.748,336.109,307.331z"/>
		<path style="opacity:0.4;fill:#FFFFFF;enable-background:new    ;" d="M336.109,307.331l-17.45,79.149
			c-0.567,2.606-3.105,4.498-5.666,4.498h-92.078c-2.561,0-4.17-2.366-3.604-4.972l17.451-78.546
			c0.567-2.583,3.104-3.872,5.666-3.872h92.079C335.067,303.589,336.676,304.748,336.109,307.331z"/>
		<path style="opacity:0.2;enable-background:new    ;" d="M289.112,347.561v0.023c0,6.776-7.266,12.284-12.592,12.284
			c-5.326,0-8.483-5.507-6.964-12.284c1.519-6.64,6.818-12.057,12.03-12.261c-1.519,6.776,1.734,12.261,7.038,12.261
			C288.737,347.583,289.112,347.583,289.112,347.561z"/>
	</g>
</g>
</svg>
