<?xml version="1.0" encoding="utf-8"?>
<!-- Generator: Adobe Illustrator 27.5.0, SVG Export Plug-In . SVG Version: 6.00 Build 0)  -->
<svg version="1.1" xmlns="http://www.w3.org/2000/svg" xmlns:xlink="http://www.w3.org/1999/xlink" x="0px" y="0px"
	 viewBox="0 0 500 500" style="enable-background:new 0 0 500 500;" xml:space="preserve">
<g id="BACKGROUND">
	<rect style="fill:#FFFFFF;" width="500" height="500"/>
</g>
<g id="OBJECTS">
	<g>
		<linearGradient id="SVGID_1_" gradientUnits="userSpaceOnUse" x1="40.3045" y1="205.7535" x2="396.8717" y2="414.3359">
			<stop  offset="0" style="stop-color:#FF5A72;stop-opacity:0.7"/>
			<stop  offset="0.1515" style="stop-color:#FF6971;stop-opacity:0.6546"/>
			<stop  offset="0.7206" style="stop-color:#FF9C6E;stop-opacity:0.4838"/>
			<stop  offset="1" style="stop-color:#FFB06D;stop-opacity:0.4"/>
		</linearGradient>
		<ellipse style="fill:url(#SVGID_1_);" cx="250" cy="328.42" rx="188.102" ry="108.601"/>
		<g>
			
				<linearGradient id="SVGID_00000073714666008715351080000013206570573299245474_" gradientUnits="userSpaceOnUse" x1="348.3783" y1="182.1097" x2="395.6666" y2="182.1097">
				<stop  offset="0" style="stop-color:#FF5A72;stop-opacity:0.7"/>
				<stop  offset="0.1515" style="stop-color:#FF6971;stop-opacity:0.6546"/>
				<stop  offset="0.7206" style="stop-color:#FF9C6E;stop-opacity:0.4838"/>
				<stop  offset="1" style="stop-color:#FFB06D;stop-opacity:0.4"/>
			</linearGradient>
			<path style="fill:url(#SVGID_00000073714666008715351080000013206570573299245474_);" d="M393.569,221.852l-43.094-24.88
				c-1.158-0.669-2.097-2.463-2.097-4.007v-49.011c0-1.544,0.939-2.254,2.097-1.585l43.094,24.88
				c1.158,0.669,2.097,2.463,2.097,4.007v49.011C395.667,221.81,394.728,222.52,393.569,221.852z"/>
			<g>
				<path style="fill:#FFFFFF;" d="M368.741,163.815l-11.858-6.846c-0.803-0.464-1.455-1.708-1.455-2.779l0,0
					c0-1.071,0.651-1.564,1.455-1.1l11.858,6.846c0.803,0.464,1.455,1.708,1.455,2.78l0,0
					C370.196,163.787,369.544,164.279,368.741,163.815z"/>
				<path style="fill:#FFFFFF;" d="M387.676,182.083l-30.793-17.779c-0.803-0.464-1.455-1.708-1.455-2.779l0,0
					c0-1.071,0.651-1.564,1.455-1.1l30.793,17.778c0.803,0.464,1.455,1.708,1.455,2.78l0,0
					C389.131,182.055,388.48,182.547,387.676,182.083z"/>
				<path style="fill:#FFFFFF;" d="M368.741,178.487l-11.858-6.846c-0.803-0.464-1.455-1.708-1.455-2.779l0,0
					c0-1.071,0.651-1.564,1.455-1.1l11.858,6.846c0.803,0.464,1.455,1.708,1.455,2.779l0,0
					C370.196,178.458,369.544,178.951,368.741,178.487z"/>
				<path style="fill:#FFFFFF;" d="M386.971,189.012l-11.858-6.846c-0.803-0.464-1.455-1.708-1.455-2.779l0,0
					c0-1.071,0.651-1.564,1.455-1.1l11.858,6.846c0.803,0.464,1.455,1.708,1.455,2.78l0,0
					C388.426,188.984,387.775,189.476,386.971,189.012z"/>
				<path style="fill:#FFFFFF;" d="M362.848,182.421l-5.965-3.444c-0.803-0.464-1.455-1.708-1.455-2.779l0,0
					c0-1.071,0.651-1.564,1.455-1.1l5.965,3.444c0.803,0.464,1.455,1.708,1.455,2.779l0,0
					C364.303,182.392,363.652,182.884,362.848,182.421z"/>
				<path style="fill:#FFFFFF;" d="M384.83,202.447l-27.947-16.135c-0.803-0.464-1.455-1.708-1.455-2.779l0,0
					c0-1.071,0.651-1.564,1.455-1.1l27.947,16.135c0.803,0.464,1.455,1.708,1.455,2.78l0,0
					C386.284,202.419,385.633,202.911,384.83,202.447z"/>
				<path style="fill:#FFFFFF;" d="M370.825,201.697l-13.942-8.049c-0.803-0.464-1.455-1.708-1.455-2.779l0,0
					c0-1.071,0.651-1.564,1.455-1.1l13.942,8.049c0.803,0.464,1.455,1.708,1.455,2.779l0,0
					C372.28,201.669,371.628,202.161,370.825,201.697z"/>
			</g>
		</g>
		<g>
			
				<linearGradient id="SVGID_00000029027805517232462690000017386693062568537764_" gradientUnits="userSpaceOnUse" x1="273.6938" y1="123.0903" x2="336.8456" y2="123.0903">
				<stop  offset="0" style="stop-color:#FF5A72;stop-opacity:0.7"/>
				<stop  offset="0.1515" style="stop-color:#FF6971;stop-opacity:0.6546"/>
				<stop  offset="0.7206" style="stop-color:#FF9C6E;stop-opacity:0.4838"/>
				<stop  offset="1" style="stop-color:#FFB06D;stop-opacity:0.4"/>
			</linearGradient>
			<path style="fill:url(#SVGID_00000029027805517232462690000017386693062568537764_);" d="M334.045,176.164l-57.55-33.227
				c-1.547-0.893-2.801-3.289-2.801-5.352V72.134c0-2.063,1.254-3.011,2.801-2.117l57.55,33.227
				c1.547,0.893,2.801,3.289,2.801,5.351v65.452C336.846,176.109,335.592,177.057,334.045,176.164z"/>
			<g>
				<path style="fill:#FFFFFF;" d="M294.057,91.058l-11.858-6.846c-0.803-0.464-1.455-1.708-1.455-2.78l0,0
					c0-1.071,0.651-1.564,1.455-1.1l11.858,6.846c0.803,0.464,1.455,1.708,1.455,2.78l0,0
					C295.511,91.029,294.86,91.522,294.057,91.058z"/>
				<path style="fill:#FFFFFF;" d="M312.992,109.326l-30.793-17.779c-0.803-0.464-1.455-1.708-1.455-2.779l0,0
					c0-1.071,0.651-1.564,1.455-1.1l30.793,17.779c0.803,0.464,1.455,1.708,1.455,2.779l0,0
					C314.447,109.297,313.795,109.79,312.992,109.326z"/>
				<path style="fill:#FFFFFF;" d="M294.057,105.729l-11.858-6.846c-0.803-0.464-1.455-1.708-1.455-2.779l0,0
					c0-1.071,0.651-1.564,1.455-1.1l11.858,6.846c0.803,0.464,1.455,1.708,1.455,2.78l0,0
					C295.511,105.701,294.86,106.193,294.057,105.729z"/>
				<path style="fill:#FFFFFF;" d="M312.287,116.255l-11.858-6.846c-0.803-0.464-1.455-1.708-1.455-2.78l0,0
					c0-1.071,0.651-1.564,1.455-1.1l11.858,6.846c0.803,0.464,1.455,1.708,1.455,2.779l0,0
					C313.742,116.226,313.09,116.719,312.287,116.255z"/>
				<path style="fill:#FFFFFF;" d="M327.724,125.168l-9.126-5.269c-0.803-0.464-1.455-1.708-1.455-2.779l0,0
					c0-1.071,0.651-1.564,1.455-1.1l9.126,5.269c0.803,0.464,1.455,1.708,1.455,2.78l0,0
					C329.179,125.139,328.528,125.632,327.724,125.168z"/>
				<path style="fill:#FFFFFF;" d="M309.833,100.166l-9.126-5.269c-0.803-0.464-1.455-1.708-1.455-2.78l0,0
					c0-1.071,0.651-1.564,1.455-1.1l9.126,5.269c0.803,0.464,1.455,1.708,1.455,2.779l0,0
					C311.288,100.138,310.636,100.63,309.833,100.166z"/>
				<path style="fill:#FFFFFF;" d="M325.545,109.238l-9.126-5.269c-0.803-0.464-1.455-1.708-1.455-2.779l0,0
					c0-1.071,0.651-1.564,1.455-1.1l9.126,5.269c0.803,0.464,1.455,1.708,1.455,2.779l0,0
					C327,109.209,326.349,109.702,325.545,109.238z"/>
				<path style="fill:#FFFFFF;" d="M325.545,160.291l-9.126-5.269c-0.803-0.464-1.455-1.708-1.455-2.78l0,0
					c0-1.071,0.651-1.563,1.455-1.1l9.126,5.269c0.803,0.464,1.455,1.708,1.455,2.779l0,0
					C327,160.262,326.349,160.755,325.545,160.291z"/>
				<path style="fill:#FFFFFF;" d="M288.164,109.663l-5.965-3.444c-0.803-0.464-1.455-1.708-1.455-2.779l0,0
					c0-1.071,0.651-1.564,1.455-1.1l5.965,3.444c0.803,0.464,1.455,1.708,1.455,2.78l0,0
					C289.619,109.635,288.967,110.127,288.164,109.663z"/>
				<path style="fill:#FFFFFF;" d="M310.145,129.69l-27.947-16.135c-0.803-0.464-1.455-1.708-1.455-2.78l0,0
					c0-1.071,0.651-1.563,1.455-1.1l27.947,16.135c0.803,0.464,1.455,1.708,1.455,2.78l0,0
					C311.6,129.661,310.949,130.154,310.145,129.69z"/>
				<path style="fill:#FFFFFF;" d="M310.145,144.596l-27.947-16.135c-0.803-0.464-1.455-1.708-1.455-2.779l0,0
					c0-1.071,0.651-1.563,1.455-1.1l27.947,16.135c0.803,0.464,1.455,1.708,1.455,2.779v0
					C311.6,144.567,310.949,145.059,310.145,144.596z"/>
				<path style="fill:#FFFFFF;" d="M310.145,151.4l-27.947-16.135c-0.803-0.464-1.455-1.708-1.455-2.779l0,0
					c0-1.071,0.651-1.563,1.455-1.1l27.947,16.135c0.803,0.464,1.455,1.708,1.455,2.78l0,0
					C311.6,151.371,310.949,151.863,310.145,151.4z"/>
				<path style="fill:#FFFFFF;" d="M296.141,128.94l-13.942-8.049c-0.803-0.464-1.455-1.708-1.455-2.78l0,0
					c0-1.071,0.651-1.563,1.455-1.1l13.942,8.049c0.803,0.464,1.455,1.708,1.455,2.78l0,0
					C297.595,128.911,296.944,129.404,296.141,128.94z"/>
				<path style="fill:#FFFFFF;" d="M317.501,141.273l-13.942-8.049c-0.803-0.464-1.455-1.708-1.455-2.779v0
					c0-1.071,0.651-1.564,1.455-1.1l13.942,8.049c0.803,0.464,1.455,1.708,1.455,2.78l0,0
					C318.956,141.244,318.305,141.737,317.501,141.273z"/>
			</g>
		</g>
		<g>
			
				<linearGradient id="SVGID_00000010287673290768199610000006648877161901938598_" gradientUnits="userSpaceOnUse" x1="192.9743" y1="84.5223" x2="248.8522" y2="84.5223">
				<stop  offset="0" style="stop-color:#FF5A72;stop-opacity:0.7"/>
				<stop  offset="0.1515" style="stop-color:#FF6971;stop-opacity:0.6546"/>
				<stop  offset="0.7206" style="stop-color:#FF9C6E;stop-opacity:0.4838"/>
				<stop  offset="1" style="stop-color:#FFB06D;stop-opacity:0.4"/>
			</linearGradient>
			<path style="fill:url(#SVGID_00000010287673290768199610000006648877161901938598_);" d="M246.374,131.483l-50.922-29.399
				c-1.369-0.79-2.478-2.91-2.478-4.735V39.435c0-1.825,1.11-2.664,2.478-1.874l50.922,29.399c1.369,0.79,2.478,2.91,2.478,4.735
				v57.913C248.852,131.434,247.743,132.273,246.374,131.483z"/>
			<g>
				<path style="fill:#FFFFFF;" d="M213.337,58.789l-11.858-6.846c-0.803-0.464-1.455-1.708-1.455-2.779l0,0
					c0-1.071,0.651-1.564,1.455-1.1l11.858,6.846c0.803,0.464,1.455,1.708,1.455,2.779l0,0
					C214.792,58.761,214.14,59.253,213.337,58.789z"/>
				<path style="fill:#FFFFFF;" d="M217.132,68.316l-15.653-9.037c-0.803-0.464-1.455-1.708-1.455-2.779l0,0
					c0-1.071,0.651-1.564,1.455-1.1l15.653,9.037c0.803,0.464,1.455,1.708,1.455,2.78l0,0
					C218.587,68.287,217.935,68.78,217.132,68.316z"/>
				<path style="fill:#FFFFFF;" d="M241.218,82.222l-18.164-10.487c-0.803-0.464-1.455-1.708-1.455-2.78l0,0
					c0-1.071,0.651-1.564,1.455-1.1l18.164,10.487c0.803,0.464,1.455,1.708,1.455,2.78l0,0
					C242.673,82.193,242.021,82.686,241.218,82.222z"/>
				<path style="fill:#FFFFFF;" d="M213.337,73.461l-11.858-6.846c-0.803-0.464-1.455-1.708-1.455-2.779l0,0
					c0-1.071,0.651-1.564,1.455-1.1l11.858,6.846c0.803,0.464,1.455,1.708,1.455,2.78l0,0
					C214.792,73.432,214.14,73.925,213.337,73.461z"/>
				<path style="fill:#FFFFFF;" d="M231.567,83.986L219.71,77.14c-0.803-0.464-1.455-1.708-1.455-2.78l0,0
					c0-1.071,0.651-1.564,1.455-1.1l11.858,6.846c0.803,0.464,1.455,1.708,1.455,2.779l0,0
					C233.022,83.957,232.371,84.45,231.567,83.986z"/>
				<path style="fill:#FFFFFF;" d="M207.444,77.394l-5.965-3.444c-0.803-0.464-1.455-1.708-1.455-2.779l0,0
					c0-1.071,0.651-1.564,1.455-1.1l5.965,3.444c0.803,0.464,1.455,1.708,1.455,2.78l0,0
					C208.899,77.366,208.248,77.858,207.444,77.394z"/>
				<path style="fill:#FFFFFF;" d="M229.426,97.421l-27.947-16.135c-0.803-0.464-1.455-1.708-1.455-2.78l0,0
					c0-1.071,0.651-1.563,1.455-1.1l27.947,16.135c0.803,0.464,1.455,1.708,1.455,2.78l0,0
					C230.88,97.393,230.229,97.885,229.426,97.421z"/>
				<path style="fill:#FFFFFF;" d="M229.426,112.327l-27.947-16.135c-0.803-0.464-1.455-1.708-1.455-2.78l0,0
					c0-1.071,0.651-1.563,1.455-1.1l27.947,16.135c0.803,0.464,1.455,1.708,1.455,2.779v0
					C230.88,112.298,230.229,112.791,229.426,112.327z"/>
				<path style="fill:#FFFFFF;" d="M241.218,119.135l-6.339-3.66c-0.803-0.464-1.455-1.708-1.455-2.779l0,0
					c0-1.071,0.651-1.564,1.455-1.1l6.339,3.66c0.803,0.464,1.455,1.708,1.455,2.779v0
					C242.673,119.106,242.021,119.599,241.218,119.135z"/>
				<path style="fill:#FFFFFF;" d="M215.421,96.671l-13.942-8.049c-0.803-0.464-1.455-1.708-1.455-2.78l0,0
					c0-1.071,0.651-1.563,1.455-1.1l13.942,8.049c0.803,0.464,1.455,1.708,1.455,2.78l0,0
					C216.876,96.643,216.224,97.135,215.421,96.671z"/>
			</g>
		</g>
		<g>
			
				<linearGradient id="SVGID_00000002380003486093766930000004128510223330196619_" gradientUnits="userSpaceOnUse" x1="327.4895" y1="98.018" x2="383.3674" y2="98.018">
				<stop  offset="0" style="stop-color:#FF5A72;stop-opacity:0.7"/>
				<stop  offset="0.1515" style="stop-color:#FF6971;stop-opacity:0.6546"/>
				<stop  offset="0.7206" style="stop-color:#FF9C6E;stop-opacity:0.4838"/>
				<stop  offset="1" style="stop-color:#FFB06D;stop-opacity:0.4"/>
			</linearGradient>
			<path style="fill:url(#SVGID_00000002380003486093766930000004128510223330196619_);" d="M380.889,144.979l-50.922-29.399
				c-1.369-0.79-2.478-2.91-2.478-4.735V52.931c0-1.825,1.109-2.664,2.478-1.874l50.922,29.4c1.369,0.79,2.478,2.91,2.478,4.735
				v57.913C383.367,144.93,382.258,145.769,380.889,144.979z"/>
			<g>
				<path style="fill:#FFFFFF;" d="M347.852,72.285l-11.858-6.846c-0.803-0.464-1.455-1.708-1.455-2.779l0,0
					c0-1.071,0.651-1.564,1.455-1.1l11.858,6.846c0.803,0.464,1.455,1.708,1.455,2.78l0,0
					C349.307,72.256,348.656,72.749,347.852,72.285z"/>
				<path style="fill:#FFFFFF;" d="M374.828,87.859l-11.858-6.846c-0.803-0.464-1.455-1.708-1.455-2.779l0,0
					c0-1.071,0.651-1.564,1.455-1.1l11.858,6.846c0.803,0.464,1.455,1.708,1.455,2.78l0,0
					C376.282,87.831,375.631,88.323,374.828,87.859z"/>
				<path style="fill:#FFFFFF;" d="M357.638,77.935l-4.474-2.583c-0.803-0.464-1.455-1.708-1.455-2.78l0,0
					c0-1.071,0.651-1.564,1.455-1.1l4.474,2.583c0.803,0.464,1.455,1.708,1.455,2.779v0
					C359.092,77.906,358.441,78.398,357.638,77.935z"/>
				<path style="fill:#FFFFFF;" d="M366.788,90.553l-30.793-17.779c-0.803-0.464-1.455-1.708-1.455-2.779l0,0
					c0-1.071,0.651-1.564,1.455-1.1l30.793,17.778c0.803,0.464,1.455,1.708,1.455,2.78l0,0
					C368.242,90.524,367.591,91.017,366.788,90.553z"/>
				<path style="fill:#FFFFFF;" d="M347.852,86.956l-11.858-6.846c-0.803-0.464-1.455-1.708-1.455-2.779l0,0
					c0-1.071,0.651-1.564,1.455-1.1l11.858,6.846c0.803,0.464,1.455,1.708,1.455,2.779l0,0
					C349.307,86.928,348.656,87.42,347.852,86.956z"/>
				<path style="fill:#FFFFFF;" d="M366.083,97.482l-11.858-6.846c-0.803-0.464-1.455-1.708-1.455-2.779l0,0
					c0-1.071,0.651-1.563,1.455-1.1l11.858,6.846c0.803,0.464,1.455,1.708,1.455,2.78l0,0
					C367.537,97.453,366.886,97.946,366.083,97.482z"/>
				<path style="fill:#FFFFFF;" d="M341.96,90.89l-5.965-3.444c-0.803-0.464-1.455-1.708-1.455-2.779l0,0
					c0-1.071,0.651-1.564,1.455-1.1l5.965,3.444c0.803,0.464,1.455,1.708,1.455,2.779l0,0
					C343.414,90.862,342.763,91.354,341.96,90.89z"/>
				<path style="fill:#FFFFFF;" d="M363.941,110.917l-27.947-16.135c-0.803-0.464-1.455-1.708-1.455-2.779l0,0
					c0-1.071,0.651-1.564,1.455-1.1l27.947,16.135c0.803,0.464,1.455,1.708,1.455,2.78l0,0
					C365.396,110.888,364.744,111.381,363.941,110.917z"/>
				<path style="fill:#FFFFFF;" d="M349.936,110.167l-13.942-8.049c-0.803-0.464-1.455-1.708-1.455-2.779l0,0
					c0-1.071,0.651-1.564,1.455-1.1l13.942,8.049c0.803,0.464,1.455,1.708,1.455,2.779l0,0
					C351.391,110.138,350.74,110.631,349.936,110.167z"/>
				<path style="fill:#FFFFFF;" d="M342.766,113.257l-6.771-3.91c-0.803-0.464-1.455-1.708-1.455-2.78l0,0
					c0-1.071,0.651-1.563,1.455-1.1l6.771,3.91c0.803,0.464,1.455,1.708,1.455,2.779l0,0
					C344.22,113.228,343.569,113.72,342.766,113.257z"/>
				<path style="fill:#FFFFFF;" d="M355.288,120.486l-6.771-3.91c-0.803-0.464-1.455-1.708-1.455-2.779l0,0
					c0-1.071,0.651-1.564,1.455-1.1l6.771,3.91c0.803,0.464,1.455,1.708,1.455,2.779l0,0
					C356.742,120.458,356.091,120.95,355.288,120.486z"/>
				<path style="fill:#FFFFFF;" d="M374.828,131.768l-14.281-8.245c-0.803-0.464-1.455-1.708-1.455-2.779l0,0
					c0-1.071,0.651-1.564,1.455-1.1l14.281,8.245c0.803,0.464,1.455,1.708,1.455,2.779l0,0
					C376.282,131.739,375.631,132.231,374.828,131.768z"/>
			</g>
		</g>
	</g>
	<g>
		<g>
			<g>
				<path style="fill:#133058;" d="M293.449,418.443L293.449,418.443c-1.079,0-1.955-0.875-1.955-1.955V304.664
					c0-1.079,0.875-1.955,1.955-1.955l0,0c1.079,0,1.955,0.875,1.955,1.955v111.825
					C295.404,417.568,294.529,418.443,293.449,418.443z"/>
				<path style="fill:#133058;" d="M388.968,365.095L388.968,365.095c-1.08,0-1.955-0.875-1.955-1.955V251.315
					c0-1.079,0.875-1.955,1.955-1.955l0,0c1.079,0,1.955,0.875,1.955,1.955V363.14C390.923,364.219,390.048,365.095,388.968,365.095
					z"/>
				<path style="fill:#133058;" d="M112.914,314.431L112.914,314.431c-1.079,0-1.955-0.875-1.955-1.955V200.652
					c0-1.079,0.875-1.955,1.955-1.955l0,0c1.08,0,1.955,0.875,1.955,1.955v111.825C114.869,313.556,113.994,314.431,112.914,314.431
					z"/>
			</g>
			<g>
				
					<linearGradient id="SVGID_00000160170032319961967820000002298872149998796724_" gradientUnits="userSpaceOnUse" x1="105.5652" y1="225.8784" x2="394.4438" y2="225.8784">
					<stop  offset="0" style="stop-color:#FFFFFF"/>
					<stop  offset="1" style="stop-color:#2D4483"/>
				</linearGradient>
				<path style="fill:url(#SVGID_00000160170032319961967820000002298872149998796724_);" d="M393.715,250.291
					c0.966,0.558,0.973,1.462,0.011,2.021l-97.618,56.73c-0.962,0.559-2.524,0.558-3.489,0L106.296,201.467
					c-0.968-0.559-0.975-1.464-0.014-2.022l97.618-56.73c0.962-0.559,2.523-0.557,3.491,0.001L393.715,250.291z"/>
				<path style="fill:#133058;" d="M393.443,252.312l-97.618,56.73c-0.962,0.559-2.524,0.558-3.489,0L106.012,201.467
					c-0.488-0.282-0.731-0.651-0.73-1.02l-0.009,3.221c-0.001,0.369,0.243,0.738,0.73,1.02l186.323,107.574
					c0.966,0.557,2.527,0.559,3.489,0l97.618-56.73c0.478-0.277,0.716-0.64,0.717-1.003l0.009-3.221
					C394.159,251.671,393.921,252.034,393.443,252.312z"/>
			</g>
		</g>
		<g>
			
				<linearGradient id="SVGID_00000043451818369404156640000013969981763211724208_" gradientUnits="userSpaceOnUse" x1="203.4851" y1="192.3168" x2="227.1147" y2="192.3168">
				<stop  offset="0" style="stop-color:#FFFFFF"/>
				<stop  offset="1" style="stop-color:#A4D4ED"/>
			</linearGradient>
			<path style="fill:url(#SVGID_00000043451818369404156640000013969981763211724208_);" d="M227.115,184.964l-11.815,2.282
				l-11.815-2.282c0,0-0.041,1.375,4.432,11.167c0.059,0.178,0.143,0.353,0.24,0.526c0.008,0.017,0.015,0.033,0.023,0.05
				l0.007-0.001c0.361,0.616,0.957,1.196,1.808,1.687c2.951,1.704,7.737,1.704,10.688,0c1.275-0.736,1.996-1.67,2.17-2.63
				C227.158,186.298,227.115,184.964,227.115,184.964z"/>
			<path style="fill:#FFFFFF;" d="M206.924,179.502c4.647-2.683,12.181-2.683,16.828,0c4.647,2.683,4.647,7.033,0,9.716
				c-4.647,2.683-12.181,2.683-16.828,0C202.277,186.535,202.277,182.185,206.924,179.502z"/>
			<path style="fill:#133058;" d="M215.339,190.456c-3.125,0-6.037-0.743-8.199-2.091c-1.828-1.14-2.876-2.6-2.876-4.005
				s1.048-2.866,2.876-4.006c2.13-1.329,5.118-2.091,8.198-2.091c3.126,0,6.037,0.743,8.198,2.091c1.827,1.14,2.875,2.6,2.875,4.005
				s-1.048,2.866-2.875,4.006C221.407,189.694,218.418,190.456,215.339,190.456z"/>
			
				<path style="fill:none;stroke:#FFFFFF;stroke-width:0.8505;stroke-linecap:round;stroke-linejoin:round;stroke-miterlimit:10;" d="
				M224.893,189.459c0,0,1.516-3.157,4.198-2.799c2.681,0.359,2.538,4.455-1.14,6.21c-2.154,1.028-3.61-0.016-5.895,2.958"/>
		</g>
		<g>
			<g>
				<polygon style="fill:#5DC6F0;" points="267.532,237.88 241.907,222.988 241.905,222.394 267.53,237.285 				"/>
				
					<linearGradient id="SVGID_00000011741905587104629830000018358912015901315971_" gradientUnits="userSpaceOnUse" x1="241.6218" y1="219.5614" x2="294.9634" y2="219.5614">
					<stop  offset="0" style="stop-color:#FFFFFF"/>
					<stop  offset="1" style="stop-color:#A4D4ED"/>
				</linearGradient>
				<path style="fill:url(#SVGID_00000011741905587104629830000018358912015901315971_);" d="M294.211,216.729l-25.625-14.892
					c0.741,0.425,0.953,1.523,0.555,2.867c-0.398,1.342-1.295,2.548-2.342,3.153l-25.177,14.536l25.625,14.892l25.177-14.536
					c1.047-0.604,1.943-1.811,2.342-3.153C295.164,218.252,294.952,217.154,294.211,216.729z"/>
				
					<linearGradient id="SVGID_00000093176272852732965020000011344784329538677376_" gradientUnits="userSpaceOnUse" x1="245.8331" y1="178.1908" x2="287.6446" y2="202.9141">
					<stop  offset="0" style="stop-color:#FFFFFF"/>
					<stop  offset="1" style="stop-color:#A4D4ED"/>
				</linearGradient>
				<path style="fill:url(#SVGID_00000093176272852732965020000011344784329538677376_);" d="M281.236,205.753l-0.048-17.036
					l-25.625-14.892l0.048,17.036c0.006,2.281,0.785,3.979,2.19,4.785l25.625,14.891
					C282.021,209.732,281.242,208.034,281.236,205.753z"/>
				<path style="fill:#5DC6F0;" d="M281.989,188.418l0.048,17.037c0.006,2.121,0.729,3.704,2.035,4.454l10.785,6.191
					c0.892,0.511,1.147,1.833,0.668,3.448c-0.479,1.612-1.558,3.069-2.817,3.796l-25.177,14.536l-0.002-0.595l25.177-14.536
					c1.047-0.604,1.943-1.811,2.342-3.153c0.398-1.344,0.186-2.443-0.555-2.867l-10.785-6.191c-1.404-0.806-2.183-2.504-2.19-4.785
					l-0.048-17.036L281.989,188.418z"/>
			</g>
			
				<linearGradient id="SVGID_00000034801200562122517480000000836086335348074160_" gradientUnits="userSpaceOnUse" x1="222.5099" y1="156.7961" x2="320.5666" y2="156.7961">
				<stop  offset="0" style="stop-color:#FFFFFF"/>
				<stop  offset="1" style="stop-color:#2D4483"/>
			</linearGradient>
			<path style="fill:url(#SVGID_00000034801200562122517480000000836086335348074160_);" d="M319.014,147.643l-93.09-53.746
				c-0.433-0.25-0.825-0.273-1.108-0.108l-2.306,1.34c0.283-0.164,0.675-0.142,1.108,0.109l93.09,53.745
				c0.861,0.497,1.555,1.702,1.552,2.689l-0.191,67.239c-0.001,0.49-0.174,0.835-0.453,0.997l2.306-1.34
				c0.279-0.162,0.452-0.507,0.453-0.997l0.191-67.239C320.569,149.345,319.875,148.14,319.014,147.643z"/>
			<path style="fill:#133058;" d="M316.991,149.002c0.861,0.497,1.556,1.572,1.553,2.558l-0.173,60.878l-96.205-55.544l0.173-60.878
				c0.003-0.987,0.701-1.257,1.562-0.76L316.991,149.002z"/>
			
				<linearGradient id="SVGID_00000101068803364574229190000013796766423286711981_" gradientUnits="userSpaceOnUse" x1="222.148" y1="188.4592" x2="318.371" y2="188.4592">
				<stop  offset="0" style="stop-color:#FFFFFF"/>
				<stop  offset="1" style="stop-color:#A4D4ED"/>
			</linearGradient>
			<path style="fill:url(#SVGID_00000101068803364574229190000013796766423286711981_);" d="M318.371,212.438l-0.018,6.362
				c-0.003,0.987-0.702,1.535-1.563,1.037l-93.09-53.745c-0.861-0.497-1.555-1.849-1.552-2.836l0.018-6.362L318.371,212.438z"/>
			<g>
				<path style="fill:#FF5C98;" d="M304.703,206.886c0.313,0.181,0.568,0.619,0.567,0.982c-0.001,0.36-0.257,0.506-0.571,0.325
					c-0.316-0.182-0.57-0.623-0.569-0.983C304.131,206.847,304.387,206.704,304.703,206.886z"/>
				<path style="fill:#FF5C98;" d="M311.966,211.08c0.316,0.182,0.57,0.62,0.569,0.983c-0.001,0.36-0.257,0.506-0.573,0.324
					c-0.313-0.181-0.568-0.622-0.567-0.982C311.397,211.042,311.653,210.899,311.966,211.08z"/>
			</g>
			<g>
				
					<linearGradient id="SVGID_00000072262101104234946230000011195888726383006890_" gradientUnits="userSpaceOnUse" x1="201.2743" y1="115.0543" x2="291.4307" y2="165.661">
					<stop  offset="0" style="stop-color:#FF5A72;stop-opacity:0.7"/>
					<stop  offset="0.1515" style="stop-color:#FF6971;stop-opacity:0.6546"/>
					<stop  offset="0.7206" style="stop-color:#FF9C6E;stop-opacity:0.4838"/>
					<stop  offset="1" style="stop-color:#FFB06D;stop-opacity:0.4"/>
				</linearGradient>
				<path style="fill:url(#SVGID_00000072262101104234946230000011195888726383006890_);" d="M247.574,142.495l-20.445-11.804
					c-0.533-0.308-0.966-1.134-0.966-1.845l0,0c0-0.711,0.432-1.038,0.966-0.73l20.445,11.804c0.534,0.308,0.966,1.134,0.966,1.845
					l0,0C248.54,142.476,248.107,142.803,247.574,142.495z"/>
				
					<linearGradient id="SVGID_00000054952490802488223080000000722797608673644192_" gradientUnits="userSpaceOnUse" x1="199.2384" y1="118.6813" x2="289.3951" y2="169.2881">
					<stop  offset="0" style="stop-color:#FF5A72;stop-opacity:0.7"/>
					<stop  offset="0.1515" style="stop-color:#FF6971;stop-opacity:0.6546"/>
					<stop  offset="0.7206" style="stop-color:#FF9C6E;stop-opacity:0.4838"/>
					<stop  offset="1" style="stop-color:#FFB06D;stop-opacity:0.4"/>
				</linearGradient>
				<path style="fill:url(#SVGID_00000054952490802488223080000000722797608673644192_);" d="M235.002,140.107l-7.873-4.546
					c-0.533-0.308-0.966-1.134-0.966-1.845l0,0c0-0.711,0.432-1.038,0.966-0.73l7.873,4.546c0.533,0.308,0.966,1.134,0.966,1.845
					l0,0C235.968,140.088,235.535,140.415,235.002,140.107z"/>
				
					<linearGradient id="SVGID_00000018223319742733181760000017297791852250623394_" gradientUnits="userSpaceOnUse" x1="199.1556" y1="118.8289" x2="289.312" y2="169.4355">
					<stop  offset="0" style="stop-color:#FF5A72;stop-opacity:0.7"/>
					<stop  offset="0.1515" style="stop-color:#FF6971;stop-opacity:0.6546"/>
					<stop  offset="0.7206" style="stop-color:#FF9C6E;stop-opacity:0.4838"/>
					<stop  offset="1" style="stop-color:#FFB06D;stop-opacity:0.4"/>
				</linearGradient>
				<path style="fill:url(#SVGID_00000018223319742733181760000017297791852250623394_);" d="M247.106,147.095l-7.873-4.545
					c-0.533-0.308-0.966-1.134-0.966-1.845l0,0c0-0.711,0.432-1.038,0.966-0.73l7.873,4.546c0.533,0.308,0.966,1.134,0.966,1.845
					l0,0C248.072,147.076,247.639,147.403,247.106,147.095z"/>
				
					<linearGradient id="SVGID_00000158000004690165906170000013198031099276135046_" gradientUnits="userSpaceOnUse" x1="197.173" y1="122.3612" x2="287.3294" y2="172.9678">
					<stop  offset="0" style="stop-color:#FF5A72;stop-opacity:0.7"/>
					<stop  offset="0.1515" style="stop-color:#FF6971;stop-opacity:0.6546"/>
					<stop  offset="0.7206" style="stop-color:#FF9C6E;stop-opacity:0.4838"/>
					<stop  offset="1" style="stop-color:#FFB06D;stop-opacity:0.4"/>
				</linearGradient>
				<path style="fill:url(#SVGID_00000158000004690165906170000013198031099276135046_);" d="M231.089,142.719l-3.961-2.287
					c-0.533-0.308-0.966-1.134-0.966-1.845l0,0c0-0.711,0.432-1.038,0.966-0.73l3.961,2.287c0.533,0.308,0.966,1.134,0.966,1.845
					l0,0C232.055,142.7,231.623,143.027,231.089,142.719z"/>
				
					<linearGradient id="SVGID_00000142894673534106188510000004735593375503482268_" gradientUnits="userSpaceOnUse" x1="195.0441" y1="126.1537" x2="285.2003" y2="176.7602">
					<stop  offset="0" style="stop-color:#FF5A72;stop-opacity:0.7"/>
					<stop  offset="0.1515" style="stop-color:#FF6971;stop-opacity:0.6546"/>
					<stop  offset="0.7206" style="stop-color:#FF9C6E;stop-opacity:0.4838"/>
					<stop  offset="1" style="stop-color:#FFB06D;stop-opacity:0.4"/>
				</linearGradient>
				<path style="fill:url(#SVGID_00000142894673534106188510000004735593375503482268_);" d="M245.684,156.015l-18.555-10.713
					c-0.533-0.308-0.966-1.134-0.966-1.845l0,0c0-0.711,0.432-1.038,0.966-0.73l18.555,10.713c0.533,0.308,0.966,1.134,0.966,1.845
					l0,0C246.649,155.996,246.217,156.323,245.684,156.015z"/>
				
					<linearGradient id="SVGID_00000050650336872814673640000004727216021099845014_" gradientUnits="userSpaceOnUse" x1="192.9968" y1="129.8005" x2="283.1537" y2="180.4074">
					<stop  offset="0" style="stop-color:#FF5A72;stop-opacity:0.7"/>
					<stop  offset="0.1515" style="stop-color:#FF6971;stop-opacity:0.6546"/>
					<stop  offset="0.7206" style="stop-color:#FF9C6E;stop-opacity:0.4838"/>
					<stop  offset="1" style="stop-color:#FFB06D;stop-opacity:0.4"/>
				</linearGradient>
				<path style="fill:url(#SVGID_00000050650336872814673640000004727216021099845014_);" d="M236.385,155.517l-9.257-5.344
					c-0.533-0.308-0.966-1.134-0.966-1.845l0,0c0-0.711,0.432-1.038,0.966-0.73l9.257,5.344c0.533,0.308,0.966,1.134,0.966,1.845
					l0,0C237.351,155.499,236.919,155.825,236.385,155.517z"/>
				
					<linearGradient id="SVGID_00000072242906112187802220000003330029103532395176_" gradientUnits="userSpaceOnUse" x1="190.9644" y1="133.4215" x2="281.1208" y2="184.0282">
					<stop  offset="0" style="stop-color:#FF5A72;stop-opacity:0.7"/>
					<stop  offset="0.1515" style="stop-color:#FF6971;stop-opacity:0.6546"/>
					<stop  offset="0.7206" style="stop-color:#FF9C6E;stop-opacity:0.4838"/>
					<stop  offset="1" style="stop-color:#FFB06D;stop-opacity:0.4"/>
				</linearGradient>
				<path style="fill:url(#SVGID_00000072242906112187802220000003330029103532395176_);" d="M231.625,157.569l-4.496-2.596
					c-0.533-0.308-0.966-1.134-0.966-1.845l0,0c0-0.711,0.432-1.038,0.966-0.73l4.496,2.596c0.533,0.308,0.966,1.134,0.966,1.845
					l0,0C232.59,157.55,232.158,157.877,231.625,157.569z"/>
				
					<linearGradient id="SVGID_00000013894688688204185640000008282569688687744428_" gradientUnits="userSpaceOnUse" x1="190.9073" y1="133.5227" x2="281.0641" y2="184.1296">
					<stop  offset="0" style="stop-color:#FF5A72;stop-opacity:0.7"/>
					<stop  offset="0.1515" style="stop-color:#FF6971;stop-opacity:0.6546"/>
					<stop  offset="0.7206" style="stop-color:#FF9C6E;stop-opacity:0.4838"/>
					<stop  offset="1" style="stop-color:#FFB06D;stop-opacity:0.4"/>
				</linearGradient>
				<path style="fill:url(#SVGID_00000013894688688204185640000008282569688687744428_);" d="M239.938,162.369l-4.496-2.596
					c-0.533-0.308-0.966-1.134-0.966-1.845l0,0c0-0.711,0.433-1.038,0.966-0.73l4.496,2.596c0.533,0.308,0.966,1.134,0.966,1.845
					l0,0C240.904,162.35,240.472,162.677,239.938,162.369z"/>
				
					<linearGradient id="SVGID_00000008850003237408672080000018355115378451181195_" gradientUnits="userSpaceOnUse" x1="190.8358" y1="133.6506" x2="280.9923" y2="184.2572">
					<stop  offset="0" style="stop-color:#FF5A72;stop-opacity:0.7"/>
					<stop  offset="0.1515" style="stop-color:#FF6971;stop-opacity:0.6546"/>
					<stop  offset="0.7206" style="stop-color:#FF9C6E;stop-opacity:0.4838"/>
					<stop  offset="1" style="stop-color:#FFB06D;stop-opacity:0.4"/>
				</linearGradient>
				<path style="fill:url(#SVGID_00000008850003237408672080000018355115378451181195_);" d="M252.912,169.859l-9.482-5.474
					c-0.533-0.308-0.966-1.134-0.966-1.845l0,0c0-0.711,0.433-1.038,0.966-0.73l9.482,5.474c0.533,0.308,0.966,1.134,0.966,1.845
					l0,0C253.878,169.84,253.445,170.167,252.912,169.859z"/>
			</g>
		</g>
		<g>
			<path style="fill:#F2F2F2;" d="M282.669,254.363c0.861,0.497,0.979,1.236,0.125,1.732l-25.592,14.873
				c-0.853,0.496-2.371,0.571-3.232,0.074l-93.09-53.745c-0.861-0.497-0.737-1.376,0.117-1.872l25.592-14.873
				c0.853-0.496,2.128-0.43,2.99,0.067L282.669,254.363z"/>
			
				<linearGradient id="SVGID_00000012472529688587650020000014873284266566821791_" gradientUnits="userSpaceOnUse" x1="160.287" y1="244.9405" x2="283.3781" y2="244.9405">
				<stop  offset="0" style="stop-color:#FFFFFF"/>
				<stop  offset="1" style="stop-color:#2D4483"/>
			</linearGradient>
			<path style="fill:url(#SVGID_00000012472529688587650020000014873284266566821791_);" d="M282.795,256.094l-25.592,14.873
				c-0.853,0.496-2.371,0.571-3.232,0.074l-93.09-53.745c-0.402-0.232-0.589-0.546-0.588-0.867l-0.006,2.075
				c-0.001,0.32,0.186,0.635,0.588,0.867l93.09,53.746c0.861,0.497,2.378,0.422,3.232-0.074l25.592-14.873
				c0.396-0.23,0.583-0.512,0.583-0.798l0.006-2.075C283.377,255.582,283.19,255.864,282.795,256.094z"/>
			<g>
				<g>
					
						<linearGradient id="SVGID_00000093177404096393342330000018147626113701335699_" gradientUnits="userSpaceOnUse" x1="158.7911" y1="190.3544" x2="286.7699" y2="264.1602">
						<stop  offset="0" style="stop-color:#FFFFFF"/>
						<stop  offset="1" style="stop-color:#2D4483"/>
					</linearGradient>
					<polygon style="fill:url(#SVGID_00000093177404096393342330000018147626113701335699_);" points="204.599,214.45 
						200.584,216.783 193.019,212.416 197.034,210.082 					"/>
				</g>
				<g>
					
						<linearGradient id="SVGID_00000163038754448008979130000006494889387331093135_" gradientUnits="userSpaceOnUse" x1="156.2086" y1="194.8327" x2="284.1875" y2="268.6386">
						<stop  offset="0" style="stop-color:#FFFFFF"/>
						<stop  offset="1" style="stop-color:#2D4483"/>
					</linearGradient>
					<polygon style="fill:url(#SVGID_00000163038754448008979130000006494889387331093135_);" points="252.608,248.104 
						248.592,250.438 241.025,246.069 245.04,243.735 					"/>
				</g>
				<g style="enable-background:new    ;">
					<g>
						
							<linearGradient id="SVGID_00000136410351328085936580000001667315329043363259_" gradientUnits="userSpaceOnUse" x1="158.7883" y1="190.3585" x2="286.7682" y2="264.1649">
							<stop  offset="0" style="stop-color:#FFFFFF"/>
							<stop  offset="1" style="stop-color:#2D4483"/>
						</linearGradient>
						<polygon style="fill:url(#SVGID_00000136410351328085936580000001667315329043363259_);" points="213.455,219.563 
							209.44,221.896 201.872,217.527 205.888,215.194 						"/>
					</g>
					<g>
						
							<linearGradient id="SVGID_00000174579773951845605440000005398485402185693581_" gradientUnits="userSpaceOnUse" x1="156.2205" y1="194.8109" x2="284.2013" y2="268.6179">
							<stop  offset="0" style="stop-color:#FFFFFF"/>
							<stop  offset="1" style="stop-color:#2D4483"/>
						</linearGradient>
						<polygon style="fill:url(#SVGID_00000174579773951845605440000005398485402185693581_);" points="208.331,222.541 
							204.315,224.874 196.748,220.505 200.763,218.172 						"/>
					</g>
					<g>
						
							<linearGradient id="SVGID_00000097472278475704402420000009682783809200599943_" gradientUnits="userSpaceOnUse" x1="158.7862" y1="190.3631" x2="286.765" y2="264.1689">
							<stop  offset="0" style="stop-color:#FFFFFF"/>
							<stop  offset="1" style="stop-color:#2D4483"/>
						</linearGradient>
						<polygon style="fill:url(#SVGID_00000097472278475704402420000009682783809200599943_);" points="222.309,224.675 
							218.293,227.008 210.728,222.64 214.743,220.307 						"/>
					</g>
					<g>
						
							<linearGradient id="SVGID_00000084510931554137006940000009950963972881569455_" gradientUnits="userSpaceOnUse" x1="153.6522" y1="199.2644" x2="281.6324" y2="273.071">
							<stop  offset="0" style="stop-color:#FFFFFF"/>
							<stop  offset="1" style="stop-color:#2D4483"/>
						</linearGradient>
						<polygon style="fill:url(#SVGID_00000084510931554137006940000009950963972881569455_);" points="203.204,225.52 
							199.191,227.852 191.623,223.483 195.636,221.151 						"/>
					</g>
					<g>
						
							<linearGradient id="SVGID_00000057115641698916087160000003261110325023350664_" gradientUnits="userSpaceOnUse" x1="156.2182" y1="194.8153" x2="284.1981" y2="268.6218">
							<stop  offset="0" style="stop-color:#FFFFFF"/>
							<stop  offset="1" style="stop-color:#2D4483"/>
						</linearGradient>
						<polygon style="fill:url(#SVGID_00000057115641698916087160000003261110325023350664_);" points="217.184,227.653 
							213.169,229.986 205.604,225.618 209.619,223.285 						"/>
					</g>
					<g>
						
							<linearGradient id="SVGID_00000152979122704867008520000005069626261367142835_" gradientUnits="userSpaceOnUse" x1="151.0848" y1="203.7171" x2="279.0639" y2="277.5231">
							<stop  offset="0" style="stop-color:#FFFFFF"/>
							<stop  offset="1" style="stop-color:#2D4483"/>
						</linearGradient>
						<polygon style="fill:url(#SVGID_00000152979122704867008520000005069626261367142835_);" points="198.079,228.498 
							194.067,230.83 186.499,226.461 190.512,224.129 						"/>
					</g>
					<g>
						
							<linearGradient id="SVGID_00000067204576524108550950000009869393595797161095_" gradientUnits="userSpaceOnUse" x1="158.783" y1="190.3669" x2="286.7634" y2="264.1737">
							<stop  offset="0" style="stop-color:#FFFFFF"/>
							<stop  offset="1" style="stop-color:#2D4483"/>
						</linearGradient>
						<polygon style="fill:url(#SVGID_00000067204576524108550950000009869393595797161095_);" points="231.164,229.788 
							227.149,232.121 219.584,227.753 223.599,225.42 						"/>
					</g>
					<g>
						
							<linearGradient id="SVGID_00000018927172626469435210000016047034953895444629_" gradientUnits="userSpaceOnUse" x1="153.6499" y1="199.2688" x2="281.6291" y2="273.0749">
							<stop  offset="0" style="stop-color:#FFFFFF"/>
							<stop  offset="1" style="stop-color:#2D4483"/>
						</linearGradient>
						<polygon style="fill:url(#SVGID_00000018927172626469435210000016047034953895444629_);" points="212.057,230.632 
							208.045,232.964 200.479,228.596 204.492,226.264 						"/>
					</g>
					<g>
						
							<linearGradient id="SVGID_00000036943562231656796150000006463348472078876551_" gradientUnits="userSpaceOnUse" x1="156.2155" y1="194.8195" x2="284.1958" y2="268.6262">
							<stop  offset="0" style="stop-color:#FFFFFF"/>
							<stop  offset="1" style="stop-color:#2D4483"/>
						</linearGradient>
						<polygon style="fill:url(#SVGID_00000036943562231656796150000006463348472078876551_);" points="226.04,232.766 
							222.025,235.099 214.46,230.731 218.475,228.398 						"/>
					</g>
					<g>
						
							<linearGradient id="SVGID_00000139976036076669467660000004929679071988038056_" gradientUnits="userSpaceOnUse" x1="158.7815" y1="190.3718" x2="286.7603" y2="264.1776">
							<stop  offset="0" style="stop-color:#FFFFFF"/>
							<stop  offset="1" style="stop-color:#2D4483"/>
						</linearGradient>
						<polygon style="fill:url(#SVGID_00000139976036076669467660000004929679071988038056_);" points="240.02,234.9 
							236.005,237.234 228.44,232.866 232.455,230.533 						"/>
					</g>
					<g>
						
							<linearGradient id="SVGID_00000020394617956956160270000017234873917903260060_" gradientUnits="userSpaceOnUse" x1="153.6469" y1="199.2728" x2="281.6271" y2="273.0794">
							<stop  offset="0" style="stop-color:#FFFFFF"/>
							<stop  offset="1" style="stop-color:#2D4483"/>
						</linearGradient>
						<polygon style="fill:url(#SVGID_00000020394617956956160270000017234873917903260060_);" points="220.913,235.745 
							216.9,238.077 209.335,233.709 213.348,231.377 						"/>
					</g>
					<g>
						
							<linearGradient id="SVGID_00000148656747284625032710000008039319521550834319_" gradientUnits="userSpaceOnUse" x1="156.2133" y1="194.824" x2="284.1931" y2="268.6304">
							<stop  offset="0" style="stop-color:#FFFFFF"/>
							<stop  offset="1" style="stop-color:#2D4483"/>
						</linearGradient>
						<polygon style="fill:url(#SVGID_00000148656747284625032710000008039319521550834319_);" points="234.896,237.878 
							230.881,240.212 223.315,235.844 227.331,233.511 						"/>
					</g>
					<g>
						
							<linearGradient id="SVGID_00000089573126947390241280000004381444012650003844_" gradientUnits="userSpaceOnUse" x1="158.7782" y1="190.3756" x2="286.758" y2="264.1821">
							<stop  offset="0" style="stop-color:#FFFFFF"/>
							<stop  offset="1" style="stop-color:#2D4483"/>
						</linearGradient>
						<polygon style="fill:url(#SVGID_00000089573126947390241280000004381444012650003844_);" points="248.876,240.013 
							244.861,242.347 237.296,237.979 241.311,235.646 						"/>
					</g>
					<g>
						
							<linearGradient id="SVGID_00000155843863144178076590000015183415036179915942_" gradientUnits="userSpaceOnUse" x1="153.6453" y1="199.2776" x2="281.624" y2="273.0834">
							<stop  offset="0" style="stop-color:#FFFFFF"/>
							<stop  offset="1" style="stop-color:#2D4483"/>
						</linearGradient>
						<polygon style="fill:url(#SVGID_00000155843863144178076590000015183415036179915942_);" points="229.769,240.858 
							225.756,243.19 218.191,238.822 222.204,236.49 						"/>
					</g>
					<g>
						
							<linearGradient id="SVGID_00000121255936098080701830000001612146911877865918_" gradientUnits="userSpaceOnUse" x1="158.7763" y1="190.3802" x2="286.7559" y2="264.1865">
							<stop  offset="0" style="stop-color:#FFFFFF"/>
							<stop  offset="1" style="stop-color:#2D4483"/>
						</linearGradient>
						<polygon style="fill:url(#SVGID_00000121255936098080701830000001612146911877865918_);" points="257.732,245.126 
							253.717,247.46 246.149,243.091 250.164,240.757 						"/>
					</g>
					<g>
						
							<linearGradient id="SVGID_00000115472694111818735680000000805373539139660209_" gradientUnits="userSpaceOnUse" x1="153.6418" y1="199.2814" x2="281.6221" y2="273.088">
							<stop  offset="0" style="stop-color:#FFFFFF"/>
							<stop  offset="1" style="stop-color:#2D4483"/>
						</linearGradient>
						<polygon style="fill:url(#SVGID_00000115472694111818735680000000805373539139660209_);" points="238.625,245.971 
							234.612,248.303 227.047,243.935 231.06,241.603 						"/>
					</g>
					<g>
						
							<linearGradient id="SVGID_00000027601960324395761450000016812975519436554426_" gradientUnits="userSpaceOnUse" x1="151.0782" y1="203.7276" x2="279.0583" y2="277.5342">
							<stop  offset="0" style="stop-color:#FFFFFF"/>
							<stop  offset="1" style="stop-color:#2D4483"/>
						</linearGradient>
						<polygon style="fill:url(#SVGID_00000027601960324395761450000016812975519436554426_);" points="233.501,249.048 
							229.659,251.281 203.005,235.892 199.739,234.007 195.354,231.475 199.196,229.242 203.581,231.774 206.848,233.66 						"/>
					</g>
					<g>
						
							<linearGradient id="SVGID_00000007425241419187554380000017688313418452507296_" gradientUnits="userSpaceOnUse" x1="156.2057" y1="194.8368" x2="284.1856" y2="268.6432">
							<stop  offset="0" style="stop-color:#FFFFFF"/>
							<stop  offset="1" style="stop-color:#2D4483"/>
						</linearGradient>
						<polygon style="fill:url(#SVGID_00000007425241419187554380000017688313418452507296_);" points="261.461,253.216 
							257.446,255.549 249.881,251.182 253.896,248.848 						"/>
					</g>
					<g>
						
							<linearGradient id="SVGID_00000182517443719723040570000017081021538736375449_" gradientUnits="userSpaceOnUse" x1="151.072" y1="203.7384" x2="279.052" y2="277.5449">
							<stop  offset="0" style="stop-color:#FFFFFF"/>
							<stop  offset="1" style="stop-color:#2D4483"/>
						</linearGradient>
						<polygon style="fill:url(#SVGID_00000182517443719723040570000017081021538736375449_);" points="242.356,254.062 
							238.343,256.394 230.776,252.025 234.789,249.693 						"/>
					</g>
					<g>
						
							<linearGradient id="SVGID_00000061457589989603136020000009426851664263821237_" gradientUnits="userSpaceOnUse" x1="153.6389" y1="199.2883" x2="281.6185" y2="273.0945">
							<stop  offset="0" style="stop-color:#FFFFFF"/>
							<stop  offset="1" style="stop-color:#2D4483"/>
						</linearGradient>
						<polygon style="fill:url(#SVGID_00000061457589989603136020000009426851664263821237_);" points="256.163,256.195 
							252.321,258.428 246.218,254.905 244.842,254.11 236.072,249.047 239.914,246.814 248.684,251.877 250.06,252.672 						"/>
					</g>
					<g>
						
							<linearGradient id="SVGID_00000170247058585822380510000013042479118694685330_" gradientUnits="userSpaceOnUse" x1="157.4881" y1="192.6126" x2="285.4683" y2="266.4192">
							<stop  offset="0" style="stop-color:#FFFFFF"/>
							<stop  offset="1" style="stop-color:#2D4483"/>
						</linearGradient>
						<polygon style="fill:url(#SVGID_00000170247058585822380510000013042479118694685330_);" points="275.442,255.45 
							270.403,258.378 269.462,258.925 266.473,260.662 258.736,256.195 261.725,254.458 262.666,253.911 263.861,253.217 
							255.09,248.154 258.935,245.92 267.791,251.033 269.766,252.173 						"/>
					</g>
					<g>
						
							<linearGradient id="SVGID_00000170237421894129775860000007099224005191908011_" gradientUnits="userSpaceOnUse" x1="151.0698" y1="203.7428" x2="279.049" y2="277.5489">
							<stop  offset="0" style="stop-color:#FFFFFF"/>
							<stop  offset="1" style="stop-color:#2D4483"/>
						</linearGradient>
						<polygon style="fill:url(#SVGID_00000170237421894129775860000007099224005191908011_);" points="251.21,259.173 
							247.197,261.505 239.632,257.138 243.645,254.805 						"/>
					</g>
					<g>
						
							<linearGradient id="SVGID_00000163071354066678718150000002606662131860847012_" gradientUnits="userSpaceOnUse" x1="153.6354" y1="199.2948" x2="281.6146" y2="273.1009">
							<stop  offset="0" style="stop-color:#FFFFFF"/>
							<stop  offset="1" style="stop-color:#2D4483"/>
						</linearGradient>
						<polygon style="fill:url(#SVGID_00000163071354066678718150000002606662131860847012_);" points="265.19,261.308 
							261.177,263.64 253.612,259.272 257.625,256.94 						"/>
					</g>
					<g>
						
							<linearGradient id="SVGID_00000136406649902781969900000014548609509903079817_" gradientUnits="userSpaceOnUse" x1="151.0683" y1="203.7477" x2="279.047" y2="277.5535">
							<stop  offset="0" style="stop-color:#FFFFFF"/>
							<stop  offset="1" style="stop-color:#2D4483"/>
						</linearGradient>
						<polygon style="fill:url(#SVGID_00000136406649902781969900000014548609509903079817_);" points="260.066,264.286 
							256.053,266.618 248.488,262.25 252.5,259.918 						"/>
					</g>
				</g>
				<g>
					
						<linearGradient id="SVGID_00000150806762223264687880000013796217394787089295_" gradientUnits="userSpaceOnUse" x1="156.2231" y1="194.8067" x2="284.203" y2="268.6132">
						<stop  offset="0" style="stop-color:#FFFFFF"/>
						<stop  offset="1" style="stop-color:#2D4483"/>
					</linearGradient>
					<polygon style="fill:url(#SVGID_00000150806762223264687880000013796217394787089295_);" points="199.475,217.428 
						195.46,219.762 187.894,215.394 191.91,213.06 					"/>
				</g>
				<g>
					
						<linearGradient id="SVGID_00000027563745417159747300000002183604823751499430_" gradientUnits="userSpaceOnUse" x1="153.6573" y1="199.2559" x2="281.6369" y2="273.0622">
						<stop  offset="0" style="stop-color:#FFFFFF"/>
						<stop  offset="1" style="stop-color:#2D4483"/>
					</linearGradient>
					<polygon style="fill:url(#SVGID_00000027563745417159747300000002183604823751499430_);" points="185.492,215.294 
						181.479,217.626 173.914,213.259 177.927,210.927 					"/>
				</g>
				<g>
					
						<linearGradient id="SVGID_00000006692939694586778670000016669890128879095480_" gradientUnits="userSpaceOnUse" x1="151.0897" y1="203.7085" x2="279.0683" y2="277.5142">
						<stop  offset="0" style="stop-color:#FFFFFF"/>
						<stop  offset="1" style="stop-color:#2D4483"/>
					</linearGradient>
					<polygon style="fill:url(#SVGID_00000006692939694586778670000016669890128879095480_);" points="180.368,218.273 
						176.355,220.605 168.79,216.237 172.802,213.905 					"/>
				</g>
				<g>
					
						<linearGradient id="SVGID_00000012467488477865636190000002509457158728913318_" gradientUnits="userSpaceOnUse" x1="156.2256" y1="194.8025" x2="284.2056" y2="268.6089">
						<stop  offset="0" style="stop-color:#FFFFFF"/>
						<stop  offset="1" style="stop-color:#2D4483"/>
					</linearGradient>
					<polygon style="fill:url(#SVGID_00000012467488477865636190000002509457158728913318_);" points="190.619,212.315 
						186.604,214.649 179.039,210.281 183.054,207.947 					"/>
				</g>
				<g>
					
						<linearGradient id="SVGID_00000164491166694809079310000008661916929270310809_" gradientUnits="userSpaceOnUse" x1="158.7933" y1="190.3499" x2="286.7731" y2="264.1563">
						<stop  offset="0" style="stop-color:#FFFFFF"/>
						<stop  offset="1" style="stop-color:#2D4483"/>
					</linearGradient>
					<polygon style="fill:url(#SVGID_00000164491166694809079310000008661916929270310809_);" points="195.743,209.337 
						191.728,211.671 184.163,207.303 188.178,204.969 					"/>
				</g>
				<g>
					
						<linearGradient id="SVGID_00000163761157511024380630000011190564629756986771_" gradientUnits="userSpaceOnUse" x1="156.2107" y1="194.8282" x2="284.1906" y2="268.6346">
						<stop  offset="0" style="stop-color:#FFFFFF"/>
						<stop  offset="1" style="stop-color:#2D4483"/>
					</linearGradient>
					<polygon style="fill:url(#SVGID_00000163761157511024380630000011190564629756986771_);" points="243.752,242.991 
						239.737,245.325 232.171,240.957 236.187,238.624 					"/>
				</g>
				<g>
					
						<linearGradient id="SVGID_00000085948507358720411100000002377476580166984091_" gradientUnits="userSpaceOnUse" x1="151.0869" y1="203.7126" x2="279.067" y2="277.5192">
						<stop  offset="0" style="stop-color:#FFFFFF"/>
						<stop  offset="1" style="stop-color:#2D4483"/>
					</linearGradient>
					<polygon style="fill:url(#SVGID_00000085948507358720411100000002377476580166984091_);" points="189.224,223.385 
						185.211,225.717 177.645,221.35 181.658,219.018 					"/>
				</g>
				<g>
					
						<linearGradient id="SVGID_00000107579094029284461920000016573534324256098703_" gradientUnits="userSpaceOnUse" x1="153.6548" y1="199.2602" x2="281.634" y2="273.0663">
						<stop  offset="0" style="stop-color:#FFFFFF"/>
						<stop  offset="1" style="stop-color:#2D4483"/>
					</linearGradient>
					<polygon style="fill:url(#SVGID_00000107579094029284461920000016573534324256098703_);" points="194.348,220.408 
						190.335,222.74 182.77,218.372 186.783,216.04 					"/>
				</g>
			</g>
		</g>
		<g>
			<g>
				
					<linearGradient id="SVGID_00000166677135990389425400000007871399641680299943_" gradientUnits="userSpaceOnUse" x1="322.4997" y1="268.6585" x2="269.7668" y2="238.6064">
					<stop  offset="0" style="stop-color:#FFFFFF"/>
					<stop  offset="1" style="stop-color:#A4D4ED"/>
				</linearGradient>
				<path style="fill:url(#SVGID_00000166677135990389425400000007871399641680299943_);" d="M317.797,257.173
					c0.478-0.276,0.95-0.523,1.411-0.733c6.354-2.901,7.286,1.264,7.335,1.483l-23.761,13.718
					C304.222,269.356,311.622,260.738,317.797,257.173z"/>
			</g>
			
				<linearGradient id="SVGID_00000021114871596760952940000007846401709630067124_" gradientUnits="userSpaceOnUse" x1="289.8196" y1="259.7626" x2="325.0494" y2="259.7626">
				<stop  offset="0" style="stop-color:#FFFFFF"/>
				<stop  offset="1" style="stop-color:#A4D4ED"/>
			</linearGradient>
			<path style="fill:url(#SVGID_00000021114871596760952940000007846401709630067124_);" d="M312.087,248.359
				c-1.062-0.617-2.851-0.817-5.842,0.548c-0.46,0.21-0.932,0.456-1.411,0.733c-6.175,3.565-13.575,12.183-15.015,14.469
				l12.963,7.533c1.44-2.285,8.84-10.904,15.015-14.469c0.478-0.276,0.95-0.523,1.411-0.733c2.99-1.365,4.78-1.165,5.842-0.548
				L312.087,248.359z"/>
			<g>
				<g>
					<path style="fill:#FF5C98;" d="M310.316,254.388c0.784-0.449,2.151-1.166,2.885-1.426c0,0-0.224-1.701-1.963-1.316
						c-1.13,0.25-2.192,2.207-2.273,3.553l0.748,0.19l0.918-0.559l-0.389-0.399C310.267,254.417,310.291,254.403,310.316,254.388z"
						/>
				</g>
				
					<linearGradient id="SVGID_00000024694862419466140680000016890390364713993904_" gradientUnits="userSpaceOnUse" x1="293.019" y1="246.5107" x2="312.6743" y2="254.2365">
					<stop  offset="0" style="stop-color:#FFFFFF"/>
					<stop  offset="1" style="stop-color:#E02066"/>
				</linearGradient>
				<path style="fill:url(#SVGID_00000024694862419466140680000016890390364713993904_);" d="M309.713,255.389
					c0,0,2.392-1.523,3.842-2.038c0,0-0.447-1.799-1.569-1.515C310.865,252.12,309.794,254.043,309.713,255.389z"/>
			</g>
		</g>
		<g>
			<path style="fill:#FFFFFF;" d="M205.692,150.451l-15.789,3.049l-15.79-3.049c0,0-0.055,1.838,5.923,14.924
				c0.079,0.237,0.191,0.471,0.321,0.703c0.01,0.023,0.02,0.044,0.031,0.067l0.009-0.001c0.482,0.823,1.279,1.598,2.416,2.254
				c3.944,2.277,10.339,2.277,14.284,0c1.704-0.984,2.668-2.231,2.9-3.515C205.75,152.235,205.692,150.451,205.692,150.451z"/>
			
				<linearGradient id="SVGID_00000044179456023752684520000017849545086543137947_" gradientUnits="userSpaceOnUse" x1="174.1126" y1="160.2784" x2="205.6916" y2="160.2784">
				<stop  offset="0" style="stop-color:#FF5A72;stop-opacity:0.7"/>
				<stop  offset="0.1515" style="stop-color:#FF6971;stop-opacity:0.6546"/>
				<stop  offset="0.7206" style="stop-color:#FF9C6E;stop-opacity:0.4838"/>
				<stop  offset="1" style="stop-color:#FFB06D;stop-opacity:0.4"/>
			</linearGradient>
			<path style="fill:url(#SVGID_00000044179456023752684520000017849545086543137947_);" d="M205.692,150.451l-15.789,3.049
				l-15.79-3.049c0,0-0.055,1.838,5.923,14.924c0.079,0.237,0.191,0.471,0.321,0.703c0.01,0.023,0.02,0.044,0.031,0.067l0.009-0.001
				c0.482,0.823,1.279,1.598,2.416,2.254c3.944,2.277,10.339,2.277,14.284,0c1.704-0.984,2.668-2.231,2.9-3.515
				C205.75,152.235,205.692,150.451,205.692,150.451z"/>
			<path style="fill:#FFB0D2;" d="M178.708,143.153c6.21-3.586,16.279-3.586,22.49,0c6.21,3.585,6.21,9.399,0,12.984
				c-6.21,3.585-16.279,3.585-22.49,0C172.498,152.551,172.498,146.738,178.708,143.153z"/>
			<path style="fill:#1D2C54;" d="M189.954,157.897c-4.339,0-8.382-1.005-11.383-2.83c-2.537-1.543-3.992-3.519-3.992-5.422
				s1.455-3.879,3.992-5.422c2.957-1.799,7.105-2.83,11.382-2.83c4.339,0,8.381,1.005,11.382,2.83
				c2.537,1.543,3.992,3.519,3.992,5.422s-1.455,3.879-3.992,5.422C198.379,156.865,194.23,157.897,189.954,157.897z"/>
			<path style="fill:#0CA8C7;" d="M189.953,152.334c-0.677,0-1.308-0.149-1.776-0.419c-0.396-0.229-0.623-0.521-0.623-0.803
				c0-0.282,0.227-0.575,0.623-0.803c0.461-0.267,1.109-0.419,1.776-0.419c0.677,0,1.308,0.149,1.776,0.419
				c0.396,0.229,0.623,0.521,0.623,0.803c0,0.282-0.227,0.575-0.623,0.803C191.268,152.181,190.621,152.334,189.953,152.334z"/>
			<path style="fill:#0CA8C7;" d="M199.577,128.723c-2.254,0.625-4.117,1.14-4.117,1.14l3.275,0.863
				c-1.574,3.377-3.649,6.069-5.112,7.833c-2.871,3.457-3.079,11.758-3.079,11.758l-1.378,0.851c0,0-0.285-4.742-0.4-12.575
				c-0.115-7.829,12.158-19.247,12.158-19.247C201.231,122.77,200.615,125.934,199.577,128.723z"/>
			<path style="fill:#0CA8C7;" d="M189.719,151h-2.449c0,0-6.881-10.492-13.336-12.665c-3.262-1.097-8.012-2.869-12.686-5.914
				l3.815-3.32l-6.715,1.27c-3.53-2.764-6.813-6.337-9.131-10.968c0,0,24.925,4.91,31.01,15.108
				C186.313,144.708,189.719,151,189.719,151z"/>
			<path style="fill:#0CA8C7;" d="M189.501,152.005c0,0-7.358-1.361-10.472,0.371c-3.113,1.732-9.436,4.731-17.149,2.475
				c0,0,10.338-8.019,17.271-6.477c6.932,1.542,11.127,2.653,11.127,2.653L189.501,152.005z"/>
		</g>
	</g>
	<g>
		<g>
			<path style="fill:#133058;" d="M199.324,359.769c0,0-1.914,4.509-2.443,6.951c0,0-1.132,3.571,4.626,5.77
				c5.758,2.2,10.657-1.857,11.701-3.528c0,0,15.331-0.44,21.105-7.35s0.186-9.287-4.55-8.062
				c-4.736,1.226-19.264,3.321-22.17,2.847C204.686,355.922,199.324,359.769,199.324,359.769z"/>
			
				<linearGradient id="SVGID_00000003787539271460013110000009563523508037064858_" gradientUnits="userSpaceOnUse" x1="143.9757" y1="328.2989" x2="226.6474" y2="328.2989">
				<stop  offset="0" style="stop-color:#496DD1"/>
				<stop  offset="1" style="stop-color:#2D4483"/>
			</linearGradient>
			<path style="fill:url(#SVGID_00000003787539271460013110000009563523508037064858_);" d="M149.11,315.768
				c0,0,3.439,9.955,20.052,5.639c11.422-2.968,19.945-5.905,23.679-6.945c8.209-2.286,13.819-5.422,15.513-2.387
				c1.143,2.047-6.729,37.082-8.013,40.695c0,0-1.583,7.097-1.257,8.24c2.404,8.418,18.923,6.121,18.29,0.05
				c-0.633-6.072,9.224-55.708,9.273-59.779c0.07-5.795-3.767-12.139-15.369-11.065c-11.602,1.074-24.743,2.625-33.199,3.778
				C169.623,295.148,130.039,289.476,149.11,315.768z"/>
		</g>
		<g>
			<path style="fill:#133058;" d="M172.301,410.797h-0.121c-0.617,0-1.117-0.5-1.117-1.117v-60.511c0-0.617,0.5-1.117,1.117-1.117
				h0.121c0.617,0,1.117,0.5,1.117,1.117v60.511C173.418,410.297,172.917,410.797,172.301,410.797z"/>
			<path style="fill:#133058;" d="M210.23,391.165h-0.121c-0.617,0-1.117-0.5-1.117-1.117v-60.511c0-0.617,0.5-1.117,1.117-1.117
				h0.121c0.617,0,1.117,0.5,1.117,1.117v60.511C211.347,390.665,210.846,391.165,210.23,391.165z"/>
			<path style="fill:#133058;" d="M129.044,385.102h-0.121c-0.617,0-1.117-0.5-1.117-1.117v-60.511c0-0.617,0.5-1.117,1.117-1.117
				h0.121c0.617,0,1.117,0.5,1.117,1.117v60.511C130.161,384.601,129.66,385.102,129.044,385.102z"/>
		</g>
		
			<linearGradient id="SVGID_00000168797469077131855620000000366091129798767547_" gradientUnits="userSpaceOnUse" x1="192.8827" y1="297.9932" x2="127.2605" y2="382.5117">
			<stop  offset="0" style="stop-color:#FFFFFF"/>
			<stop  offset="1" style="stop-color:#2D4483"/>
		</linearGradient>
		<path style="fill:url(#SVGID_00000168797469077131855620000000366091129798767547_);" d="M170.046,302.912l-34.421,19.873
			c-2.611,1.508-5.097,1.743-6.925,0.681l43.703,25.397c1.828,1.062,4.314,0.827,6.925-0.681l34.421-19.873L170.046,302.912z"/>
		<g>
			<path style="fill:#133058;" d="M223.03,372.481c0,0-1.914,4.509-2.443,6.951c0,0-1.132,3.571,4.626,5.77
				c5.758,2.2,10.657-1.857,11.701-3.528c0,0,15.331-0.44,21.105-7.35c5.774-6.91,0.186-9.287-4.55-8.062
				c-4.736,1.226-19.264,3.321-22.17,2.847S223.03,372.481,223.03,372.481z"/>
			
				<linearGradient id="SVGID_00000140706186741013456150000005136702579909650862_" gradientUnits="userSpaceOnUse" x1="179.7124" y1="311.3708" x2="245.6749" y2="345.3828">
				<stop  offset="0" style="stop-color:#5986FF"/>
				<stop  offset="1" style="stop-color:#2D4483"/>
			</linearGradient>
			<path style="fill:url(#SVGID_00000140706186741013456150000005136702579909650862_);" d="M241.53,308.67
				c-0.654-5.758-5.253-11.574-16.63-9.061c-11.377,2.514-24.222,5.692-32.468,7.892c-8.246,2.2-48.228,1.512-26.025,25.219
				c0,0,4.655,9.448,20.598,3.092c10.963-4.37,19.052-8.347,22.627-9.845c7.859-3.293,13.034-7.104,15.094-4.304
				c0.071,0.096,0.128,0.285,0.175,0.548c-0.622,3.41-1.513,9.402-1.376,15.182c0.012,0.517,0.033,1.024,0.06,1.522
				c0.197,3.551,0.17,7.113-0.168,10.654c-0.629,6.595-1.267,12.119-1.564,13.47c0,0-0.685,7.24-0.218,8.333
				c3.436,8.052,19.539,3.712,18.153-2.233C238.404,363.194,241.99,312.715,241.53,308.67z"/>
		</g>
		<g>
			
				<linearGradient id="SVGID_00000100367164522779478370000001364020769404908729_" gradientUnits="userSpaceOnUse" x1="144.5302" y1="224.0343" x2="221.8298" y2="355.9592">
				<stop  offset="0" style="stop-color:#FF5A72"/>
				<stop  offset="0.2266" style="stop-color:#CA5C80"/>
				<stop  offset="0.603" style="stop-color:#785E95"/>
				<stop  offset="0.8698" style="stop-color:#445FA3"/>
				<stop  offset="1" style="stop-color:#3060A8"/>
			</linearGradient>
			<path style="fill:url(#SVGID_00000100367164522779478370000001364020769404908729_);" d="M148.201,299.538
				c-0.071,3.697,1.732,7.161,4.804,9.233c7.215,4.857,19.216,11.197,25.823,12.125c16.001,2.268,17.322-8.215,17.322-8.215
				s-0.461-62.752-2.723-75.756c-1.206-6.936-6.599-10.445-12.26-14.159c-0.714-0.465-1.393-0.911-2.036-1.304
				c-4.268-2.643-9.161-4.232-14.179-4.196c-1.357,0.018-2.572,0.125-3.679,0.357c-5.661,1.054-8.125,4.464-10,7.197
				c-1.179,1.714-1.84,3.75-1.875,5.839L148.201,299.538z"/>
			<g>
				<g>
					<path style="fill:#822769;" d="M182.447,230.783c0,0-8.502,2.906-6.243,13.054c0,0,12.051,34.542,30.518,36.603
						c18.467,2.061,39.26-8.426,41.596-11.199c0,0-2.731-6.82-5.163-6.914c-2.432-0.094-21.875,5.939-30.629,5.441
						c-8.753-0.498-10.363-5.575-12.593-10.366C197.704,252.611,192.884,227.1,182.447,230.783z"/>
					<g>
						<path style="fill:#FFB79E;" d="M246.09,268.816c0,0,2.863,1.626,6.7-1.048c3.837-2.674,4.467-6.568,4.467-6.568
							s5.858-0.787,6.471-1.89c0.859-1.546,0.802-4.629-5.898-4.867c-1.1-0.039-7.215,1.374-8.876,2.405s-5.948,4.61-6.009,6.886
							C242.884,266.01,244.151,268.336,246.09,268.816z"/>
					</g>
				</g>
			</g>
		</g>
		<g>
			<g>
				
					<linearGradient id="SVGID_00000087389780749280758390000009029544842996117394_" gradientUnits="userSpaceOnUse" x1="165.7047" y1="303.5135" x2="214.0348" y2="303.5135">
					<stop  offset="0" style="stop-color:#FFFFFF"/>
					<stop  offset="1" style="stop-color:#2D4483"/>
				</linearGradient>
				<path style="fill:url(#SVGID_00000087389780749280758390000009029544842996117394_);" d="M166.408,256.589l6.982,38.778
					c0.928,4.81,1.027,10.197,0.29,16.005l-3.721,29.401c-0.443,3.503,0.369,6.329,2.23,7.757c1.859,1.429,4.566,1.302,7.422-0.347
					l34.421-19.873l0.002,0.821l-34.421,19.873c-3.068,1.771-5.97,1.908-7.969,0.375c-1.997-1.533-2.868-4.57-2.392-8.329
					l3.721-29.401c0.722-5.705,0.625-10.995-0.286-15.724l-6.983-38.78L166.408,256.589z"/>
			</g>
			<g>
				<polygon style="fill:#F2F2F2;" points="165.705,257.145 122.001,231.748 122.704,231.192 166.408,256.589 				"/>
			</g>
			
				<linearGradient id="SVGID_00000090267807557838998330000015642880375978733963_" gradientUnits="userSpaceOnUse" x1="112.9661" y1="204.6952" x2="175.6803" y2="367.2068">
				<stop  offset="0" style="stop-color:#FFFFFF"/>
				<stop  offset="0.2266" style="stop-color:#CAD6E9"/>
				<stop  offset="0.603" style="stop-color:#7897C6"/>
				<stop  offset="0.8698" style="stop-color:#446FB0"/>
				<stop  offset="1" style="stop-color:#3060A8"/>
			</linearGradient>
			<path style="fill:url(#SVGID_00000090267807557838998330000015642880375978733963_);" d="M172.691,311.649
				c0.722-5.705,0.625-10.995-0.286-15.724l-6.984-38.78l-43.703-25.398l6.983,38.78c0.911,4.729,1.008,10.018,0.286,15.724
				l-3.721,29.401c-0.476,3.759,0.395,6.796,2.392,8.329c0.17,0.131,0.347,0.249,0.53,0.355l43.703,25.398
				c-0.183-0.106-0.36-0.225-0.53-0.355c-1.997-1.533-2.868-4.57-2.392-8.329L172.691,311.649z"/>
		</g>
		<g>
			<g>
				
					<line style="fill:none;stroke:#FFB79E;stroke-width:12.7122;stroke-linecap:round;stroke-linejoin:round;stroke-miterlimit:10;" x1="171.158" y1="207.714" x2="171.158" y2="219.709"/>
			</g>
			<g>
				<path style="fill:#FFB79E;" d="M191.451,189.203c3.627,10.385,0.431,22.303-7.644,25.123c-1.18,0.412-2.397,0.61-3.629,0.605
					c-5.727,0.014-11.751-4.181-15.555-10.362c-0.971-1.59-1.804-3.323-2.44-5.144c-0.088-0.253-0.177-0.506-0.242-0.748
					c-0.171-0.545-0.326-1.097-0.458-1.637c-1.578-6.523-0.151-12.508,3.357-16.438c1.129-1.264,2.463-2.317,3.982-3.113
					c0.595-0.302,1.2-0.571,1.841-0.795c6.238-2.179,13.09,0.271,17.542,6.301C189.523,184.769,190.626,186.843,191.451,189.203z"/>
				<path style="fill:#133058;" d="M189.734,183.612c0.921-1.333,1.654-3.209,1.778-5.844c0,0-0.244-1.304-1.653,1.371
					c-0.336,0.637-0.936,1.159-1.653,1.586c-0.001-0.002-0.002-0.004-0.003-0.007c-4.215-8.551-20.682-16.279-27.461,0.389
					c-0.554-0.391-1.332-0.798-1.273,0.068c0.016,0.235,0.027,0.455,0.041,0.657c-0.882-0.463-2.77-1.301-2.174,0.374
					c0.28,0.786,0.495,1.473,0.743,1.997c-2.134,2.421-4.284,6.527-3.724,11.22c0.54,4.527,3.403,9.989,6.897,13.776
					c0.006,0.007,0.01,0.013,0.016,0.02c0,0,0.006,0.003,0.007,0.004c0.46,0.497,0.93,0.964,1.408,1.397
					c0.221,0.41,0.29,0.866-0.025,1.307c-0.617,0.866-0.207,1.937,1.403,2.391c2.419,0.682,5.599,0.65,7.499-0.747
					c0.053,0.136,0.114,0.271,0.188,0.403c1.074,1.933,2.749,1.245,2.05,0c-0.003-0.005-0.006-0.01-0.008-0.015
					c-0.513-0.926-0.316-2.092,0.432-2.841c2.26-2.261,4.004-5.309,5.759-6.223c3.438-1.787-3.376-5.81-0.426-8.404
					c2.225-1.955,4.47,3.507,6.237,1.765c1.347-1.326-2.079-4.938-2.554-7.264c1.566-0.177,5.741-1.228,7.445-7.357
					C190.684,183.634,190.716,182.794,189.734,183.612z"/>
				<path style="fill:#FFB79E;" d="M185.951,198.491c0.999,2.495,0.352,5.434-1.589,6.212c-1.94,0.778-4.439-0.901-5.438-3.396
					c-1-2.495-0.122-4.861,1.818-5.639C182.683,194.891,184.952,195.996,185.951,198.491z"/>
			</g>
		</g>
	</g>
	<g>
		<g>
			<g>
				<path style="fill:#8ED7DD;" d="M248.192,95.834c1.078,0.622,1.949,2.132,1.946,3.37l-0.106,37.502
					c-0.004,1.242-0.881,1.742-1.959,1.119l-32.636-18.843c-1.081-0.624-1.952-2.133-1.949-3.375l0.106-37.502
					c0.004-1.239,0.881-1.738,1.961-1.114L248.192,95.834z"/>
				<path style="fill:#0CA8C7;" d="M250.906,94.092L218.27,75.249c-0.544-0.314-1.037-0.343-1.392-0.137l-2.997,1.742
					c0.355-0.207,0.848-0.177,1.392,0.137l32.636,18.843c1.078,0.622,1.949,2.132,1.946,3.37l-0.106,37.502
					c-0.002,0.617-0.219,1.051-0.57,1.255l2.997-1.742c0.351-0.204,0.568-0.638,0.57-1.255l0.106-37.502
					C252.856,96.224,251.984,94.714,250.906,94.092z"/>
			</g>
			
				<text transform="matrix(0.866 0.5 0 1 222.7846 106.7825)" style="fill:#FFFFFF; font-family:'Montserrat-Bold'; font-size:15.7348px;">JS</text>
		</g>
		<g>
			<g>
				<path style="fill:#5986FF;" d="M300.075,65.215c1.078,0.622,1.949,2.132,1.946,3.37l-0.106,37.502
					c-0.004,1.242-0.881,1.742-1.958,1.119l-32.637-18.843c-1.081-0.624-1.952-2.133-1.949-3.375l0.106-37.502
					c0.003-1.239,0.881-1.738,1.961-1.115L300.075,65.215z"/>
				<path style="fill:#335ED4;" d="M302.789,63.473L270.152,44.63c-0.544-0.314-1.037-0.343-1.392-0.137l-2.997,1.742
					c0.355-0.207,0.848-0.177,1.392,0.137l32.636,18.843c1.078,0.622,1.949,2.132,1.946,3.37l-0.106,37.502
					c-0.002,0.617-0.219,1.051-0.57,1.255l2.997-1.742c0.351-0.204,0.568-0.638,0.57-1.255l0.106-37.502
					C304.738,65.604,303.867,64.095,302.789,63.473z"/>
			</g>
			
				<text transform="matrix(0.866 0.5 0 1 270.0162 74.4929)" style="fill:#FFFFFF; font-family:'Montserrat-Bold'; font-size:15.7348px;">CSS</text>
		</g>
		<g>
			<g>
				<path style="fill:#FF5C98;" d="M306.454,153.245c1.078,0.622,1.949,2.132,1.946,3.37l-0.106,37.502
					c-0.004,1.242-0.881,1.742-1.958,1.119l-32.637-18.843c-1.081-0.624-1.952-2.133-1.949-3.375l0.106-37.502
					c0.003-1.239,0.881-1.738,1.961-1.115L306.454,153.245z"/>
				<path style="fill:#B8426D;" d="M309.168,151.503l-32.636-18.843c-0.544-0.314-1.037-0.343-1.392-0.137l-2.997,1.742
					c0.355-0.207,0.848-0.177,1.392,0.137l32.636,18.843c1.078,0.622,1.949,2.132,1.946,3.37l-0.106,37.502
					c-0.002,0.617-0.219,1.051-0.57,1.255l2.997-1.742c0.351-0.204,0.568-0.638,0.57-1.255l0.106-37.502
					C311.117,153.635,310.246,152.125,309.168,151.503z"/>
			</g>
			
				<text transform="matrix(0.866 0.5 0 1 274.6364 162.3262)" style="fill:#FFFFFF; font-family:'Montserrat-Bold'; font-size:15.7348px;">PHP</text>
		</g>
		<g>
			<g>
				<path style="fill:#822769;" d="M374.922,189.392c1.078,0.622,1.949,2.132,1.946,3.37l-0.106,37.502
					c-0.004,1.242-0.881,1.742-1.959,1.119l-32.636-18.843c-1.081-0.624-1.952-2.133-1.949-3.375l0.106-37.502
					c0.003-1.239,0.881-1.738,1.961-1.115L374.922,189.392z"/>
				<path style="fill:#591B48;" d="M377.636,187.65l-32.636-18.842c-0.544-0.314-1.037-0.344-1.392-0.137l-2.997,1.742
					c0.355-0.207,0.848-0.177,1.392,0.137l32.636,18.843c1.078,0.622,1.949,2.132,1.946,3.37l-0.106,37.502
					c-0.002,0.617-0.219,1.051-0.57,1.255l2.997-1.742c0.351-0.204,0.568-0.638,0.57-1.255l0.106-37.502
					C379.585,189.782,378.714,188.273,377.636,187.65z"/>
			</g>
			
				<text transform="matrix(0.866 0.5 0 1 345.4285 198.2231)" style="fill:#FFFFFF; font-family:'Montserrat-Bold'; font-size:15.7348px;">C++</text>
		</g>
	</g>
</g>
<g id="DESIGNED_BY_FREEPIK">
	<g>
		<g id="XMLID_319_">
			<g id="XMLID_338_">
				<path id="XMLID_346_" style="fill:#A5B7C6;" d="M260.104,465.465c-0.432,0.443-0.803,0.931-1.108,1.453l-0.465-0.241
					c-0.067-0.298-0.349-0.503-0.659-0.466c-0.331,0.039-0.568,0.339-0.529,0.67c0.039,0.331,0.339,0.568,0.67,0.529
					c0.065-0.008,0.127-0.026,0.183-0.052l0.452,0.234c-0.251,0.554-0.433,1.139-0.539,1.744l0.747,0.132
					c0.23-1.306,0.85-2.507,1.792-3.473L260.104,465.465z"/>
				<path id="XMLID_345_" style="fill:#A5B7C6;" d="M265.592,463.163c-0.171,0-0.341,0.006-0.51,0.017l-0.074-0.626
					c0.188-0.149,0.296-0.389,0.266-0.645c-0.046-0.393-0.402-0.674-0.795-0.628c-0.393,0.046-0.674,0.402-0.628,0.795
					c0.03,0.254,0.189,0.461,0.405,0.564l0.073,0.624c-0.714,0.116-1.403,0.332-2.06,0.646l0.327,0.684
					c0.934-0.447,1.942-0.673,2.995-0.673c0.496,0,0.993,0.053,1.475,0.158l0.161-0.741
					C266.692,463.222,266.142,463.163,265.592,463.163z"/>
				<path id="XMLID_344_" style="fill:#A5B7C6;" d="M272.194,465.711c0.331-0.04,0.566-0.341,0.526-0.672
					c-0.04-0.331-0.341-0.566-0.672-0.526c-0.309,0.038-0.535,0.304-0.53,0.609l-0.416,0.363c-0.418-0.43-0.89-0.813-1.408-1.139
					l-0.404,0.641c1.134,0.715,2.021,1.726,2.563,2.925l0.691-0.313c-0.251-0.554-0.568-1.072-0.942-1.545l0.402-0.351
					C272.065,465.716,272.129,465.719,272.194,465.711z"/>
				<path id="XMLID_343_" style="fill:#A5B7C6;" d="M265.044,473.372c-0.386,0.023-0.775,0.035-1.157,0.035
					c-0.88,0-1.733-0.061-2.478-0.179c-0.39-0.062-0.846-0.155-1.27-0.292c1.046,1.861,3.069,3.125,5.388,3.125
					c2.855,0,5.262-1.916,5.95-4.504c-0.682,0.449-1.505,0.825-2.459,1.123C267.839,473.047,266.464,473.286,265.044,473.372z"/>
				<path id="XMLID_339_" style="fill:#A5B7C6;" d="M265.592,464.68c-3.352,0-6.08,2.666-6.08,5.943
					c0,0.426,0.046,0.849,0.137,1.261c0.673,0.483,2.706,0.89,5.348,0.731c2.879-0.173,5.297-0.957,6.672-2.159
					c-0.005-0.195-0.021-0.39-0.045-0.582C271.244,466.913,268.65,464.68,265.592,464.68z M263.432,471.194
					c-1.02,0-1.85-0.83-1.85-1.85c0-1.02,0.83-1.85,1.85-1.85c1.02,0,1.85,0.83,1.85,1.85
					C265.282,470.365,264.452,471.194,263.432,471.194z M268.17,470.286c-0.75,0-1.36-0.61-1.36-1.36s0.61-1.361,1.36-1.361
					c0.75,0,1.361,0.61,1.361,1.361S268.92,470.286,268.17,470.286z"/>
			</g>
			<path id="XMLID_336_" style="fill:#A5B7C6;" d="M281.595,466.547c-0.295-0.116-0.805-0.309-1.382-0.237
				c-0.551,0.069-0.844,0.341-0.844,1.007v0.866h2.228v1.717h-2.228v5.455h-1.932v-5.455h-1.34v-1.717h1.34v-0.888
				c0-1.68,0.896-2.783,2.568-2.783c0.643,0,1.157,0.122,1.59,0.308L281.595,466.547z"/>
			<path id="XMLID_334_" style="fill:#A5B7C6;" d="M286.298,469.879c-0.177-0.03-0.358-0.046-0.526-0.046
				c-0.896,0-1.51,0.548-1.51,1.614v3.908h-1.932v-7.172h1.873v0.785c0.451-0.673,1.14-0.977,2.021-0.977
				c0.414,0,0.848,0.128,1.094,0.337L286.298,469.879z"/>
			<path id="XMLID_331_" style="fill:#A5B7C6;" d="M293.965,471.757c0,0.222-0.015,0.489-0.037,0.651h-5.085
				c0.207,1.036,0.933,1.488,1.843,1.488c0.622,0,1.295-0.252,1.813-0.688l1.132,1.243c-0.814,0.748-1.85,1.088-3.057,1.088
				c-2.198,0-3.723-1.495-3.723-3.753c0-2.258,1.48-3.797,3.627-3.797C292.544,467.99,293.958,469.522,293.965,471.757z
				 M288.851,471.091h3.175c-0.177-0.918-0.733-1.436-1.562-1.436C289.554,469.655,289.021,470.203,288.851,471.091z"/>
			<path id="XMLID_328_" style="fill:#A5B7C6;" d="M301.618,471.757c0,0.222-0.015,0.489-0.037,0.651h-5.085
				c0.207,1.036,0.933,1.488,1.843,1.488c0.622,0,1.295-0.252,1.813-0.688l1.132,1.243c-0.814,0.748-1.85,1.088-3.057,1.088
				c-2.198,0-3.723-1.495-3.723-3.753c0-2.258,1.48-3.797,3.627-3.797C300.197,467.99,301.611,469.522,301.618,471.757z
				 M296.504,471.091h3.175c-0.178-0.918-0.733-1.436-1.562-1.436C297.207,469.655,296.674,470.203,296.504,471.091z"/>
			<path id="XMLID_325_" style="fill:#A5B7C6;" d="M309.964,471.764c0,2.154-1.495,3.775-3.471,3.775
				c-0.962,0-1.643-0.378-2.109-0.933v3.708h-1.924v-10.133h1.887v0.792c0.466-0.585,1.155-0.984,2.139-0.984
				C308.469,467.99,309.964,469.61,309.964,471.764z M304.287,471.764c0,1.132,0.747,1.976,1.843,1.976
				c1.14,0,1.85-0.881,1.85-1.976c0-1.095-0.71-1.976-1.85-1.976C305.035,469.788,304.287,470.632,304.287,471.764z"/>
			<path id="XMLID_322_" style="fill:#A5B7C6;" d="M313.068,465.836c0,0.696-0.54,1.229-1.236,1.229
				c-0.696,0-1.229-0.533-1.229-1.229c0-0.696,0.533-1.243,1.229-1.243C312.527,464.592,313.068,465.14,313.068,465.836z
				 M312.809,475.354h-1.932v-7.172h1.932V475.354z"/>
			<path id="XMLID_320_" style="fill:#A5B7C6;" d="M316.032,470.736l2.701-2.554h2.368l-3.479,3.375l3.501,3.797h-2.376
				l-2.716-2.901v2.901H314.1v-10.658h1.932V470.736z"/>
		</g>
		<g>
			<path style="fill:#A5B7C6;" d="M184.412,475.289v-1.055c-0.527,0.718-1.391,1.23-2.387,1.23c-1.846,0-3.149-1.406-3.149-3.706
				c0-2.256,1.289-3.721,3.149-3.721c0.952,0,1.816,0.469,2.387,1.245v-3.765h1.099v9.77H184.412z M184.412,473.37v-3.208
				c-0.395-0.615-1.245-1.143-2.124-1.143c-1.421,0-2.27,1.172-2.27,2.739c0,1.567,0.85,2.724,2.27,2.724
				C183.168,474.483,184.017,473.986,184.412,473.37z"/>
			<path style="fill:#A5B7C6;" d="M186.932,471.744c0-2.051,1.465-3.706,3.486-3.706c2.139,0,3.398,1.67,3.398,3.794v0.279h-5.727
				c0.088,1.333,1.025,2.446,2.549,2.446c0.805,0,1.626-0.322,2.182-0.894l0.527,0.718c-0.703,0.703-1.655,1.084-2.812,1.084
				C188.44,475.465,186.932,473.956,186.932,471.744z M190.403,468.947c-1.509,0-2.256,1.274-2.314,2.358h4.643
				C192.718,470.25,192.015,468.947,190.403,468.947z"/>
			<path style="fill:#A5B7C6;" d="M194.607,474.351l0.571-0.791c0.469,0.542,1.362,1.011,2.329,1.011c1.084,0,1.67-0.513,1.67-1.216
				c0-1.714-4.38-0.659-4.38-3.281c0-1.098,0.952-2.036,2.636-2.036c1.201,0,2.051,0.454,2.622,1.026l-0.513,0.762
				c-0.424-0.513-1.201-0.894-2.109-0.894c-0.967,0-1.567,0.483-1.567,1.113c0,1.552,4.38,0.527,4.38,3.281
				c0,1.187-0.952,2.138-2.783,2.138C196.306,475.465,195.325,475.113,194.607,474.351z"/>
			<path style="fill:#A5B7C6;" d="M201.477,466.471c0-0.41,0.337-0.747,0.732-0.747c0.41,0,0.747,0.337,0.747,0.747
				c0,0.41-0.337,0.732-0.747,0.732C201.814,467.203,201.477,466.881,201.477,466.471z M201.667,475.289v-7.075h1.099v7.075H201.667
				z"/>
			<path style="fill:#A5B7C6;" d="M204.582,477.105l0.556-0.82c0.586,0.703,1.289,0.967,2.3,0.967c1.172,0,2.27-0.571,2.27-2.124
				v-1.011c-0.513,0.718-1.377,1.26-2.373,1.26c-1.845,0-3.149-1.377-3.149-3.662c0-2.27,1.289-3.677,3.149-3.677
				c0.952,0,1.802,0.469,2.373,1.245v-1.069h1.098v6.87c0,2.344-1.641,3.076-3.369,3.076
				C206.237,478.16,205.417,477.926,204.582,477.105z M209.709,473.253v-3.091c-0.381-0.615-1.23-1.143-2.109-1.143
				c-1.421,0-2.27,1.128-2.27,2.695c0,1.553,0.849,2.695,2.27,2.695C208.478,474.41,209.328,473.868,209.709,473.253z"/>
			<path style="fill:#A5B7C6;" d="M217.413,475.289v-4.629c0-1.245-0.63-1.641-1.582-1.641c-0.865,0-1.685,0.527-2.095,1.099v5.17
				h-1.099v-7.075h1.099v1.025c0.498-0.586,1.465-1.201,2.519-1.201c1.48,0,2.256,0.747,2.256,2.285v4.966H217.413z"/>
			<path style="fill:#A5B7C6;" d="M219.932,471.744c0-2.051,1.465-3.706,3.486-3.706c2.139,0,3.398,1.67,3.398,3.794v0.279h-5.727
				c0.088,1.333,1.025,2.446,2.549,2.446c0.806,0,1.626-0.322,2.183-0.894l0.527,0.718c-0.703,0.703-1.655,1.084-2.812,1.084
				C221.441,475.465,219.932,473.956,219.932,471.744z M223.404,468.947c-1.509,0-2.256,1.274-2.314,2.358h4.643
				C225.718,470.25,225.015,468.947,223.404,468.947z"/>
			<path style="fill:#A5B7C6;" d="M233.35,475.289v-1.055c-0.527,0.718-1.392,1.23-2.388,1.23c-1.846,0-3.149-1.406-3.149-3.706
				c0-2.256,1.289-3.721,3.149-3.721c0.952,0,1.817,0.469,2.388,1.245v-3.765h1.098v9.77H233.35z M233.35,473.37v-3.208
				c-0.396-0.615-1.245-1.143-2.124-1.143c-1.421,0-2.27,1.172-2.27,2.739c0,1.567,0.849,2.724,2.27,2.724
				C232.105,474.483,232.954,473.986,233.35,473.37z"/>
			<path style="fill:#A5B7C6;" d="M239.692,475.289v-9.77h1.098v3.765c0.572-0.776,1.421-1.245,2.388-1.245
				c1.845,0,3.149,1.465,3.149,3.721c0,2.299-1.304,3.706-3.149,3.706c-0.996,0-1.86-0.513-2.388-1.23v1.055H239.692z
				 M242.9,474.483c1.436,0,2.285-1.157,2.285-2.724c0-1.568-0.85-2.739-2.285-2.739c-0.864,0-1.728,0.527-2.109,1.143v3.208
				C241.171,473.986,242.036,474.483,242.9,474.483z"/>
			<path style="fill:#A5B7C6;" d="M247.528,477.061c0.161,0.073,0.425,0.117,0.601,0.117c0.483,0,0.805-0.161,1.055-0.747
				l0.469-1.069l-2.959-7.148h1.187l2.358,5.8l2.344-5.8h1.201l-3.545,8.51c-0.425,1.025-1.143,1.421-2.08,1.435
				c-0.234,0-0.601-0.044-0.806-0.103L247.528,477.061z"/>
		</g>
	</g>
</g>
</svg>
