<?xml version="1.0" encoding="utf-8"?>
<!-- Generator: Adobe Illustrator 27.5.0, SVG Export Plug-In . SVG Version: 6.00 Build 0)  -->
<svg version="1.1" xmlns="http://www.w3.org/2000/svg" xmlns:xlink="http://www.w3.org/1999/xlink" x="0px" y="0px"
	 viewBox="0 0 500 500" style="enable-background:new 0 0 500 500;" xml:space="preserve">
<g id="BACKGROUND">
	<rect x="0" y="0" style="fill-rule:evenodd;clip-rule:evenodd;fill:#FFFFFF;" width="500" height="500"/>
</g>
<g id="OBJECTS">
	<g>
		<g>
			<g>
				<path style="fill-rule:evenodd;clip-rule:evenodd;fill:#E6E6E6;" d="M188.908,239.826c13.171,6.633,30.484,9.936,47.815,9.897
					c17.331-0.038,34.729-3.413,48.025-10.109c13.296-6.696,19.958-15.459,20.035-24.187c0.076-8.728-6.422-17.457-19.593-24.089
					c-13.171-6.633-30.541-9.926-47.872-9.887c-17.331,0.038-34.691,3.413-47.987,10.109c-13.296,6.696-20.015,15.449-20.092,24.177
					C169.162,224.465,175.737,233.193,188.908,239.826z"/>
				<path style="opacity:0.15;fill-rule:evenodd;clip-rule:evenodd;fill:#333333;" d="M266.96,191.132
					c8.247-16.375,12.353-37.901,12.305-59.448c-0.029-13.192-1.613-26.415-4.748-38.48l-75.364,76.276
					c1.983,7.601,4.582,14.741,7.798,21.127c8.325,16.53,19.208,24.884,30.059,24.98
					C247.861,215.682,258.713,207.507,266.96,191.132z"/>
				<path style="opacity:0.2;fill-rule:evenodd;clip-rule:evenodd;fill:#333333;" d="M206.709,71.553
					c-8.246,16.375-12.353,37.901-12.305,59.448c0.047,21.548,4.243,43.179,12.568,59.709c8.325,16.53,19.22,24.814,30.071,24.909
					c10.851,0.095,21.704-7.985,29.95-24.36c8.247-16.375,12.341-37.972,12.293-59.519c-0.047-21.548-4.243-43.131-12.568-59.661
					c-8.325-16.53-19.208-24.885-30.059-24.98C225.808,47.003,214.956,55.177,206.709,71.553z"/>
				<path style="opacity:0.2;fill-rule:evenodd;clip-rule:evenodd;fill:#333333;" d="M177.041,161.494
					c16.375,8.246,37.901,12.353,59.448,12.305c21.548-0.047,43.179-4.243,59.709-12.569c16.53-8.325,24.814-19.22,24.909-30.071
					s-7.985-21.703-24.36-29.95c-16.375-8.247-37.972-12.341-59.519-12.293c-21.548,0.047-43.131,4.243-59.661,12.569
					c-16.53,8.325-24.884,19.208-24.98,30.059C152.491,142.395,160.665,153.248,177.041,161.494z"/>
				<g>
					<defs>
						<circle id="SVGID_1_" cx="236.846" cy="131.358" r="84.906"/>
					</defs>
					<clipPath id="SVGID_00000165225223492085315890000000735893940448799119_">
						<use xlink:href="#SVGID_1_"  style="overflow:visible;opacity:0.2;"/>
					</clipPath>
					
						<rect x="151.94" y="46.452" style="opacity:0.5;clip-path:url(#SVGID_00000165225223492085315890000000735893940448799119_);fill-rule:evenodd;clip-rule:evenodd;fill:#FFCB00;" width="169.812" height="169.812"/>
				</g>
				<g>
					<defs>
						<circle id="SVGID_00000094578998400266820600000003180952184895522176_" cx="236.846" cy="131.358" r="84.906"/>
					</defs>
					<clipPath id="SVGID_00000008837594522189254490000012007020164879979191_">
						<use xlink:href="#SVGID_00000094578998400266820600000003180952184895522176_"  style="overflow:visible;opacity:0.5;"/>
					</clipPath>
					<g style="clip-path:url(#SVGID_00000008837594522189254490000012007020164879979191_);">
						
							<path style="fill-rule:evenodd;clip-rule:evenodd;fill:none;stroke:#294A91;stroke-width:3.8398;stroke-linecap:round;stroke-linejoin:round;stroke-miterlimit:22.9256;" d="
							M150.051,130.825l-0.004,0.191c-0.097,11.178,8.323,22.357,25.192,30.853c16.868,8.495,39.042,12.725,61.239,12.674
							c22.197-0.048,44.479-4.37,61.508-12.947c16.924-8.523,25.456-19.662,25.655-30.772"/>
						
							<path style="fill-rule:evenodd;clip-rule:evenodd;fill:none;stroke:#294A91;stroke-width:3.8398;stroke-linecap:round;stroke-linejoin:round;stroke-miterlimit:22.9256;" d="
							M237.381,44.555l-0.192-0.004c-11.179-0.097-22.359,8.324-30.855,25.194c-8.496,16.87-12.726,39.046-12.676,61.244
							c0.049,22.199,4.372,44.484,12.948,61.513c8.524,16.926,19.664,25.458,30.775,25.657"/>
					</g>
				</g>
				<path style="opacity:0.1;fill-rule:evenodd;clip-rule:evenodd;fill:#333333;" d="M199.152,169.481
					c11.719,2.906,24.524,4.347,37.336,4.318c21.548-0.047,43.179-4.243,59.709-12.569c16.53-8.325,24.814-19.22,24.909-30.071
					c0.095-10.851-7.985-21.704-24.36-29.95c-6.664-3.356-14.192-6.024-22.23-8.005L199.152,169.481z"/>
			</g>
			<g>
				<path style="fill-rule:evenodd;clip-rule:evenodd;fill:#FFE3D3;" d="M367.763,146.15c-2.056,4.928-11.129,10.638-15.44,13.355
					c-1.001-0.796-1.619-1.844-2.44-3.83c2.459-2.207,5.31-8.853,9.157-12.705C360.542,141.157,367.076,141.666,367.763,146.15z"/>
				<path style="fill-rule:evenodd;clip-rule:evenodd;fill:#33B3C4;" d="M350.303,120.938c-6.518,2.7,7.82,22.568,10.771,24.967
					c3.401,2.765,9.196,5.061,6.658-5.459C364.616,127.533,355.943,118.064,350.303,120.938z"/>
				<path style="fill-rule:evenodd;clip-rule:evenodd;fill:#4AC4D4;" d="M358.572,144.951c1.645,1.655,5.276,3.857,7.195,3.845
					c2.7-0.017,4.083-3.121,2.551-4.926c-1.096,0.729-8.238-1.636-9.615-3.647C358.145,139.408,358.208,144.585,358.572,144.951z"/>
				<path style="fill-rule:evenodd;clip-rule:evenodd;fill:#E6E6E6;" d="M341.396,221.444c-16.051,2.6-29.063,10.652-29.063,17.984
					s13.012,11.169,29.063,8.568c16.051-2.6,29.063-10.652,29.063-17.984C370.459,222.68,357.447,218.844,341.396,221.444z"/>
				<path style="fill-rule:evenodd;clip-rule:evenodd;fill:#FFFFFF;" d="M344.699,224.796c-2.131-0.752-7.521-2.006-9.276-0.376
					c-1.755,1.63-1.341,6.296,4.175,8.678c2.326,1.004,11.028,6.334,17.443,4.416c3.442-1.029,3.682-6.141,1.689-8.872
					C356.737,225.912,349.713,226.677,344.699,224.796z"/>
				<path style="fill-rule:evenodd;clip-rule:evenodd;fill:#394245;" d="M344.668,225.242c-2.131-0.752-7.521-2.005-9.276-0.376
					c-0.371,0.344-0.645,0.825-0.794,1.391c0.422,1.818,1.911,3.841,4.969,5.161c2.326,1.004,11.028,6,17.443,4.417
					c1.711-0.422,2.628-1.907,2.885-3.633c-0.161-1.145-0.57-2.254-1.197-3.112C356.706,226.358,349.682,227.123,344.668,225.242z"
					/>
				<path style="fill-rule:evenodd;clip-rule:evenodd;fill:#8673F0;" d="M358.652,156.926c2.702,2.732,3.64,11.34,3.563,13.563
					c-0.43,12.281-2.78,23.87-2.03,31.641c0.885,9.179,0.237,25.957-0.273,28.253c-2.041,3.317-8.164,5.613-14.798,0
					c0,0-0.255-5.613-0.766-14.288c-0.459-7.791-0.313-38.396-0.176-50.923C348.169,162.53,343.009,153.278,358.652,156.926z"/>
				<path style="fill-rule:evenodd;clip-rule:evenodd;fill:#FFFFFF;" d="M330.233,232.852c-2.131-0.751-7.521-2.006-9.276-0.376
					c-1.755,1.63-1.341,6.296,4.175,8.678c2.326,1.004,11.029,5.999,17.443,4.416c3.488-0.861,3.682-6.141,1.689-8.872
					C342.271,233.967,335.247,234.732,330.233,232.852z"/>
				<path style="fill-rule:evenodd;clip-rule:evenodd;fill:#394245;" d="M330.233,232.852c-2.131-0.752-7.521-2.006-9.276-0.376
					c-0.371,0.344-0.645,0.825-0.794,1.391c0.422,1.819,1.911,3.841,4.969,5.161c2.326,1.004,11.028,5.999,17.444,4.417
					c1.711-0.422,2.628-1.907,2.885-3.633c-0.16-1.145-0.57-2.254-1.197-3.112C342.271,233.967,335.247,234.732,330.233,232.852z"/>
				
					<line style="fill-rule:evenodd;clip-rule:evenodd;fill:none;stroke:#FFFFFF;stroke-width:0.5669;stroke-linecap:round;stroke-linejoin:round;stroke-miterlimit:22.9256;" x1="326.542" y1="232.367" x2="326.542" y2="237.119"/>
				
					<line style="fill-rule:evenodd;clip-rule:evenodd;fill:none;stroke:#FFFFFF;stroke-width:0.5669;stroke-linecap:round;stroke-linejoin:round;stroke-miterlimit:22.9256;" x1="329.182" y1="233.511" x2="329.182" y2="238.263"/>
				
					<line style="fill-rule:evenodd;clip-rule:evenodd;fill:none;stroke:#FFFFFF;stroke-width:0.5669;stroke-linecap:round;stroke-linejoin:round;stroke-miterlimit:22.9256;" x1="328.594" y1="233.546" x2="324.49" y2="235.94"/>
				
					<line style="fill-rule:evenodd;clip-rule:evenodd;fill:none;stroke:#FFFFFF;stroke-width:0.5669;stroke-linecap:round;stroke-linejoin:round;stroke-miterlimit:22.9256;" x1="330.618" y1="234.69" x2="326.513" y2="237.084"/>
				<path style="fill-rule:evenodd;clip-rule:evenodd;fill:#705ED9;" d="M346.195,231.421c2.398-8.285,3.173-14.489,2.887-21.146
					c-0.12-2.796-2.691-12.823-0.761-19.611c1.332-4.685,6.44-11.239,3.669-23.377C350.158,159.268,335.73,147.921,346.195,231.421z
					"/>
				<path style="fill-rule:evenodd;clip-rule:evenodd;fill:#A799F7;" d="M360.441,227.712c-0.095,1.256-0.195,2.164-0.29,2.593
					c-2.166,3.518-8.661,5.954-15.698,0c0,0-0.052-1.137-0.155-3.184C348.415,230.052,353.882,231.499,360.441,227.712z"/>
				<path style="fill-rule:evenodd;clip-rule:evenodd;fill:#8673F0;" d="M351.342,161.893c0.18,5.225,2.439,13.771-0.032,18.332
					c-5.525,10.199-6.161,24.049-5.592,29.961c0.885,9.179,0.237,25.957-0.273,28.254c-2.041,3.316-8.164,5.613-14.798,0
					c0,0-0.256-5.615-0.766-14.288c-0.458-7.79-2.209-49.847,4.812-62.805C339.089,158.711,347.552,158.247,351.342,161.893z"/>
				
					<rect x="339.42" y="112.083" transform="matrix(0.9981 -0.0614 0.0614 0.9981 -6.6084 21.3868)" style="fill-rule:evenodd;clip-rule:evenodd;fill:#D1B8AA;" width="10.035" height="12.12"/>
				<path style="fill-rule:evenodd;clip-rule:evenodd;fill:#218794;" d="M360.061,141.403c0.649-2.409,0.793-6.493-0.784-8.743
					C357.701,130.41,355.843,138.64,360.061,141.403z"/>
				<path style="fill-rule:evenodd;clip-rule:evenodd;fill:#33B3C4;" d="M329.443,128.846c-1.918,2.386,1.967,9.915,3.511,15.944
					c1.544,6.029-1.675,16.815-0.174,17.918c7.215,5.303,27.112,2.258,29.411-1.622c0.968-1.632-1.475-4.035-1.818-7.934
					c-0.342-3.9,0.077-13.668-1.097-20.492c-1.155-6.709-1.491-14.171-9.669-12.178c-4.314,2.028-6.433,1.617-9.98,1.439
					C336.227,123.908,331.362,126.46,329.443,128.846z"/>
				<path style="fill-rule:evenodd;clip-rule:evenodd;fill:#33B3C4;" d="M334.832,126.426c-6.204-3.36-12.651,18.095-12.746,21.897
					c-0.051,2.055-2.087,9.966,2.47,8.847c3.216-0.79,5.565-5.925,8.745-10.533C337.667,140.31,340.617,128.995,334.832,126.426z"/>
				<path style="fill-rule:evenodd;clip-rule:evenodd;fill:#FFE3D3;" d="M306.793,152.291c-2.423,0.126-3.761,0.024-5.675-0.891
					c-1.137-0.544-2.93-1.512-2.619-2.706c0.081-0.314,1.99,0.535,2.257,0.121c-1.725-0.4-2.557-1.203-2.156-2.49
					c0.117-0.377,1.064,0.581,2.962,0.799c-1.409-0.986-6.635-5.923,1.731-1.712c-1.665-1.239-2.719-4.051,1.939-1.631
					C309.89,146.202,310.771,151.798,306.793,152.291z"/>
				<path style="fill-rule:evenodd;clip-rule:evenodd;fill:#FFE3D3;" d="M324.42,157.436c-5.255,0.942-14.971-3.589-19.591-5.74
					c0.126-1.272,0.672-2.36,1.896-4.126c3.188,0.871,10.318-0.335,15.64,0.811C324.703,148.661,327.816,154.428,324.42,157.436z"/>
				<path style="fill-rule:evenodd;clip-rule:evenodd;fill:#FFFFFF;" d="M325.748,231.806c-1.934-0.247-3.866-0.189-4.791,0.669
					c-0.371,0.344-0.645,0.825-0.794,1.391c0.258,1.111,0.914,2.297,2.081,3.353C322.576,235.13,323.72,233.217,325.748,231.806z"/>
				<path style="fill-rule:evenodd;clip-rule:evenodd;fill:#A799F7;" d="M346.265,235.639c-0.095,1.256-0.195,2.164-0.29,2.593
					c-2.166,3.518-8.661,5.954-15.698,0c0,0-0.052-1.137-0.155-3.184C334.239,237.979,339.705,239.426,346.265,235.639z"/>
				<path style="fill-rule:evenodd;clip-rule:evenodd;fill:#FFE3D3;" d="M347.655,97.274c5.088,1.311,7.619,7.037,5.653,12.791
					c-1.966,5.753-9.456,8.899-14.543,7.589c-5.087-1.31-5.847-6.581-3.881-12.334C336.849,99.567,342.567,95.964,347.655,97.274z"
					/>
				<path style="fill-rule:evenodd;clip-rule:evenodd;fill:#294A91;" d="M339.147,106.325c-4.032-1.63-7.403-7.339-6.599-11.413
					c1.376-6.97,6.975-6.378,10.478-3.778c2.976,2.209,8.843,0.326,12.925,3.339c5.334,3.937,5.712,11.097,1.425,15.254
					c-4.803,4.657-4.689,9.895-8.484,10.3c-5.859,0.625-7.516-7.747-7.718-10.511C340.971,106.75,341.073,107.103,339.147,106.325z"
					/>
				<path style="fill-rule:evenodd;clip-rule:evenodd;fill:#FFE3D3;" d="M340.677,105.942c-0.823-0.092-1.601,0.814-1.738,2.024
					c-0.136,1.21,0.421,2.267,1.245,2.359c0.823,0.093,1.601-0.813,1.737-2.024C342.058,107.092,341.501,106.035,340.677,105.942z"
					/>
				<path style="fill-rule:evenodd;clip-rule:evenodd;fill:#4AC4D4;" d="M320.747,148.107c1.618,0.274,3.823,6.839,3.036,9.171
					c0.432,1.553,4.212-0.412,4.619-3.206c0.407-2.793-3.886-8.74-5.786-8.855C321.628,145.247,320.543,147.631,320.747,148.107z"/>
				<path style="fill-rule:evenodd;clip-rule:evenodd;fill:#218794;" d="M333.225,146.221c2.088-2.007,3.469-5.938,3.948-7.884
					C337.653,136.391,338.41,144.745,333.225,146.221z"/>
			</g>
		</g>
		<g>
			<path style="fill-rule:evenodd;clip-rule:evenodd;fill:#E6E6E6;" d="M439.663,411.365c13.643,1.674,24.703,8.083,24.703,14.316
				c0,6.232-11.06,9.928-24.703,8.254c-13.643-1.673-24.703-8.083-24.703-14.315C414.96,413.387,426.02,409.691,439.663,411.365z"/>
			<g>
				<path style="fill-rule:evenodd;clip-rule:evenodd;fill:#8673F0;" d="M443.92,416.79c-0.626,2.162-0.828,3.32-0.66,5.296
					c0.045,0.526-1.446,1.021-1.496,0.522c-0.133-1.334,0.275-2.664-1.237-3.44C439.271,418.524,443.718,414.911,443.92,416.79z"/>
				<path style="fill-rule:evenodd;clip-rule:evenodd;fill:#FFE3D3;" d="M434.192,421.009c1.125-1.17,2.341-4.727,2.971-6.483
					c0.631-1.756,5.492-3.242,6.078-0.991c0.585,2.251-3.781,6.888-5.087,7.878C436.848,422.404,433.471,423.124,434.192,421.009z"
					/>
				<path style="fill-rule:evenodd;clip-rule:evenodd;fill:#705ED9;" d="M434.121,421.036c-0.896,0.893-1.227,1.164-2.072,1.785
					c-0.845,0.621-0.872,2.115,2.434,1.709c3.307-0.406,4.227-2.092,5.544-4.114c1.317-2.022,4.38-2.275,4.248-4.852
					c-0.063-1.23-0.499-1.556-1.022-2.073c-0.365,2.086-3.768,4.935-5.249,6.563C436.536,421.669,434.887,421.756,434.121,421.036z"
					/>
				<path style="fill-rule:evenodd;clip-rule:evenodd;fill:#8673F0;" d="M454.315,420.948c-0.627,2.162-0.828,3.32-0.66,5.296
					c0.044,0.526-1.446,1.021-1.496,0.522c-0.133-1.334,0.275-2.664-1.237-3.44C449.666,422.682,454.113,419.07,454.315,420.948z"/>
				<path style="fill-rule:evenodd;clip-rule:evenodd;fill:#FFE3D3;" d="M444.587,425.166c1.125-1.17,2.341-4.727,2.971-6.483
					s5.492-3.242,6.078-0.991c0.585,2.251-3.781,6.888-5.087,7.879C447.244,426.562,443.867,427.282,444.587,425.166z"/>
				<path style="fill-rule:evenodd;clip-rule:evenodd;fill:#705ED9;" d="M444.516,425.194c-0.896,0.893-1.226,1.164-2.072,1.785
					c-0.845,0.621-0.872,2.115,2.434,1.709c3.307-0.406,4.228-2.092,5.544-4.114c1.316-2.022,4.379-2.275,4.247-4.852
					c-0.063-1.23-0.498-1.556-1.022-2.073c-0.365,2.086-3.768,4.935-5.249,6.563C446.932,425.827,445.283,425.914,444.516,425.194z"
					/>
				<path style="fill-rule:evenodd;clip-rule:evenodd;fill:#294A91;" d="M446.695,361.41c0.338,12.387-2.034,22.757-1.442,30.503
					c0.592,7.745-1.281,18.912-1.622,20.849c-2.397,1.029-5.63,1.057-7.125,0c-0.664-18.411-2.869-33.841-2.709-52.282
					C436.735,358.256,444.162,358.334,446.695,361.41z"/>
				<path style="fill-rule:evenodd;clip-rule:evenodd;fill:#1C3466;" d="M448.165,410.271c-6.103-16.991-6.031-38.922-5.726-45.786
					c0.112-2.53,2.82-4.544,3.851,1.19C448.056,375.497,450.572,393.899,448.165,410.271z"/>
				<path style="fill-rule:evenodd;clip-rule:evenodd;fill:#294A91;" d="M457.416,362.076c1.206,16.23-3.598,28.978-2.759,33.746
					c0.839,4.769,0.344,18.54,0.003,20.478c-1.697,1.246-5.67,2.121-7.979,0.619c-0.662-18.357-4.625-37.34-4.468-55.498
					C445.151,359.198,454.882,358.999,457.416,362.076z"/>
				<path style="fill-rule:evenodd;clip-rule:evenodd;fill:#FFDA45;" d="M419.667,334.246c6.954-0.444,12.503-0.651,17.01-4.517
					c3.409-2.924,3.93-6.847,2.434-8.449c-2.155-3.454-18.833,4.716-24.155,6.292C412.604,328.635,409.034,334.924,419.667,334.246z
					"/>
				<path style="fill-rule:evenodd;clip-rule:evenodd;fill:#FFDA45;" d="M397.273,314.96c2.832,4.822,7.005,9.033,14.345,16.483
					c4.326,4.391,11.173,5.289,3.78-5.271c-2.53-3.614-6.974-9.853-12.852-15.511C399.847,311.831,398.164,313.317,397.273,314.96z"
					/>
				<path style="fill-rule:evenodd;clip-rule:evenodd;fill:#FFDA45;" d="M434.99,320.687c0.871-0.384,2.437-0.755,4.667-2.458
					c-0.354,1.959-1.496,3.169-0.242,5.544c2.181-1.667,4.498-3.119,7.415-5.318c6.217,2.118,13.953,6.346,14.224,12.694
					c0.246,5.775-8.977,4.051-7.586,13.303c0.332,2.206,4.58,14.204,4.619,19.041c-4.239,2.925-14.946,3.75-24.827,0.254
					c-0.45-5.245,1.301-12.361,1.208-16.017c-0.194-7.644-4.003-5.807-4.566-11.236C429.583,333.408,432.398,324.163,434.99,320.687
					z"/>
				<path style="fill-rule:evenodd;clip-rule:evenodd;fill:#D1B8AA;" d="M434.99,320.687c0.299-0.133,2.486-1.115,2.905-1.18
					c0.918,1.193,0.98,1.633,2.238,3.061c2.18-1.667,3.515-2.021,6.432-4.22c0.952,0.389,3.851,1.471,4.739,1.954
					c-2.604,4.14-8.437,8.345-13.043,10.173C435.509,324.346,434.114,325.747,434.99,320.687z"/>
				<path style="fill-rule:evenodd;clip-rule:evenodd;fill:#D1B8AA;" d="M446.87,320.875c-3.675,0.484-7.351,5.875-10.818,5.875
					c0.724-5.63,0.267-11.109,0-16.047c3.468,0,7.35-0.207,10.818-0.207C447.813,315.762,447.833,315.433,446.87,320.875z"/>
				<path style="fill-rule:evenodd;clip-rule:evenodd;fill:#FFE3D3;" d="M441.002,291.783c8.687,0.121,14.501,5.959,15.26,12.749
					c0.759,6.79-9.296,14.337-15.181,14.337c-5.884,0-8.709-5.263-8.889-12.295C432.011,299.542,432.314,291.663,441.002,291.783z"
					/>
				<path style="fill-rule:evenodd;clip-rule:evenodd;fill:#33B3C4;" d="M433.124,301.894c0.823,2.204,2.732,6.059,6.413,6.984
					c3.681,0.926,1.087-2.706-0.543-4.585c-2.055-2.368,5.456,3.735,8.102,3.99c0.616,0.059,1.332-0.07,2.045-0.4
					c0.371,0.231,0.863,0.446,1.519,0.621c0.521,0.139-0.363,6.884-3.344,8.338c-0.05,1.105-0.113,1.375-0.17,1.907
					c5.486,1.98,9.628-1.556,10.394-3.551c0.624-1.623,0.242-3.362,1.268-5.806c1.068-2.544,2.871-4.047,2.987-7.565
					c0.091-2.765-1.398-7.183-6.466-10.3c-9.028-5.553-16.065,0.528-18.101,0.229c-9.596-1.41-11.867,10.828-5.118,14.386
					C433.624,306.94,432.369,299.872,433.124,301.894z"/>
				<path style="fill-rule:evenodd;clip-rule:evenodd;fill:#FFFFFF;" d="M434.964,321.079c-0.152,3.665,11.48,5.616,16.162-0.812
					c-0.211,5.102-8.186,10.282-13.331,12.409C434.096,329.242,434.014,326.759,434.964,321.079z"/>
				<g>
					<path style="fill-rule:evenodd;clip-rule:evenodd;fill:#FFE3D3;" d="M463.678,374.566c-1.71,4.263-2.297,2.843-1.495-0.154
						c-1.933,4.142-3.132,3.594-1.918-0.622c-1.621,3.379-4.222,3.489-0.43-3.032C464.305,363.069,466.025,368.717,463.678,374.566z
						"/>
					<path style="fill-rule:evenodd;clip-rule:evenodd;fill:#FFE3D3;" d="M461.537,369.191c0.173,0.35-0.355,1.093-1.18,1.659
						c-0.824,0.566-2.604,1.182-2.776,0.832c-0.172-0.35,1.328-1.534,2.152-2.1C460.556,369.015,461.364,368.84,461.537,369.191z"/>
				</g>
				<path style="fill-rule:evenodd;clip-rule:evenodd;fill:#FFDA45;" d="M466.558,369.843c0.628-6.843,4.585-8.633,2.526-21.867
					c-2.059-13.235-10.008-27.876-16.289-23.382c-4.537,2.956,8.29,22.13,10.26,27.059c1.97,4.929-3.274,10.042-3.393,16.816
					C460.799,370.074,464.834,370.678,466.558,369.843z"/>
				<path style="fill-rule:evenodd;clip-rule:evenodd;fill:#FFE3D3;" d="M450.929,310.759c0.936,0,1.699-1.122,1.699-2.497
					c0-1.375-0.763-2.497-1.699-2.497c-0.935,0-1.699,1.122-1.699,2.497C449.231,309.638,449.994,310.759,450.929,310.759z"/>
			</g>
			
				<ellipse transform="matrix(0.4341 -0.9009 0.9009 0.4341 -175.9859 546.2394)" style="fill-rule:evenodd;clip-rule:evenodd;fill:#E6E6E6;" cx="346.764" cy="413.189" rx="29.3" ry="110.722"/>
			<g>
				<g>
					<path style="fill-rule:evenodd;clip-rule:evenodd;fill:#FFE3D3;" d="M394.906,310.283c-3.152-3.34-1.618-3.277,0.767-1.292
						c-2.95-3.492-1.949-4.35,1.369-1.48c-2.388-2.889-1.397-5.296,2.933,0.881C405.079,315.673,399.231,314.866,394.906,310.283z"
						/>
					<path style="fill-rule:evenodd;clip-rule:evenodd;fill:#FFE3D3;" d="M400.683,310.593c-0.39,0.01-0.843-0.781-1.011-1.767
						c-0.168-0.986,0.019-2.86,0.409-2.869c0.39-0.01,0.836,1.849,1.004,2.834C401.254,309.776,401.074,310.583,400.683,310.593z"/>
				</g>
				<path style="fill-rule:evenodd;clip-rule:evenodd;fill:#8673F0;" d="M267.186,334.367c2.868,1.425,5.736,2.874,8.605,4.322
					c3.11-38.69,24.823-103.61,75.755-77.936c47.775,24.083,72.057,104.705,75.738,154.234c2.868,1.424,5.736,2.873,8.622,4.345
					c0,12.134,0,24.269,0,36.379c-56.23-28.341-112.478-56.646-168.72-84.964C267.186,358.635,267.186,346.501,267.186,334.367
					L267.186,334.367z M295.487,348.602c36.503,18.393,73.025,36.747,109.516,55.163c-3.532-34.759-22.46-96.419-55.961-113.294
					C313.872,272.755,298.612,321.019,295.487,348.602z"/>
				<polygon style="fill-rule:evenodd;clip-rule:evenodd;fill:#8673F0;" points="298.944,266.197 312.215,259.52 320.837,263.866 
					307.566,270.543 				"/>
				<polygon style="fill-rule:evenodd;clip-rule:evenodd;fill:#A191F7;" points="282.216,355.278 295.487,348.602 405.003,403.765 
					391.732,410.441 				"/>
				<polygon style="fill-rule:evenodd;clip-rule:evenodd;fill:#A191F7;" points="253.898,341.02 267.169,334.343 275.791,338.689 
					262.52,345.365 				"/>
				<path style="fill-rule:evenodd;clip-rule:evenodd;fill:#705ED9;" d="M253.915,341.043c2.868,1.425,5.736,2.874,8.605,4.322
					c3.109-38.69,24.823-103.61,75.755-77.936c47.775,24.083,72.057,104.706,75.738,154.233c2.868,1.424,5.737,2.873,8.622,4.346
					c0,12.134,0,24.268,0,36.379c-56.23-28.341-112.478-56.646-168.72-84.965C253.915,365.312,253.915,353.178,253.915,341.043
					L253.915,341.043z M282.216,355.278c36.503,18.393,73.025,36.747,109.516,55.163c-3.532-34.759-22.46-96.419-55.96-113.294
					C300.601,279.432,285.341,327.695,282.216,355.278z"/>
				<polygon style="fill-rule:evenodd;clip-rule:evenodd;fill:#8673F0;" points="422.635,462.388 435.906,455.711 435.906,419.332 
					422.635,426.009 				"/>
				<polygon style="fill-rule:evenodd;clip-rule:evenodd;fill:#A191F7;" points="414.013,421.663 427.284,414.986 435.906,419.332 
					422.635,426.009 				"/>
				<path style="fill-rule:evenodd;clip-rule:evenodd;fill:#FFCB00;" d="M259.376,380.17l1.718,0.865v-10.414l-1.718-0.865V380.17
					L259.376,380.17z M263.415,382.204l1.718,0.865v-6.483l-1.718-0.865V382.204L263.415,382.204z M267.23,384.125l1.718,0.865
					v-6.483l-1.718-0.865V384.125L267.23,384.125z M271.044,386.046l1.718,0.865v-6.483l-1.718-0.865V386.046L271.044,386.046z
					 M274.858,387.967l1.718,0.865v-6.483l-1.718-0.865V387.967L274.858,387.967z M278.673,389.888l1.718,0.865v-10.414
					l-1.718-0.865V389.888L278.673,389.888z M282.712,391.922l1.718,0.865v-6.483l-1.718-0.865V391.922L282.712,391.922z
					 M286.526,393.843l1.718,0.865v-6.482l-1.718-0.865V393.843L286.526,393.843z M290.34,395.763l1.718,0.865v-6.483l-1.718-0.865
					V395.763L290.34,395.763z M294.154,397.684l1.718,0.865v-6.483l-1.718-0.865V397.684L294.154,397.684z M297.969,399.605
					l1.718,0.865v-10.414l-1.718-0.865V399.605L297.969,399.605z M302.008,401.639l1.718,0.865v-6.483l-1.718-0.865V401.639
					L302.008,401.639z M305.822,403.56l1.718,0.865v-6.483l-1.718-0.865V403.56L305.822,403.56z M309.637,405.481l1.718,0.865
					v-6.483l-1.718-0.865V405.481L309.637,405.481z M313.451,407.401l1.718,0.865v-6.483l-1.718-0.865V407.401L313.451,407.401z
					 M317.265,409.322l1.718,0.865v-10.414l-1.718-0.865V409.322L317.265,409.322z M321.304,411.356l1.718,0.865v-6.483
					l-1.718-0.865V411.356L321.304,411.356z M325.118,413.277l1.718,0.865v-6.482l-1.718-0.865V413.277L325.118,413.277z
					 M328.932,415.198l1.718,0.865v-6.483l-1.718-0.865V415.198L328.932,415.198z M332.747,417.119l1.718,0.865v-6.482l-1.718-0.865
					V417.119L332.747,417.119z M336.561,419.04l1.718,0.865V409.49l-1.718-0.865V419.04L336.561,419.04z M340.6,421.074l1.718,0.865
					v-6.483l-1.718-0.865V421.074L340.6,421.074z M344.414,422.994l1.718,0.865v-6.483l-1.718-0.865V422.994L344.414,422.994z
					 M348.229,424.915l1.718,0.865v-6.483l-1.718-0.865V424.915L348.229,424.915z M352.043,426.836l1.718,0.865v-6.483l-1.718-0.865
					V426.836L352.043,426.836z M355.857,428.757l1.718,0.865v-10.414l-1.718-0.865V428.757L355.857,428.757z M359.896,430.791
					l1.718,0.865v-6.483l-1.718-0.865V430.791L359.896,430.791z M363.71,432.712l1.718,0.865v-6.482l-1.718-0.865V432.712
					L363.71,432.712z M367.525,434.632l1.718,0.865v-6.482l-1.718-0.865V434.632L367.525,434.632z M371.339,436.553l1.718,0.865
					v-6.483l-1.718-0.865V436.553L371.339,436.553z M375.154,438.474l1.718,0.865v-10.414l-1.718-0.865V438.474L375.154,438.474z
					 M379.192,440.508l1.718,0.865v-6.483l-1.718-0.865V440.508L379.192,440.508z M383.007,442.429l1.718,0.865v-6.483l-1.718-0.865
					V442.429L383.007,442.429z M386.821,444.35l1.718,0.865v-6.482l-1.718-0.865V444.35L386.821,444.35z M390.635,446.271
					l1.718,0.865v-6.483l-1.718-0.865V446.271L390.635,446.271z M394.45,448.191l1.718,0.865v-10.415l-1.718-0.865V448.191
					L394.45,448.191z M398.488,450.225l1.718,0.865v-6.483l-1.718-0.865V450.225L398.488,450.225z M402.303,452.146l1.718,0.865
					v-6.483l-1.718-0.865V452.146L402.303,452.146z M406.117,454.067l1.718,0.865v-6.483l-1.718-0.865V454.067L406.117,454.067z
					 M409.932,455.988l1.718,0.865v-6.483l-1.718-0.865V455.988L409.932,455.988z M413.746,457.909l1.718,0.865v-10.414
					l-1.718-0.865V457.909z"/>
			</g>
		</g>
		<g>
			<path style="fill-rule:evenodd;clip-rule:evenodd;fill:#E6E6E6;" d="M160.325,422.642c-13.643,1.674-24.703,8.083-24.703,14.315
				c0,6.233,11.06,9.928,24.703,8.255c13.643-1.674,24.703-8.083,24.703-14.315C185.028,424.664,173.968,420.969,160.325,422.642z"
				/>
			<path style="fill-rule:evenodd;clip-rule:evenodd;fill:#E6E6E6;" d="M76.828,434.96c13.171,2.309,30.484-0.072,47.815-5.801
				c17.331-5.728,34.729-14.815,48.025-25.876c13.296-11.061,19.958-22.011,20.035-30.764c0.076-8.753-6.422-15.348-19.593-17.657
				c-13.171-2.309-30.541,0.101-47.872,5.83c-17.331,5.728-34.691,14.802-47.987,25.863c-13.296,11.061-20.015,22.02-20.092,30.773
				C57.082,426.081,63.657,432.651,76.828,434.96z"/>
			<g>
				<g>
					<polygon style="fill-rule:evenodd;clip-rule:evenodd;fill:#41C1D1;" points="52.108,343.353 164.451,277.209 203.179,299.258 
						90.836,365.4 					"/>
					<polygon style="fill-rule:evenodd;clip-rule:evenodd;fill:#33B3C4;" points="52.108,343.353 90.836,365.4 91.294,386.261 
						52.565,364.213 					"/>
					<polygon style="fill-rule:evenodd;clip-rule:evenodd;fill:#60D8E8;" points="203.179,299.258 90.836,365.4 91.294,386.261 
						203.636,320.118 					"/>
				</g>
				
					<path style="fill-rule:evenodd;clip-rule:evenodd;fill:none;stroke:#FFCB00;stroke-width:2.3998;stroke-linecap:round;stroke-linejoin:round;stroke-miterlimit:22.9256;" d="
					M182.801,261.235c13.268-2.037,19.249,15.165,18.163,36.248"/>
				<path style="fill-rule:evenodd;clip-rule:evenodd;fill:#FFDA45;" d="M185.035,256.724c-1.577-1.18-3.205-0.172-3.636,2.252
					c-0.431,2.423,0.498,5.344,2.075,6.524c1.577,1.18,3.205,0.172,3.636-2.252C187.541,260.825,186.612,257.904,185.035,256.724z"
					/>
				<polygon style="fill-rule:evenodd;clip-rule:evenodd;fill:#FFDA45;" points="184.659,265.988 174.446,264.044 182.678,256.572 
									"/>
				<g>
					<polygon style="fill-rule:evenodd;clip-rule:evenodd;fill:#41C1D1;" points="121.328,249.395 140.046,238.358 178.775,260.407 
						160.056,271.442 					"/>
					<polygon style="fill-rule:evenodd;clip-rule:evenodd;fill:#33B3C4;" points="121.327,249.395 160.056,271.442 106.644,429.712 
						67.915,407.664 					"/>
					<polygon style="fill-rule:evenodd;clip-rule:evenodd;fill:#60D8E8;" points="178.775,260.406 160.056,271.442 106.644,429.712 
						125.363,418.677 					"/>
				</g>
				<polygon style="fill-rule:evenodd;clip-rule:evenodd;fill:#41C1D1;" points="52.108,343.353 98.92,315.79 137.648,337.839 
					90.836,365.4 				"/>
				<polygon style="fill-rule:evenodd;clip-rule:evenodd;fill:#60D8E8;" points="203.179,299.258 90.836,365.4 91.294,386.261 
					203.636,320.118 				"/>
				<polygon style="fill-rule:evenodd;clip-rule:evenodd;fill:#FFDA45;" points="146.875,272.833 157.271,272.81 150.602,281.705 
									"/>
				<path style="fill-rule:evenodd;clip-rule:evenodd;fill:#E8BA03;" d="M148.259,282.001c1.772,0.86,3.18-0.438,3.145-2.9
					c-0.036-2.461-1.5-5.154-3.272-6.014c-1.772-0.86-3.179,0.438-3.144,2.899C145.022,278.449,146.488,281.141,148.259,282.001z"/>
				
					<path style="fill-rule:evenodd;clip-rule:evenodd;fill:none;stroke:#FFCB00;stroke-width:2.3998;stroke-linecap:round;stroke-linejoin:round;stroke-miterlimit:22.9256;" d="
					M147.959,277.799c-20.59,13.825-52.221,48.059-57.297,85.179"/>
				
					<text transform="matrix(1 0 0 1 85.5338 316.7749)" style="fill:#294A91; font-family:'BloggerSans-Bold'; font-size:26.6664px;">a</text>
				
					<text transform="matrix(1 0 0 1 202.2262 270.4888)" style="fill:#294A91; font-family:'BloggerSans-Bold'; font-size:26.6664px;">b</text>
			</g>
			<g>
				<path style="fill-rule:evenodd;clip-rule:evenodd;fill:#FFE3D3;" d="M181.712,371.133c0.02,1.528-0.031,2.413-0.917,3.414
					c-0.401,0.453-0.763,0.759-1.417,0.301c-0.294,1.076-0.919,1.933-1.72,1.649c-0.234-0.083,0.492-1.009,0.675-2.198
					c-0.772,1.873-4.05,5.427-1.035-1.131c-0.82,1.018-2.616,1.612-0.979-1.26C177.956,369.036,181.5,368.618,181.712,371.133z"/>
				<path style="fill-rule:evenodd;clip-rule:evenodd;fill:#FFE3D3;" d="M185.761,351.789c-0.78,3.592-3.003,18.86-4.993,19.014
					c-1.104,0.527-1.146,0.826-1.723-0.281c-1.408-0.812,0.313-16.37,1.706-20.77C181.899,346.131,186.679,347.564,185.761,351.789z
					"/>
				<path style="fill-rule:evenodd;clip-rule:evenodd;fill:#8673F0;" d="M186.655,349.655c0.362,3.708-1.175,8.47-2.137,10.553
					c-1.064,0.142-4.504-0.28-5.666-1.455c-0.177-4.477,0.075-6.076,0.715-9.087C180.642,345.968,186.131,344.293,186.655,349.655z"
					/>
				<path style="fill-rule:evenodd;clip-rule:evenodd;fill:#8673F0;" d="M172.777,327.685c-6.354,3.59,8.817,26.702,12.676,25.677
					C190.693,351.031,180.314,323.427,172.777,327.685z"/>
				<path style="fill-rule:evenodd;clip-rule:evenodd;fill:#EBCAB7;" d="M158.215,327.489c-2.562,1.258-6.766,5.25-6.766,5.25
					s4.623,8.719,11.924,7.546c7.3-1.173,11.993-7.691,11.993-7.691s-4.814-3.78-8.96-5.157
					C162.261,326.059,160.002,326.06,158.215,327.489z"/>
				<rect x="158.215" y="316.428" style="fill-rule:evenodd;clip-rule:evenodd;fill:#EBCAB7;" width="8.191" height="11.366"/>
				<path style="fill-rule:evenodd;clip-rule:evenodd;fill:#FFE3D3;" d="M163.225,387.36c0,5.098,0.537,15.831,0.805,21.197
					c0.268,5.366,1.294,15.462-1.61,19.05c-2.656,3.282-4.114,3.026-5.044,3.383c-0.93,0.357-1.445,2.498,1.965,2.963
					c3.411,0.465,4.689-0.235,6.507-1.777c1.818-1.542,4.886-0.359,5.43-3.183c0.544-2.824-1.55-2.17-1.085-7.596
					c0.465-5.426,2.326-9.611,1.085-14.882c-1.24-5.271,1.642-16.333,1.642-23.464S163.992,378.301,163.225,387.36z"/>
				<path style="fill-rule:evenodd;clip-rule:evenodd;fill:#294A91;" d="M171.173,429.125c-0.966,2.13-1.346,3.32-1.471,5.543
					c-0.033,0.591-1.633,0.578-1.609,0.014c0.064-1.508,0.682-2.81-0.749-4.221C166.155,429.289,171.249,426.996,171.173,429.125z"
					/>
				<path style="fill-rule:evenodd;clip-rule:evenodd;fill:#294A91;" d="M159.899,430.035c-1.111,0.531-1.506,0.665-2.496,0.93
					c-0.99,0.264-1.472,2.523,1.939,2.988c3.411,0.465,4.689-0.235,6.507-1.777c1.818-1.542,4.886-0.359,5.43-3.183
					c0.259-1.349-0.082-1.905-0.46-2.708c-0.903,2.063-4.982,3.501-6.858,4.543C162.1,431.861,160.461,431.17,159.899,430.035z"/>
				<path style="fill-rule:evenodd;clip-rule:evenodd;fill:#294A91;" d="M159.823,432.489c-0.902,2.158-1.247,3.359-1.305,5.585
					c-0.016,0.592-1.615,0.626-1.608,0.061c0.019-1.509,0.597-2.829-0.874-4.196C154.813,432.803,159.835,430.359,159.823,432.489z"
					/>
				<path style="fill-rule:evenodd;clip-rule:evenodd;fill:#FFE3D3;" d="M152.225,391.526c0,5.098,0.537,15.831,0.805,21.197
					c0.268,5.366,1.294,15.462-1.61,19.05c-2.656,3.282-4.114,3.026-5.044,3.383c-0.93,0.357-1.446,2.498,1.965,2.962
					c3.411,0.465,4.689-0.234,6.507-1.777c1.818-1.543,4.886-0.359,5.43-3.183c0.544-2.825-1.55-2.171-1.085-7.596
					c0.465-5.425,2.326-9.611,1.085-14.882c-1.24-5.271,2.945-15.812,2.945-22.943S152.992,382.467,152.225,391.526z"/>
				<path style="fill-rule:evenodd;clip-rule:evenodd;fill:#294A91;" d="M148.899,434.2c-1.111,0.531-1.506,0.665-2.497,0.93
					c-0.991,0.265-1.472,2.524,1.939,2.988c3.411,0.465,4.689-0.234,6.507-1.777c1.818-1.543,4.886-0.359,5.43-3.183
					c0.259-1.349-0.082-1.905-0.46-2.708c-0.903,2.063-4.982,3.501-6.857,4.543C151.1,436.027,149.461,435.336,148.899,434.2z"/>
				<path style="fill-rule:evenodd;clip-rule:evenodd;fill:#294A91;" d="M152.816,360.927c-1.575,5.983-2.14,28.506-6.191,33.184
					c7.146,3.512,21.142,3.619,30.775-2.76c-0.755-3.149-2.044-13.674-1.227-18.188c0.727-4.016,0.434-12.309-1.535-17.345
					C174.295,354.937,155.885,352.728,152.816,360.927z"/>
				<path style="fill-rule:evenodd;clip-rule:evenodd;fill:#8673F0;" d="M154.185,328.756c-4.124,3.027-2.622,4.979-3.228,12.09
					c-0.516,6.048,4.885,10.839,0.809,20.514c5.468,2.079,23.468,0.844,25.712-2.727c-2.839-2.815-3.804-12.703-2.178-19.143
					c1.165-4.615,6.495-13.825-4.171-12.474C170.325,329.013,160.569,330.052,154.185,328.756z"/>
				<path style="fill-rule:evenodd;clip-rule:evenodd;fill:#FFE3D3;" d="M166.311,298.49c5.671,1.534,8.424,7.971,6.148,14.378
					c-2.276,6.407-10.693,9.823-16.364,8.29c-5.671-1.534-6.449-7.437-4.173-13.844C154.197,300.907,160.64,296.957,166.311,298.49z
					"/>
				<path style="fill-rule:evenodd;clip-rule:evenodd;fill:#FFE3D3;" d="M132.755,333.905c-2.659-2.537-14.533-12.39-13.628-14.169
					c0.126-1.217-0.108-1.409,1.138-1.324c1.427-0.779,13.81,8.797,16.838,12.278C139.596,333.556,135.883,336.889,132.755,333.905z
					"/>
				<path style="fill-rule:evenodd;clip-rule:evenodd;fill:#8673F0;" d="M134.111,335.779c-3.354-1.623-6.617-5.416-7.894-7.323
					c0.433-0.982,2.586-3.698,4.194-4.078c3.913,2.181,5.147,3.23,7.383,5.345C140.39,332.568,138.96,338.126,134.111,335.779z"/>
				<path style="fill-rule:evenodd;clip-rule:evenodd;fill:#8673F0;" d="M159.692,332.613c0.247-7.294-26.984-3.619-28.12,0.209
					C130.833,338.509,159.4,341.265,159.692,332.613z"/>
				<path style="fill-rule:evenodd;clip-rule:evenodd;fill:#394245;" d="M157.809,298.24c5.344-2.751,13.556-0.439,15.915,6.061
					c0.452,1.247-0.13,5.442,0.494,7.363c1.819,5.592,5.038,4.448,4.86,8.564c-0.419,9.658-20.576,11.395-23.793,5.393
					c-2.779-5.185,4.186-6.014,1.921-12.419c-0.401-1.135-6.496-2.553-8.483-6.64C146.973,302.962,148.643,296.407,157.809,298.24z"
					/>
				<g>
					<path style="fill-rule:evenodd;clip-rule:evenodd;fill:#FFE3D3;" d="M114.689,317.48c-3.152-3.34-1.618-3.277,0.767-1.292
						c-2.95-3.492-1.949-4.35,1.369-1.48c-2.388-2.888-1.397-5.296,2.933,0.881C124.862,322.87,119.014,322.063,114.689,317.48z"/>
					<path style="fill-rule:evenodd;clip-rule:evenodd;fill:#FFE3D3;" d="M120.466,317.79c-0.39,0.01-0.843-0.781-1.011-1.767
						c-0.168-0.986,0.019-2.86,0.409-2.869c0.39-0.01,0.836,1.849,1.004,2.834C121.037,316.973,120.857,317.78,120.466,317.79z"/>
				</g>
			</g>
		</g>
		<g>
			<path style="fill-rule:evenodd;clip-rule:evenodd;fill:#E6E6E6;" d="M79.824,213.018c-18.954,10.139-34.319,24.158-34.319,31.311
				c0,7.153,15.365,4.732,34.319-5.407c18.954-10.139,34.318-24.158,34.318-31.311C114.142,200.458,98.778,202.879,79.824,213.018z"
				/>
			<g>
				<g>
					<polygon style="fill-rule:evenodd;clip-rule:evenodd;fill:#A191F7;" points="88.499,174.147 101.179,166.798 113.863,174.14 
						101.182,181.489 					"/>
					<polygon style="fill-rule:evenodd;clip-rule:evenodd;fill:#33B3C4;" points="88.499,174.147 101.182,181.489 101.083,195.383 
						88.4,188.041 					"/>
					<polygon style="fill-rule:evenodd;clip-rule:evenodd;fill:#8673F0;" points="113.866,174.147 101.182,181.489 101.083,195.383 
						113.767,188.041 					"/>
				</g>
				<g>
					<polygon style="fill-rule:evenodd;clip-rule:evenodd;fill:#A191F7;" points="75.818,181.497 88.499,174.147 101.182,181.49 
						88.502,188.839 					"/>
					<polygon style="fill-rule:evenodd;clip-rule:evenodd;fill:#33B3C4;" points="75.818,181.497 88.502,188.839 88.403,202.733 
						75.719,195.391 					"/>
					<polygon style="fill-rule:evenodd;clip-rule:evenodd;fill:#8673F0;" points="101.186,181.497 88.502,188.839 88.403,202.733 
						101.086,195.391 					"/>
				</g>
				<g>
					<polygon style="fill-rule:evenodd;clip-rule:evenodd;fill:#41C1D1;" points="63.134,188.839 75.815,181.489 88.499,188.832 
						75.818,196.181 					"/>
					<polygon style="fill-rule:evenodd;clip-rule:evenodd;fill:#33B3C4;" points="63.134,188.839 75.818,196.181 75.719,210.075 
						63.035,202.733 					"/>
					<polygon style="fill-rule:evenodd;clip-rule:evenodd;fill:#8673F0;" points="88.502,188.839 75.818,196.181 75.719,210.075 
						88.403,202.733 					"/>
				</g>
				<g>
					<polygon style="fill-rule:evenodd;clip-rule:evenodd;fill:#41C1D1;" points="50.256,223.977 62.937,216.627 75.62,223.969 
						62.94,231.318 					"/>
					<polygon style="fill-rule:evenodd;clip-rule:evenodd;fill:#33B3C4;" points="50.256,223.977 62.94,231.318 62.841,245.212 
						50.157,237.87 					"/>
					<polygon style="fill-rule:evenodd;clip-rule:evenodd;fill:#60D8E8;" points="75.624,223.977 62.94,231.318 62.841,245.212 
						75.524,237.87 					"/>
				</g>
				<g>
					<polygon style="fill-rule:evenodd;clip-rule:evenodd;fill:#A191F7;" points="63.134,188.839 75.815,181.489 88.499,188.832 
						75.818,196.181 					"/>
					<polygon style="fill-rule:evenodd;clip-rule:evenodd;fill:#705ED9;" points="63.134,188.839 75.818,196.181 62.84,245.212 
						50.157,237.87 					"/>
					<polygon style="fill-rule:evenodd;clip-rule:evenodd;fill:#8673F0;" points="88.502,188.839 75.818,196.181 62.84,245.212 
						75.524,237.87 					"/>
				</g>
				<g>
					<polygon style="fill-rule:evenodd;clip-rule:evenodd;fill:#A191F7;" points="37.773,203.538 50.454,196.188 63.138,203.531 
						50.457,210.88 					"/>
					<polygon style="fill-rule:evenodd;clip-rule:evenodd;fill:#705ED9;" points="37.773,203.538 50.457,210.88 62.84,245.212 
						50.157,237.87 					"/>
					<polygon style="fill-rule:evenodd;clip-rule:evenodd;fill:#8673F0;" points="63.141,203.538 50.457,210.88 62.84,245.212 
						75.524,237.87 					"/>
				</g>
			</g>
		</g>
		<g>
			<path style="fill-rule:evenodd;clip-rule:evenodd;fill:#E6E6E6;" d="M429.333,230.703c18.954,10.139,34.319,24.158,34.319,31.311
				c0,7.153-15.365,4.732-34.319-5.407c-18.954-10.14-34.319-24.158-34.319-31.311C395.014,218.143,410.379,220.564,429.333,230.703
				z"/>
			<g>
				<polygon style="fill-rule:evenodd;clip-rule:evenodd;fill:#41C1D1;" points="408.757,226.285 421.438,218.935 462.906,198.986 
					450.225,206.336 				"/>
				<polygon style="fill-rule:evenodd;clip-rule:evenodd;fill:#33B3C4;" points="408.757,226.285 450.225,206.336 450.127,220.229 
					408.658,240.179 				"/>
			</g>
			<polygon style="fill-rule:evenodd;clip-rule:evenodd;fill:#60D8E8;" points="462.91,198.994 450.225,206.336 450.127,220.229 
				462.81,212.887 			"/>
			<g>
				<path style="fill-rule:evenodd;clip-rule:evenodd;fill:#4AC4D4;" d="M453.089,226.113c-2.803-0.847-5.658-0.469-8.001,0.821
					c-2.345,1.291-4.187,3.499-4.964,6.314c-0.778,2.821-0.343,5.717,0.984,8.116c1.326,2.399,3.551,4.309,6.354,5.153
					c2.804,0.847,5.658,0.473,8.002-0.815c2.344-1.289,4.185-3.499,4.962-6.317c0.776-2.815,0.346-5.713-0.982-8.114
					C458.118,228.875,455.892,226.961,453.089,226.113z"/>
				<polygon style="fill-rule:evenodd;clip-rule:evenodd;fill:#4AC4D4;" points="445.384,226.763 432.7,234.104 443.076,252.873 
					455.76,245.53 				"/>
				<path style="fill-rule:evenodd;clip-rule:evenodd;fill:#33B3C4;" d="M441.104,233.073c-2.803-0.847-5.658-0.469-8.001,0.821
					c-2.345,1.29-4.187,3.496-4.964,6.314c-0.777,2.818-0.343,5.717,0.984,8.116c1.327,2.399,3.551,4.308,6.354,5.153
					c2.803,0.846,5.658,0.473,8.002-0.815c2.344-1.288,4.186-3.501,4.962-6.317c0.777-2.816,0.346-5.712-0.982-8.114
					C446.133,235.835,443.907,233.921,441.104,233.073z"/>
			</g>
			<g>
				<path style="fill-rule:evenodd;clip-rule:evenodd;fill:#4AC4D4;" d="M434.499,187.637c-2.803-0.847-5.658-0.469-8.001,0.821
					c-2.345,1.291-4.187,3.499-4.964,6.314c-0.778,2.821-0.343,5.717,0.984,8.116c1.326,2.399,3.551,4.309,6.354,5.153
					c2.804,0.847,5.658,0.473,8.002-0.815c2.344-1.289,4.185-3.499,4.962-6.317c0.776-2.815,0.345-5.713-0.982-8.114
					C439.528,190.399,437.301,188.484,434.499,187.637z"/>
				<polygon style="fill-rule:evenodd;clip-rule:evenodd;fill:#4AC4D4;" points="426.794,188.286 414.11,195.628 424.486,214.396 
					437.17,207.053 				"/>
				<path style="fill-rule:evenodd;clip-rule:evenodd;fill:#33B3C4;" d="M422.514,194.597c-2.803-0.847-5.658-0.468-8.001,0.821
					c-2.345,1.29-4.186,3.496-4.964,6.314c-0.777,2.818-0.343,5.717,0.984,8.116c1.327,2.399,3.551,4.307,6.354,5.153
					c2.803,0.846,5.659,0.473,8.002-0.815c2.344-1.288,4.186-3.501,4.962-6.317c0.777-2.816,0.345-5.712-0.982-8.114
					C427.543,197.359,425.317,195.444,422.514,194.597z"/>
			</g>
		</g>
	</g>
</g>
<g id="DESIGNED_BY_FREEPIK">
	<g>
		<g>
			<g>
				<path style="fill-rule:evenodd;clip-rule:evenodd;fill:#1D262D;" d="M260.104,466.469c-0.432,0.443-0.803,0.931-1.109,1.453
					l-0.465-0.241c-0.067-0.298-0.349-0.502-0.659-0.466c-0.331,0.039-0.567,0.339-0.529,0.67c0.039,0.331,0.339,0.568,0.67,0.529
					c0.065-0.008,0.127-0.026,0.184-0.052l0.451,0.234c-0.251,0.554-0.433,1.139-0.539,1.744l0.746,0.132
					c0.23-1.306,0.85-2.507,1.792-3.472L260.104,466.469z"/>
				<path style="fill-rule:evenodd;clip-rule:evenodd;fill:#1D262D;" d="M265.592,464.167c-0.171,0-0.341,0.006-0.51,0.017
					l-0.073-0.626c0.187-0.149,0.296-0.389,0.266-0.645c-0.046-0.393-0.402-0.674-0.795-0.628c-0.393,0.046-0.674,0.403-0.628,0.795
					c0.03,0.254,0.189,0.461,0.404,0.564l0.073,0.624c-0.714,0.116-1.403,0.332-2.06,0.646l0.327,0.684
					c0.934-0.447,1.942-0.673,2.995-0.673c0.497,0,0.993,0.053,1.475,0.158l0.16-0.741
					C266.692,464.226,266.142,464.167,265.592,464.167z"/>
				<path style="fill-rule:evenodd;clip-rule:evenodd;fill:#1D262D;" d="M272.194,466.714c0.331-0.04,0.566-0.342,0.526-0.672
					c-0.04-0.331-0.341-0.566-0.672-0.526c-0.309,0.038-0.535,0.304-0.53,0.609l-0.416,0.363c-0.418-0.43-0.889-0.813-1.408-1.139
					l-0.404,0.641c1.134,0.715,2.021,1.726,2.563,2.925l0.691-0.312c-0.251-0.554-0.568-1.072-0.942-1.545l0.402-0.351
					C272.065,466.719,272.129,466.722,272.194,466.714z"/>
				<path style="fill-rule:evenodd;clip-rule:evenodd;fill:#1D262D;" d="M265.044,474.375c-0.386,0.023-0.775,0.035-1.157,0.035
					c-0.88,0-1.733-0.061-2.479-0.179c-0.39-0.062-0.846-0.155-1.27-0.292c1.046,1.861,3.069,3.125,5.388,3.125
					c2.856,0,5.262-1.916,5.95-4.504c-0.682,0.449-1.505,0.826-2.458,1.122C267.839,474.051,266.463,474.29,265.044,474.375z"/>
				<path style="fill-rule:evenodd;clip-rule:evenodd;fill:#1D262D;" d="M265.592,465.683c-3.352,0-6.079,2.666-6.079,5.944
					c0,0.425,0.046,0.849,0.137,1.261c0.673,0.483,2.705,0.89,5.347,0.731c2.879-0.173,5.297-0.958,6.672-2.159
					c-0.005-0.195-0.021-0.39-0.045-0.582C271.244,467.917,268.65,465.683,265.592,465.683L265.592,465.683z M263.432,472.198
					L263.432,472.198c-1.02,0-1.85-0.83-1.85-1.85s0.83-1.85,1.85-1.85c1.02,0,1.85,0.83,1.85,1.85S264.452,472.198,263.432,472.198
					L263.432,472.198z M268.17,471.29L268.17,471.29c-0.75,0-1.36-0.61-1.36-1.36c0-0.75,0.61-1.361,1.36-1.361
					c0.75,0,1.361,0.61,1.361,1.361C269.53,470.68,268.92,471.29,268.17,471.29z"/>
			</g>
			<path style="fill-rule:evenodd;clip-rule:evenodd;fill:#1D262D;" d="M281.595,467.55c-0.295-0.116-0.806-0.309-1.383-0.237
				c-0.551,0.069-0.844,0.34-0.844,1.007v0.866h2.228v1.717h-2.228v5.455h-1.932v-5.455h-1.34v-1.717h1.34v-0.888
				c0-1.68,0.896-2.783,2.568-2.783c0.643,0,1.157,0.122,1.59,0.308L281.595,467.55z"/>
			<path style="fill-rule:evenodd;clip-rule:evenodd;fill:#1D262D;" d="M286.298,470.882c-0.177-0.03-0.358-0.046-0.526-0.046
				c-0.896,0-1.51,0.548-1.51,1.613v3.908h-1.932v-7.172h1.873v0.785c0.452-0.674,1.14-0.977,2.02-0.977
				c0.415,0,0.848,0.128,1.095,0.337L286.298,470.882z"/>
			<path style="fill-rule:evenodd;clip-rule:evenodd;fill:#1D262D;" d="M293.965,472.76c0,0.222-0.015,0.489-0.037,0.651h-5.085
				c0.207,1.036,0.933,1.488,1.843,1.488c0.622,0,1.295-0.252,1.813-0.688l1.132,1.243c-0.814,0.748-1.85,1.088-3.057,1.088
				c-2.198,0-3.723-1.495-3.723-3.753c0-2.258,1.48-3.797,3.627-3.797C292.544,468.993,293.958,470.525,293.965,472.76
				L293.965,472.76z M288.851,472.094L288.851,472.094h3.175c-0.178-0.918-0.733-1.436-1.562-1.436
				C289.554,470.658,289.021,471.206,288.851,472.094z"/>
			<path style="fill-rule:evenodd;clip-rule:evenodd;fill:#1D262D;" d="M301.618,472.76c0,0.222-0.015,0.489-0.037,0.651h-5.085
				c0.207,1.036,0.932,1.488,1.843,1.488c0.622,0,1.296-0.252,1.813-0.688l1.132,1.243c-0.814,0.748-1.85,1.088-3.057,1.088
				c-2.198,0-3.723-1.495-3.723-3.753c0-2.258,1.48-3.797,3.627-3.797C300.197,468.993,301.611,470.525,301.618,472.76
				L301.618,472.76z M296.504,472.094L296.504,472.094h3.175c-0.178-0.918-0.733-1.436-1.562-1.436
				C297.207,470.658,296.674,471.206,296.504,472.094z"/>
			<path style="fill-rule:evenodd;clip-rule:evenodd;fill:#1D262D;" d="M309.964,472.768c0,2.154-1.495,3.775-3.471,3.775
				c-0.962,0-1.643-0.378-2.109-0.933v3.708h-1.924v-10.132h1.887v0.792c0.466-0.585,1.155-0.984,2.139-0.984
				C308.469,468.993,309.964,470.614,309.964,472.768L309.964,472.768z M304.287,472.768L304.287,472.768
				c0,1.132,0.747,1.976,1.843,1.976c1.14,0,1.85-0.881,1.85-1.976c0-1.096-0.711-1.976-1.85-1.976
				C305.035,470.792,304.287,471.636,304.287,472.768z"/>
			<path style="fill-rule:evenodd;clip-rule:evenodd;fill:#1D262D;" d="M313.068,466.839c0,0.696-0.54,1.229-1.236,1.229
				c-0.696,0-1.229-0.533-1.229-1.229c0-0.696,0.533-1.243,1.229-1.243C312.527,465.596,313.068,466.144,313.068,466.839
				L313.068,466.839z M312.808,476.358L312.808,476.358h-1.932v-7.172h1.932V476.358z"/>
			<polygon style="fill-rule:evenodd;clip-rule:evenodd;fill:#1D262D;" points="316.032,471.739 318.734,469.186 321.102,469.186 
				317.623,472.56 321.124,476.358 318.748,476.358 316.032,473.456 316.032,476.358 314.1,476.358 314.1,465.699 316.032,465.699 
							"/>
		</g>
		<g>
			<path style="fill-rule:evenodd;clip-rule:evenodd;fill:#1D262D;" d="M184.412,476.293v-1.055c-0.527,0.718-1.391,1.23-2.387,1.23
				c-1.846,0-3.149-1.406-3.149-3.706c0-2.256,1.289-3.721,3.149-3.721c0.952,0,1.816,0.469,2.387,1.245v-3.765h1.099v9.77H184.412
				L184.412,476.293z M184.412,474.374L184.412,474.374v-3.208c-0.395-0.615-1.245-1.143-2.124-1.143
				c-1.421,0-2.27,1.172-2.27,2.739c0,1.567,0.85,2.724,2.27,2.724C183.168,475.487,184.017,474.989,184.412,474.374z"/>
			<path style="fill-rule:evenodd;clip-rule:evenodd;fill:#1D262D;" d="M186.932,472.748c0-2.051,1.465-3.706,3.486-3.706
				c2.139,0,3.398,1.67,3.398,3.794v0.278h-5.727c0.088,1.333,1.026,2.446,2.549,2.446c0.806,0,1.626-0.322,2.182-0.893l0.527,0.718
				c-0.703,0.703-1.655,1.084-2.812,1.084C188.44,476.468,186.932,474.96,186.932,472.748L186.932,472.748z M190.403,469.95
				L190.403,469.95c-1.509,0-2.256,1.274-2.314,2.358h4.644C192.718,471.254,192.015,469.95,190.403,469.95z"/>
			<path style="fill-rule:evenodd;clip-rule:evenodd;fill:#1D262D;" d="M194.607,475.355l0.571-0.791
				c0.469,0.542,1.362,1.011,2.329,1.011c1.084,0,1.67-0.513,1.67-1.216c0-1.714-4.38-0.659-4.38-3.281
				c0-1.098,0.952-2.036,2.636-2.036c1.201,0,2.051,0.454,2.622,1.026l-0.513,0.762c-0.424-0.513-1.201-0.893-2.109-0.893
				c-0.967,0-1.567,0.483-1.567,1.113c0,1.552,4.38,0.527,4.38,3.281c0,1.187-0.952,2.138-2.783,2.138
				C196.306,476.468,195.325,476.117,194.607,475.355z"/>
			<path style="fill-rule:evenodd;clip-rule:evenodd;fill:#1D262D;" d="M201.477,467.475c0-0.41,0.337-0.747,0.732-0.747
				c0.41,0,0.747,0.337,0.747,0.747c0,0.41-0.337,0.732-0.747,0.732C201.814,468.207,201.477,467.885,201.477,467.475
				L201.477,467.475z M201.667,476.293L201.667,476.293v-7.075h1.099v7.075H201.667z"/>
			<path style="fill-rule:evenodd;clip-rule:evenodd;fill:#1D262D;" d="M204.582,478.109l0.557-0.82
				c0.586,0.703,1.289,0.967,2.3,0.967c1.172,0,2.271-0.571,2.271-2.124v-1.011c-0.512,0.718-1.377,1.26-2.373,1.26
				c-1.845,0-3.149-1.377-3.149-3.662c0-2.27,1.289-3.677,3.149-3.677c0.952,0,1.802,0.469,2.373,1.245v-1.07h1.098v6.87
				c0,2.344-1.641,3.076-3.369,3.076C206.237,479.164,205.417,478.929,204.582,478.109L204.582,478.109z M209.709,474.257
				L209.709,474.257v-3.091c-0.381-0.615-1.231-1.143-2.109-1.143c-1.421,0-2.27,1.128-2.27,2.695c0,1.553,0.849,2.695,2.27,2.695
				C208.478,475.414,209.328,474.872,209.709,474.257z"/>
			<path style="fill-rule:evenodd;clip-rule:evenodd;fill:#1D262D;" d="M217.413,476.293v-4.629c0-1.245-0.63-1.64-1.582-1.64
				c-0.864,0-1.685,0.527-2.094,1.099v5.17h-1.099v-7.075h1.099v1.026c0.498-0.586,1.465-1.201,2.519-1.201
				c1.48,0,2.256,0.747,2.256,2.285v4.966H217.413z"/>
			<path style="fill-rule:evenodd;clip-rule:evenodd;fill:#1D262D;" d="M219.933,472.748c0-2.051,1.465-3.706,3.486-3.706
				c2.138,0,3.398,1.67,3.398,3.794v0.278h-5.727c0.088,1.333,1.025,2.446,2.549,2.446c0.806,0,1.626-0.322,2.183-0.893l0.527,0.718
				c-0.703,0.703-1.655,1.084-2.812,1.084C221.441,476.468,219.933,474.96,219.933,472.748L219.933,472.748z M223.404,469.95
				L223.404,469.95c-1.509,0-2.256,1.274-2.314,2.358h4.643C225.719,471.254,225.015,469.95,223.404,469.95z"/>
			<path style="fill-rule:evenodd;clip-rule:evenodd;fill:#1D262D;" d="M233.35,476.293v-1.055c-0.527,0.718-1.392,1.23-2.388,1.23
				c-1.845,0-3.149-1.406-3.149-3.706c0-2.256,1.289-3.721,3.149-3.721c0.952,0,1.817,0.469,2.388,1.245v-3.765h1.098v9.77H233.35
				L233.35,476.293z M233.35,474.374L233.35,474.374v-3.208c-0.396-0.615-1.245-1.143-2.124-1.143c-1.421,0-2.27,1.172-2.27,2.739
				c0,1.567,0.849,2.724,2.27,2.724C232.105,475.487,232.954,474.989,233.35,474.374z"/>
			<path style="fill-rule:evenodd;clip-rule:evenodd;fill:#1D262D;" d="M239.692,476.293v-9.77h1.099v3.765
				c0.572-0.776,1.421-1.245,2.388-1.245c1.845,0,3.149,1.465,3.149,3.721c0,2.299-1.304,3.706-3.149,3.706
				c-0.996,0-1.86-0.512-2.388-1.23v1.055H239.692L239.692,476.293z M242.9,475.487L242.9,475.487c1.436,0,2.285-1.157,2.285-2.724
				c0-1.568-0.85-2.739-2.285-2.739c-0.864,0-1.728,0.527-2.109,1.143v3.208C241.172,474.989,242.036,475.487,242.9,475.487z"/>
			<path style="fill-rule:evenodd;clip-rule:evenodd;fill:#1D262D;" d="M247.529,478.065c0.161,0.073,0.425,0.117,0.601,0.117
				c0.483,0,0.805-0.161,1.055-0.747l0.469-1.069l-2.959-7.148h1.187l2.358,5.801l2.343-5.801h1.201l-3.544,8.511
				c-0.425,1.025-1.143,1.421-2.08,1.435c-0.234,0-0.601-0.044-0.806-0.103L247.529,478.065z"/>
		</g>
	</g>
</g>
</svg>
