<?xml version="1.0" encoding="utf-8"?>
<!-- Generator: Adobe Illustrator 27.5.0, SVG Export Plug-In . SVG Version: 6.00 Build 0)  -->
<svg version="1.1" xmlns="http://www.w3.org/2000/svg" xmlns:xlink="http://www.w3.org/1999/xlink" x="0px" y="0px"
	 viewBox="0 0 500 500" style="enable-background:new 0 0 500 500;" xml:space="preserve">
<g id="BACKGROUND">
	<g>
		<rect style="fill:#FFFFFF;" width="500" height="500"/>
	</g>
</g>
<g id="OBJECTS">
	<path style="fill:#DFE6EE;" d="M462.593,273.542c-2.577-20.613-9.904-40.618-21.45-57.814
		c-22.339-33.271-53.624-57.973-80.156-87.224c-24.501-27.012-47.433-56.66-82.081-69.515
		c-41.558-15.419-87.855-1.793-117.693,31.689c-28.863,32.388-43.367,75.274-68.958,110.184
		c-20.765,28.328-47.5,57.353-48.338,95.192c-0.769,34.769,18.822,65.832,43.895,86.878c40.229,33.767,90.715,44.806,140.905,48.829
		c67.289,5.395,146.531,0.775,198.057-51.102C454.02,353.232,467.51,312.87,462.593,273.542z"/>
	<g>
		<path style="fill:#4C5980;" d="M285.392,263.876c0.015-3.78-0.366-7.534-0.645-11.301c-0.267-3.612-0.616-7.201-1.054-10.796
			c-0.456-3.737-0.849-7.463-1.4-11.191c-0.552-3.735-1.161-7.461-1.82-11.178c-1.287-7.251-2.721-14.463-4.398-21.635
			c-1.405-6.01-3.486-12.482-8.433-16.544c-4.645-3.814-10.753-4.052-16.015-1.34c-5.682,2.928-9.157,8.691-11.546,14.401
			c-2.721,6.504-4.57,13.363-5.651,20.321c-1.079,6.937-1.688,13.938-2.155,20.94c-0.461,6.904-1.169,13.845-1.265,20.764
			c-0.098,7.094-0.161,14.181-0.034,21.276c0.124,6.897,0.727,13.774,1.488,20.626c0.749,6.74,1.834,13.545,3.609,20.095
			c1.81,6.68,3.807,13.265,6.436,19.676c1.006,2.451,2.059,5.294,3.462,7.886c0.699,1.647,1.698,3.055,2.926,4.199
			c1.064,1.136,2.289,2.083,3.732,2.724c1.553,0.69,3.225,0.962,4.846,0.697c5.254,0.186,10.277-2.711,13.818-6.426
			c4.551-4.775,6.558-10.978,8.128-17.239c1.791-7.144,3.138-14.306,4.049-21.615c0.923-7.402,1.569-14.784,1.887-22.238
			C285.671,278.604,285.362,271.246,285.392,263.876z M281.622,293.325c-0.447,6.949-1.097,13.901-2.125,20.789
			c-0.995,6.665-1.71,13.47-3.632,19.948c-1.69,5.696-4.458,11.425-9.303,15.087c-4.362,3.296-10.17,3.998-15.038,1.434
			c-0.516-0.272-1.02-0.581-1.506-0.918c-1.938-2.182-3.114-4.964-4.204-7.637c-2.408-5.904-4.371-11.986-5.933-18.166
			c-3.134-12.401-4.773-25.226-5.466-37.984c-0.711-13.098-0.379-26.181,0.27-39.272c0.321-6.48,0.786-12.943,1.217-19.416
			c0.443-6.64,1.134-13.24,2.406-19.775c0.636-3.267,1.278-6.404,2.38-9.558c1.061-3.036,2.321-6.024,3.995-8.777
			c3.166-5.209,8.437-9.749,14.88-9.498c6.281,0.245,10.508,5.766,12.399,11.245c1.056,3.06,1.641,6.26,2.254,9.43
			c0.654,3.388,1.264,6.784,1.879,10.18c2.494,13.771,4.117,27.697,5.152,41.647c0.509,6.859,0.811,13.763,0.912,20.638
			C282.258,279.58,282.062,286.48,281.622,293.325z"/>
		<path style="fill:#4C5980;" d="M271.062,241.799c-3.188-2.031-6.566-3.714-9.9-5.489c-3.197-1.703-6.418-3.324-9.692-4.873
			c-3.403-1.61-6.763-3.267-10.21-4.791c-3.453-1.527-6.928-3.002-10.423-4.429c-6.818-2.783-13.682-5.421-20.641-7.833
			c-5.832-2.021-12.415-3.717-18.492-1.703c-5.705,1.891-9.167,6.928-9.684,12.826c-0.558,6.368,2.46,12.383,6.012,17.451
			c4.046,5.774,8.859,10.999,14.164,15.628c5.29,4.616,10.884,8.869,16.555,13.002c5.591,4.076,11.082,8.381,16.882,12.156
			c5.946,3.871,11.905,7.707,17.971,11.388c5.898,3.578,12.034,6.74,18.235,9.754c6.099,2.965,12.432,5.681,18.918,7.678
			c6.615,2.036,13.249,3.864,20.073,5.063c2.61,0.459,5.575,1.086,8.516,1.283c1.766,0.288,3.49,0.195,5.112-0.232
			c1.529-0.293,2.983-0.823,4.296-1.701c1.413-0.945,2.536-2.213,3.177-3.725c2.962-4.344,3.195-10.137,1.944-15.115
			c-1.607-6.397-5.781-11.406-10.237-16.076c-5.084-5.328-10.421-10.292-16.114-14.964c-5.766-4.732-11.663-9.22-17.796-13.469
			C283.664,249.426,277.278,245.76,271.062,241.799z M293.949,260.71c5.637,4.088,11.168,8.349,16.443,12.896
			c5.104,4.4,10.476,8.637,14.927,13.722c3.913,4.47,7.28,9.869,7.789,15.921c0.458,5.448-2.05,10.734-6.816,13.48
			c-0.505,0.291-1.036,0.553-1.58,0.783c-2.88,0.474-5.86-0.017-8.702-0.522c-6.277-1.116-12.468-2.703-18.528-4.683
			c-12.159-3.971-23.878-9.432-35.035-15.658c-11.455-6.392-22.339-13.658-33.062-21.196c-5.308-3.732-10.524-7.575-15.767-11.396
			c-5.378-3.919-10.589-8.028-15.436-12.593c-2.423-2.282-4.732-4.5-6.811-7.115c-2.001-2.518-3.854-5.179-5.289-8.064
			c-2.714-5.458-3.738-12.339-0.086-17.652c3.561-5.18,10.486-5.806,16.128-4.48c3.151,0.741,6.169,1.955,9.177,3.13
			c3.214,1.256,6.411,2.553,9.611,3.847c12.975,5.244,25.617,11.307,37.965,17.88c6.071,3.231,12.07,6.662,17.937,10.248
			C282.667,252.834,288.396,256.683,293.949,260.71z"/>
		<path style="fill:#4C5980;" d="M226.818,253.628c-6.133,4.249-12.03,8.736-17.796,13.469c-5.693,4.673-11.03,9.636-16.114,14.964
			c-4.456,4.671-8.63,9.679-10.237,16.076c-1.251,4.978-1.018,10.771,1.944,15.115c0.641,1.512,1.764,2.78,3.176,3.725
			c1.313,0.878,2.767,1.408,4.296,1.701c1.623,0.427,3.346,0.52,5.112,0.232c2.941-0.197,5.907-0.824,8.516-1.283
			c6.825-1.199,13.459-3.027,20.073-5.063c6.486-1.996,12.819-4.713,18.918-7.678c6.201-3.015,12.337-6.176,18.235-9.754
			c6.066-3.681,12.025-7.517,17.971-11.388c5.799-3.775,11.29-8.08,16.882-12.156c5.671-4.133,11.265-8.386,16.555-13.002
			c5.305-4.629,10.118-9.854,14.164-15.628c3.552-5.068,6.569-11.083,6.012-17.451c-0.516-5.898-3.979-10.935-9.684-12.826
			c-6.077-2.014-12.66-0.318-18.492,1.703c-6.959,2.412-13.823,5.049-20.641,7.833c-3.495,1.427-6.97,2.902-10.423,4.429
			c-3.447,1.524-6.807,3.181-10.21,4.791c-3.274,1.549-6.494,3.17-9.692,4.873c-3.334,1.775-6.712,3.458-9.9,5.489
			C239.27,245.76,232.884,249.426,226.818,253.628z M239.733,249.257c5.867-3.586,11.866-7.017,17.937-10.248
			c12.349-6.573,24.99-12.636,37.965-17.88c3.199-1.293,6.396-2.591,9.61-3.847c3.008-1.175,6.026-2.389,9.177-3.13
			c5.642-1.326,12.567-0.7,16.128,4.48c3.652,5.313,2.628,12.194-0.086,17.652c-1.435,2.885-3.288,5.546-5.289,8.064
			c-2.078,2.615-4.388,4.833-6.811,7.115c-4.847,4.565-10.058,8.674-15.436,12.593c-5.243,3.821-10.459,7.664-15.767,11.396
			c-10.722,7.538-21.607,14.804-33.061,21.196c-11.158,6.226-22.876,11.687-35.035,15.658c-6.06,1.979-12.251,3.566-18.528,4.683
			c-2.842,0.505-5.822,0.996-8.702,0.522c-0.544-0.231-1.075-0.492-1.58-0.783c-4.767-2.747-7.275-8.032-6.816-13.48
			c0.509-6.052,3.876-11.451,7.789-15.921c4.451-5.085,9.824-9.322,14.927-13.722c5.275-4.547,10.806-8.808,16.443-12.896
			C228.151,256.683,233.881,252.834,239.733,249.257z"/>
		<path style="fill:#7991D1;" d="M331.892,287.951c0.015-0.151,0.027-0.303,0.02-0.454c0-0.073,0.013-0.131,0.009-0.209
			c-0.07-0.516-0.139-1.033-0.208-1.549c-0.15-0.481-0.346-0.945-0.587-1.392c-0.296-0.399-0.6-0.792-0.912-1.18
			c-0.727-0.722-1.585-1.222-2.572-1.499c-0.531-0.095-1.067-0.176-1.605-0.216c-0.02-0.001-0.04-0.002-0.06,0
			c-0.547,0.033-1.091,0.122-1.63,0.219c-0.019,0.003-0.037,0.008-0.056,0.013c-0.514,0.16-1.004,0.395-1.49,0.627
			c-0.016,0.008-0.031,0.016-0.046,0.026c-0.434,0.297-0.845,0.629-1.25,0.966c-0.007,0.006-0.015,0.013-0.021,0.02
			c-0.319,0.413-0.638,0.826-0.957,1.239c-0.206,0.487-0.411,0.975-0.617,1.462c-0.073,0.542-0.146,1.085-0.219,1.627
			c0.073,0.543,0.146,1.085,0.219,1.627l0.617,1.462c0.319,0.413,0.638,0.826,0.957,1.239c0.413,0.319,0.826,0.638,1.239,0.957
			c0.703,0.447,1.461,0.689,2.276,0.726c0.542,0.146,1.085,0.146,1.627,0c0.552-0.002,1.067-0.141,1.545-0.418
			c0.518-0.145,0.968-0.408,1.35-0.787c0.46-0.272,0.826-0.638,1.098-1.098c0.379-0.382,0.642-0.832,0.787-1.351
			c0.277-0.477,0.416-0.992,0.418-1.545c0.017-0.064,0.013-0.128,0.026-0.193C331.868,288.171,331.881,288.06,331.892,287.951z"/>
		<path style="fill:#7991D1;" d="M192.147,240.162c0.011-0.109,0.02-0.218,0.014-0.327c0-0.053,0.009-0.094,0.007-0.151
			c-0.05-0.372-0.1-0.744-0.15-1.117c-0.108-0.346-0.249-0.681-0.423-1.003c-0.214-0.288-0.433-0.571-0.657-0.85
			c-0.524-0.521-1.142-0.881-1.854-1.08c-0.383-0.068-0.769-0.127-1.157-0.155c-0.014-0.001-0.029-0.001-0.044,0
			c-0.394,0.024-0.786,0.088-1.175,0.157c-0.014,0.002-0.027,0.006-0.04,0.01c-0.37,0.116-0.724,0.285-1.074,0.452
			c-0.011,0.005-0.022,0.012-0.033,0.019c-0.313,0.214-0.609,0.453-0.901,0.696c-0.005,0.005-0.011,0.009-0.015,0.014
			c-0.23,0.298-0.46,0.595-0.69,0.893c-0.148,0.351-0.296,0.703-0.445,1.054c-0.053,0.391-0.105,0.782-0.158,1.173
			c0.053,0.391,0.105,0.782,0.158,1.173l0.445,1.054c0.23,0.298,0.46,0.595,0.69,0.893c0.298,0.23,0.595,0.46,0.893,0.69
			c0.506,0.322,1.053,0.497,1.64,0.524c0.391,0.105,0.782,0.105,1.173,0c0.398-0.001,0.769-0.102,1.113-0.301
			c0.374-0.105,0.698-0.294,0.973-0.567c0.332-0.196,0.595-0.46,0.791-0.791c0.273-0.275,0.462-0.6,0.567-0.973
			c0.2-0.344,0.3-0.715,0.301-1.113c0.012-0.046,0.009-0.092,0.019-0.139C192.129,240.321,192.139,240.241,192.147,240.162z"/>
		<path style="fill:#7991D1;" d="M274.374,267.565c0.039-0.395,0.071-0.79,0.051-1.185c0-0.192,0.033-0.341,0.024-0.545
			c-0.181-1.346-0.362-2.693-0.543-4.04c-0.391-1.254-0.902-2.463-1.531-3.63c-0.773-1.04-1.565-2.066-2.377-3.076
			c-1.896-1.883-4.131-3.186-6.706-3.908c-1.385-0.248-2.782-0.459-4.186-0.562c-0.052-0.004-0.105-0.005-0.158-0.001
			c-1.426,0.086-2.844,0.318-4.251,0.57c-0.049,0.009-0.097,0.02-0.145,0.035c-1.34,0.418-2.618,1.029-3.884,1.636
			c-0.041,0.02-0.081,0.042-0.119,0.068c-1.133,0.774-2.204,1.64-3.259,2.518c-0.02,0.016-0.038,0.034-0.056,0.052
			c-0.832,1.077-1.664,2.153-2.496,3.23c-0.536,1.271-1.073,2.541-1.609,3.812c-0.19,1.414-0.38,2.829-0.57,4.243
			c0.19,1.414,0.38,2.828,0.57,4.243l1.609,3.813c0.832,1.077,1.664,2.153,2.496,3.23c1.077,0.832,2.153,1.664,3.23,2.496
			c1.832,1.166,3.81,1.797,5.934,1.894c1.414,0.38,2.829,0.38,4.243,0c1.44-0.005,2.783-0.368,4.028-1.09
			c1.352-0.379,2.525-1.063,3.521-2.052c1.199-0.71,2.153-1.664,2.863-2.863c0.989-0.996,1.673-2.169,2.052-3.521
			c0.722-1.244,1.085-2.587,1.089-4.027c0.045-0.167,0.033-0.335,0.068-0.502C274.311,268.138,274.345,267.848,274.374,267.565z"/>
		<path style="fill:#7991D1;" d="M280.287,336.69c0.011-0.112,0.02-0.224,0.014-0.336c0-0.054,0.009-0.097,0.007-0.155
			c-0.051-0.382-0.103-0.764-0.154-1.147c-0.111-0.356-0.256-0.699-0.435-1.03c-0.219-0.295-0.444-0.586-0.675-0.873
			c-0.538-0.534-1.173-0.904-1.903-1.109c-0.393-0.07-0.79-0.13-1.188-0.159c-0.015-0.001-0.03-0.001-0.045,0
			c-0.405,0.025-0.807,0.09-1.207,0.162c-0.014,0.002-0.028,0.006-0.041,0.01c-0.38,0.119-0.743,0.292-1.102,0.464
			c-0.012,0.006-0.023,0.012-0.034,0.019c-0.321,0.22-0.625,0.465-0.925,0.715c-0.006,0.005-0.011,0.01-0.016,0.015
			c-0.236,0.306-0.472,0.611-0.708,0.917c-0.152,0.361-0.304,0.721-0.457,1.082c-0.054,0.401-0.108,0.803-0.162,1.204
			c0.054,0.401,0.108,0.803,0.162,1.204l0.457,1.082c0.236,0.306,0.472,0.611,0.708,0.917c0.306,0.236,0.611,0.472,0.917,0.708
			c0.52,0.331,1.081,0.51,1.684,0.538c0.401,0.108,0.803,0.108,1.204,0c0.409-0.001,0.79-0.104,1.143-0.309
			c0.384-0.108,0.717-0.302,0.999-0.582c0.34-0.201,0.611-0.472,0.813-0.813c0.281-0.283,0.475-0.616,0.582-1
			c0.205-0.353,0.308-0.734,0.309-1.143c0.013-0.048,0.009-0.095,0.019-0.143C280.269,336.853,280.279,336.771,280.287,336.69z"/>
		<path style="fill:#7991D1;" d="M248.159,194.019c0.018-0.176,0.032-0.353,0.023-0.529c0-0.085,0.015-0.152,0.01-0.243
			c-0.081-0.601-0.162-1.203-0.242-1.804c-0.175-0.56-0.403-1.1-0.684-1.621c-0.345-0.465-0.699-0.923-1.061-1.374
			c-0.847-0.841-1.845-1.423-2.995-1.745c-0.619-0.111-1.243-0.205-1.869-0.251c-0.023-0.002-0.047-0.002-0.07-0.001
			c-0.637,0.039-1.27,0.142-1.898,0.254c-0.022,0.004-0.044,0.009-0.065,0.016c-0.598,0.187-1.169,0.46-1.734,0.731
			c-0.018,0.009-0.036,0.019-0.053,0.03c-0.506,0.346-0.984,0.732-1.455,1.124c-0.009,0.007-0.017,0.015-0.025,0.023
			c-0.371,0.481-0.743,0.962-1.114,1.443c-0.24,0.567-0.479,1.135-0.719,1.702c-0.085,0.632-0.17,1.263-0.255,1.895
			c0.085,0.632,0.17,1.263,0.255,1.895l0.719,1.702c0.371,0.481,0.743,0.962,1.114,1.442c0.481,0.371,0.962,0.743,1.442,1.115
			c0.818,0.521,1.701,0.803,2.65,0.846c0.632,0.17,1.263,0.17,1.895,0c0.643-0.002,1.243-0.164,1.799-0.486
			c0.604-0.169,1.128-0.475,1.572-0.917c0.536-0.317,0.962-0.743,1.279-1.278c0.442-0.445,0.747-0.969,0.917-1.573
			c0.322-0.556,0.484-1.155,0.486-1.799c0.02-0.075,0.015-0.149,0.03-0.224C248.131,194.275,248.146,194.145,248.159,194.019z"/>
	</g>
	<g>
		<path style="fill:#D66EC0;" d="M146.508,124.875c-0.034-1.772-0.066-3.545-0.104-5.317c-0.004-0.188-0.098-0.336-0.225-0.465
			c-0.118-0.286-0.431-0.535-0.944-0.608c-2.319-0.327-4.821-0.237-7.181-0.287c-2.27-0.048-4.539-0.088-6.808-0.126
			c-4.801-0.08-9.602-0.152-14.402-0.214c-4.714-0.061-9.427-0.111-14.14-0.149c-4.788-0.038-9.637-0.192-14.403,0.065
			c-0.156,0.009-0.283,0.039-0.411,0.068c-0.014,0-0.029,0.001-0.043,0.001c0.048,11.945,0.062,23.906,0.027,35.861
			c0.14,0.156,0.361,0.278,0.688,0.311c4.597,0.461,9.364,0.319,13.998,0.348c4.821,0.029,9.642,0.027,14.463,0.041
			c4.733,0.013,9.467,0.028,14.2,0.037c2.367,0.005,4.733,0.009,7.1,0.014c2.374,0.005,4.905,0.162,7.242-0.09
			c0.07-0.007,0.12-0.032,0.183-0.045c0.201-0.023,0.386-0.079,0.532-0.165c0.1-5.552,0.153-11.109,0.102-16.609
			C146.343,133.299,146.417,129.083,146.508,124.875z"/>
		<g>
			<path style="fill:#FFFFFF;" d="M98.509,137.732c-0.289,0.007-0.579,0.014-0.868,0.021c-0.031,0.001-0.055,0.02-0.076,0.045
				c-0.047,0.023-0.087,0.085-0.099,0.186c-0.054,0.457-0.04,0.951-0.048,1.416c-0.008,0.447-0.015,0.895-0.022,1.342
				c-0.014,0.947-0.026,1.893-0.037,2.84c-0.011,0.93-0.02,1.859-0.027,2.788c-0.007,0.944-0.033,1.9,0.008,2.84
				c0.001,0.031,0.006,0.056,0.011,0.081c0,0.003,0,0.006,0,0.009c1.95-0.012,3.902-0.016,5.854-0.011
				c0.025-0.028,0.045-0.071,0.051-0.136c0.076-0.907,0.054-1.846,0.059-2.76c0.006-0.951,0.006-1.901,0.009-2.852
				c0.003-0.933,0.006-1.867,0.008-2.8c0.001-0.467,0.002-0.933,0.004-1.4c0.001-0.468,0.027-0.967-0.014-1.428
				c-0.001-0.014-0.005-0.024-0.007-0.036c-0.004-0.04-0.013-0.076-0.027-0.105c-0.906-0.019-1.813-0.028-2.711-0.017
				C99.885,137.763,99.197,137.749,98.509,137.732z"/>
		</g>
		<g>
			<path style="fill:#FFFFFF;" d="M109.474,130.78c-0.289,0.012-0.579,0.023-0.868,0.037c-0.031,0.001-0.055,0.031-0.076,0.071
				c-0.047,0.038-0.088,0.136-0.1,0.298c-0.055,0.732-0.042,1.521-0.052,2.266c-0.01,0.716-0.018,1.432-0.026,2.148
				c-0.017,1.514-0.032,3.029-0.046,4.544c-0.014,1.487-0.025,2.974-0.035,4.461c-0.01,1.511-0.039,3.04,0,4.544
				c0.001,0.049,0.006,0.089,0.011,0.13c0,0.005,0,0.009,0,0.014c1.95-0.024,3.903-0.038,5.854-0.036
				c0.026-0.044,0.046-0.114,0.051-0.217c0.079-1.451,0.059-2.954,0.068-4.416c0.008-1.521,0.012-3.042,0.018-4.563
				c0.006-1.493,0.012-2.987,0.017-4.48c0.003-0.747,0.005-1.493,0.008-2.24c0.003-0.749,0.03-1.548-0.009-2.285
				c-0.001-0.022-0.005-0.038-0.007-0.058c-0.004-0.063-0.013-0.122-0.026-0.168c-0.906-0.027-1.813-0.04-2.711-0.02
				C110.849,130.826,110.161,130.805,109.474,130.78z"/>
		</g>
		<path style="fill:#FFD075;" d="M120.427,126.405c-0.289,0.015-0.579,0.03-0.868,0.047c-0.031,0.002-0.055,0.039-0.076,0.088
			c-0.047,0.046-0.088,0.169-0.1,0.369c-0.056,0.905-0.044,1.88-0.055,2.8c-0.011,0.885-0.02,1.77-0.028,2.655
			c-0.019,1.872-0.036,3.744-0.051,5.615c-0.015,1.838-0.029,3.676-0.041,5.513c-0.012,1.867-0.042,3.757-0.006,5.615
			c0.001,0.061,0.006,0.11,0.011,0.16c0,0.006,0,0.011,0,0.017c1.95-0.033,3.903-0.051,5.854-0.051
			c0.026-0.055,0.046-0.141,0.052-0.269c0.081-1.793,0.063-3.651,0.073-5.458c0.01-1.88,0.016-3.759,0.023-5.639
			c0.008-1.846,0.016-3.691,0.022-5.536c0.003-0.923,0.007-1.845,0.01-2.768c0.004-0.926,0.032-1.913-0.006-2.824
			c-0.001-0.027-0.005-0.047-0.007-0.071c-0.004-0.078-0.012-0.151-0.026-0.207c-0.906-0.033-1.813-0.047-2.711-0.021
			C121.802,126.46,121.114,126.436,120.427,126.405z"/>
		<g>
			<path style="fill:#FFFFFF;" d="M131.321,133.362c-0.289,0.01-0.579,0.02-0.868,0.031c-0.031,0.001-0.055,0.027-0.076,0.061
				c-0.047,0.032-0.088,0.117-0.1,0.256c-0.055,0.629-0.041,1.308-0.051,1.948c-0.009,0.616-0.017,1.231-0.024,1.846
				c-0.016,1.302-0.03,2.604-0.043,3.906c-0.012,1.278-0.023,2.557-0.032,3.835c-0.009,1.299-0.037,2.614,0.003,3.906
				c0.001,0.042,0.006,0.077,0.011,0.111c0,0.004,0,0.008,0,0.012c1.95-0.02,3.902-0.03,5.854-0.027
				c0.025-0.038,0.046-0.098,0.051-0.187c0.078-1.247,0.057-2.54,0.064-3.797c0.007-1.307,0.01-2.615,0.015-3.922
				c0.005-1.284,0.01-2.568,0.014-3.851c0.002-0.642,0.004-1.284,0.006-1.926c0.002-0.644,0.029-1.33-0.011-1.964
				c-0.001-0.019-0.005-0.033-0.007-0.05c-0.004-0.054-0.013-0.105-0.027-0.144c-0.906-0.024-1.813-0.036-2.711-0.019
				C132.696,133.402,132.008,133.385,131.321,133.362z"/>
		</g>
	</g>
	<g>
		<path style="fill:#FFD075;" d="M476.806,325.749c-0.032-2.524-0.062-5.048-0.098-7.572c-0.004-0.268-0.102-0.476-0.233-0.656
			c-0.123-0.404-0.448-0.751-0.982-0.84c-2.415-0.402-5.02-0.205-7.478-0.212c-2.363-0.006-4.727-0.001-7.09,0.007
			c-4.999,0.017-9.999,0.047-14.998,0.091c-4.909,0.042-9.818,0.1-14.726,0.175c-4.986,0.076-10.035-0.01-14.999,0.488
			c-0.163,0.017-0.295,0.063-0.428,0.109c-0.015,0-0.03,0.002-0.045,0.002c0.027,17.015,0.018,34.052-0.042,51.083
			c0.146,0.218,0.375,0.386,0.716,0.424c4.787,0.531,9.751,0.198,14.577,0.111c5.021-0.09,10.042-0.225,15.062-0.338
			c4.929-0.111,9.859-0.219,14.788-0.336c2.465-0.058,4.929-0.117,7.394-0.175c2.473-0.059,5.108,0.096,7.543-0.327
			c0.072-0.012,0.125-0.048,0.191-0.069c0.209-0.038,0.402-0.124,0.554-0.25c0.115-7.911,0.181-15.829,0.139-23.662
			C476.618,337.753,476.703,331.746,476.806,325.749z"/>
		<g>
			<path style="fill:#EBA7DC;" d="M221.362,174.906c-0.027-1.772-0.053-3.545-0.083-5.317c-0.003-0.188-0.082-0.336-0.188-0.465
				c-0.099-0.286-0.361-0.535-0.792-0.607c-1.948-0.325-4.049-0.233-6.03-0.281c-1.906-0.046-3.812-0.085-5.717-0.121
				c-4.031-0.076-8.063-0.144-12.094-0.202c-3.958-0.057-7.917-0.104-11.875-0.138c-4.021-0.035-8.092-0.185-12.095,0.077
				c-0.131,0.009-0.238,0.039-0.345,0.069c-0.012-0.001-0.024,0.001-0.036,0.001c0.031,11.945,0.032,23.906-0.007,35.86
				c0.118,0.156,0.303,0.277,0.578,0.31c3.86,0.457,7.863,0.312,11.755,0.336c4.049,0.026,8.097,0.02,12.146,0.03
				c3.975,0.01,7.95,0.021,11.925,0.026c1.987,0.003,3.975,0.005,5.962,0.008c1.994,0.003,4.119,0.158,6.082-0.096
				c0.058-0.007,0.101-0.032,0.154-0.045c0.169-0.023,0.324-0.08,0.447-0.165c0.088-5.552,0.138-11.109,0.099-16.609
				C221.216,183.33,221.282,179.115,221.362,174.906z"/>
			<path style="fill:#BFCAD4;" d="M161.262,200.183c-0.015-0.986-0.029-1.971-0.046-2.957c-0.002-0.105-0.046-0.187-0.105-0.258
				c-0.055-0.159-0.201-0.298-0.44-0.338c-1.083-0.181-2.252-0.13-3.354-0.156c-1.06-0.026-2.12-0.047-3.18-0.067
				c-2.242-0.042-4.484-0.08-6.726-0.112c-2.201-0.032-4.403-0.058-6.604-0.077c-2.236-0.019-4.5-0.103-6.727,0.043
				c-0.073,0.005-0.132,0.022-0.192,0.038c-0.007,0-0.013,0.001-0.02,0.001c0.017,6.643,0.018,13.295-0.004,19.943
				c0.065,0.087,0.168,0.154,0.321,0.173c2.147,0.254,4.373,0.173,6.537,0.187c2.252,0.014,4.503,0.011,6.754,0.017
				c2.211,0.005,4.421,0.011,6.632,0.014c1.105,0.001,2.211,0.003,3.316,0.004c1.109,0.001,2.291,0.088,3.382-0.053
				c0.032-0.004,0.056-0.018,0.085-0.025c0.094-0.013,0.18-0.044,0.248-0.092c0.049-3.088,0.077-6.178,0.055-9.237
				C161.18,204.867,161.217,202.523,161.262,200.183z"/>
		</g>
	</g>
	<g>
		<g>
			<path style="fill:#A1B0BA;" d="M95.915,411.579c-0.866,0.433-9.293,2.71-9.583,3.678c-0.29,0.968,0.678,6.582,3.001,10.357
				c2.323,3.775,4.162,4.646,6.098,6.776c1.936,2.13,3.872,4.549,4.84,6.292c0.968,1.742,2.226,3.678,3.485,3.485
				c1.258-0.194,4.743-3.291,4.259-4.937c-0.484-1.646-2.42-5.034-3.097-7.55c-0.678-2.517-1.549-6.001-2.323-7.937
				c-0.774-1.936-2.614-5.905-3.678-7.357C97.851,412.935,96.302,411.386,95.915,411.579z"/>
			<path style="fill:#BFCAD4;" d="M105.854,431.375c-1.179,0.635-1.541,0.725-2.176,2.358c-0.635,1.632-0.997,4.352-0.997,6.347
				c0,1.995-0.091,4.534,0.363,4.987s0.725,0.453,1.632,0.544c0.907,0.091,4.624,0.635,8.251,0.272
				c3.627-0.363,9.521-0.997,12.241-0.816s10.518,0.997,12.332,1.088c1.813,0.091,4.896,0.181,5.622-0.363
				c0.725-0.544,0.907-1.269,0.907-1.269s0.725-2.358-0.635-4.352s-1.088-3.264-4.534-4.08s-4.624-1.088-7.163-1.542
				c-2.539-0.453-10.699-4.624-12.513-5.168C117.369,428.837,105.854,431.375,105.854,431.375z"/>
			<path style="fill:#313B59;" d="M100.41,421.715c-2.385-1.987-2.981-4.571-4.571-6.359c-1.59-1.788-1.788-3.18-1.788-4.173
				c0-0.994,7.75-8.943,10.532-13.513c2.782-4.571,16.693-32.392,16.693-36.565c0-4.173-7.551-61.604-6.757-62.2
				c0.795-0.596,6.757-0.596,8.942-0.795c2.186-0.199,10.334-1.59,10.93,0c0.596,1.59,4.372,29.013,5.365,33.584
				c0.994,4.571,4.372,29.014,4.372,30.206c0,1.192-0.199,1.59-0.994,3.577c-0.795,1.987-2.981,3.974-5.564,7.551
				c-2.583,3.577-4.571,7.154-7.353,10.135c-2.782,2.981-5.962,8.148-10.334,13.911c-4.372,5.763-16.693,22.654-16.693,22.654
				S100.96,422.173,100.41,421.715z"/>
			<path style="fill:#313B59;" d="M104.98,433.638c-1.066-0.091-0.596-2.385-0.795-3.776c0,0,0.596-4.571,0.596-12.718
				c0-8.148-0.397-21.462-0.596-27.821s0.596-20.469-0.397-25.039c-0.994-4.571-7.551-28.616-8.744-34.379
				c-1.192-5.763-1.987-14.904-1.789-20.468c0.199-5.564,1.192-10.334,1.59-10.93c0.397-0.596,8.148-0.199,10.93-0.199
				c2.782,0,15.5-0.199,16.295,0.397c0.795,0.596,1.391,20.071,1.59,23.449c0.199,3.378,1.59,32.193,1.59,34.379
				c0,2.186-0.199,4.968-0.199,7.949c0,2.981-3.378,33.982-3.378,37.559s-0.994,27.424-1.391,28.417
				C119.884,431.452,111.935,434.234,104.98,433.638z"/>
			<path style="fill:#7991D1;" d="M125.896,363.091c0.194-4.038-0.189-8.193-0.291-12.232c-0.109-4.319-0.24-8.638-0.395-12.956
				c-0.152-4.233-0.323-8.465-0.521-12.697c-0.205-4.389-0.284-8.827-0.739-13.198c-0.05-0.482-0.776-0.506-0.77,0
				c0.048,4.311,0.427,8.636,0.631,12.944c0.204,4.316,0.39,8.633,0.55,12.951c0.157,4.233,0.293,8.467,0.406,12.701
				c0.111,4.16,0.345,12.611,0.336,12.693c-0.894,8.902-1.852,17.822-2.366,26.755c-0.01,0.173,0.283,0.217,0.307,0.041
				C124.25,381.201,125.99,363.147,125.896,363.091z"/>
			<path style="fill:#7991D1;" d="M104.889,407.672c-0.015-1.364-0.019-2.728-0.011-4.091c0.007-1.403,0.162-2.859,0.048-4.255
				c-0.021-0.261-0.456-0.369-0.496-0.067c-0.176,1.307-0.094,2.676-0.118,3.994c-0.026,1.418-0.039,2.837-0.041,4.255
				c-0.004,2.835-0.02,5.681,0.197,8.508c0.028,0.366,0.576,0.377,0.578,0C105.054,413.235,104.919,410.454,104.889,407.672z"/>
		</g>
		<g>
			<path style="fill:#FFFFFF;" d="M175.427,207.69c0,0,1.391-4.571,1.987-6.856c0.596-2.285,0.894-3.378,1.888-3.875
				c0.994-0.497,2.186-0.596,4.273-0.596c2.087,0,3.378,0.099,3.378,0.099s7.651-5.962,8.346-5.962s1.093,0.099,1.093,0.894
				c0,0.795-6.757,6.757-6.856,7.452c-0.099,0.696,0.795,6.459,0.099,7.353c-0.695,0.894-4.869,3.08-5.763,3.776
				c-0.894,0.695-1.888,2.087-2.186,2.087s-4.074-1.391-5.068-2.285C175.626,208.882,175.328,208.584,175.427,207.69z"/>
			<path style="fill:#B345B5;" d="M120.083,221.799c-0.579-1.061-0.199-1.788,0.397-2.782c0.596-0.994,0.994-1.987,2.981-1.788
				c1.987,0.199,2.583,0.397,5.366,1.59c2.782,1.192,27.026,12.917,28.219,13.116c1.192,0.199,16.891-24.046,17.686-24.443
				c0.795-0.397,0.397-0.795,1.788-0.199c1.391,0.596,5.564,3.776,5.564,4.968c0,1.192-4.571,10.135-6.359,13.314
				c-1.788,3.18-11.725,20.866-15.103,21.263c-3.378,0.397-25.238-4.372-28.02-6.558
				C129.82,238.095,121.275,223.985,120.083,221.799z"/>
			<path style="fill:#B345B5;" d="M94.845,298.507c-1.363-0.341-0.397-0.994-0.596-2.583c-0.199-1.59-0.397-1.391,0-6.558
				c0.397-5.167,0.994-13.513,0.795-16.891c-0.199-3.378-0.994-7.949-1.192-13.116c-0.199-5.167-3.18-18.084-3.974-21.86
				c-0.795-3.776-0.994-12.718-0.397-15.302s4.372-5.564,7.75-6.955c3.378-1.391,13.513-1.788,15.898-1.59
				c2.385,0.199,3.974,0.397,7.353,1.59c3.378,1.192,3.776,1.192,5.564,3.18c1.788,1.987,4.173,7.551,5.962,11.725
				s5.366,14.308,5.763,15.898c0.397,1.59,0.795,2.385,0.199,4.173c-0.596,1.788-4.571,8.744-6.558,14.308
				c-1.987,5.564-2.186,5.962-1.391,11.327c0.795,5.365,3.378,15.699,3.975,17.686c0.596,1.987,1.391,4.173,0.397,4.571
				c-0.994,0.397-3.776,0.397-3.776,0.397s-5.564-0.596-11.526,0.397C113.128,299.898,98.025,299.301,94.845,298.507z"/>
			<path style="fill:#D66EC0;" d="M117.874,258.255c-2.003,1.144-3.886,2.455-5.944,3.517c-1.044,0.539-2.115,1.028-3.208,1.459
				c-1.051,0.414-2.115,0.737-3.113,1.268c-0.143,0.076-0.083,0.328,0.085,0.314c1.17-0.095,2.232-0.491,3.321-0.919
				c1.087-0.427,2.154-0.905,3.195-1.433c2.065-1.047,4.205-2.332,5.81-4.017C118.114,258.346,117.995,258.186,117.874,258.255z"/>
			<path style="fill:#FFFFFF;" d="M94.249,309.933c0,0-0.994,7.651-0.894,8.843c0.099,1.192,0.099,1.49,0.696,2.881
				c0.596,1.391,3.478,7.353,4.471,7.949c0.994,0.596,2.683,0.795,4.074,0.795c1.391,0,3.08-0.695,3.279-1.788
				c0.199-1.093-0.696-4.67-1.093-6.458c-0.397-1.789-1.391-5.266-1.093-5.266c0.298,0,1.788,2.981,1.888,3.478
				c0.099,0.497,0.397,2.285,0.795,2.981c0.397,0.695,0.894,0.894,1.391,0.695s0.696-2.981,0.696-4.372s0.298-2.683-0.696-4.074
				c-0.994-1.391-4.67-8.148-5.167-8.645c-0.497-0.497-5.266,1.093-6.359,1.689C95.143,309.237,94.249,308.94,94.249,309.933z"/>
			<path style="fill:#B345B5;" d="M93.057,218.819c-1.506,0.548-3.18,0.994-3.378,2.186c-0.199,1.192-5.167,18.084-6.359,23.052
				c-1.192,4.968-2.583,26.828-2.385,30.206s11.327,33.982,12.321,35.174c0.994,1.192,2.583,0.795,4.769,0.199
				c2.186-0.596,5.862-1.292,4.968-3.776c-0.301-0.836-3.378-15.898-3.776-18.084c-0.397-2.186-2.782-13.116-2.981-15.5
				c-0.199-2.385,3.378-21.263,4.173-27.821c0.795-6.558,0.397-15.103-0.397-18.879C99.217,221.799,95.243,218.024,93.057,218.819z"
				/>
			<path style="fill:#D66EC0;" d="M98.984,284.899c-0.813-4.175-1.387-8.502-2.484-12.614c0.031-0.046,0.055-0.103,0.067-0.172
				c0.737-4.291,1.361-8.599,2.048-12.898c0.661-4.141,1.596-8.337,1.959-12.514c0.039-0.447-0.679-0.538-0.78-0.105
				c-0.967,4.125-1.386,8.452-2.054,12.637c-0.673,4.216-1.407,8.421-2.031,12.644c-0.017,0.112,0.011,0.207,0.056,0.29
				c0,0,0,0,0,0.001c0.518,4.161,1.609,8.317,2.426,12.431c0.84,4.23,1.43,8.655,2.732,12.77c0.047,0.148,0.298,0.131,0.284-0.038
				C100.863,293.166,99.782,288.995,98.984,284.899z"/>
			<path style="fill:#D66EC0;" d="M101.204,234.093c-0.043-0.542-0.069-1.1-0.16-1.635c-0.045-0.262-0.12-0.666-0.476-0.667
				c-0.758-0.002-0.3,1.653-0.26,2.068c0.11,1.169,0.178,2.343,0.202,3.517c0.024,1.174-0.006,2.348-0.035,3.521
				c-0.014,0.547-0.037,1.093-0.07,1.639c-0.029,0.487-0.174,1.021,0.077,1.462c0.037,0.066,0.136,0.081,0.189,0.024
				c0.32-0.34,0.309-0.806,0.366-1.252c0.071-0.545,0.132-1.091,0.184-1.639c0.111-1.171,0.143-2.345,0.135-3.521
				C101.348,236.437,101.298,235.264,101.204,234.093z"/>
			<path style="fill:#D66EC0;" d="M132.633,230.331c-0.695-1.593-1.423-3.171-2.184-4.733c-0.768-1.577-1.476-3.353-2.507-4.772
				c-0.198-0.272-0.735-0.123-0.594,0.25c0.594,1.572,1.557,3.064,2.299,4.575c0.739,1.507,1.448,3.028,2.126,4.563
				c1.442,3.266,2.73,6.589,4.005,9.922c0.114,0.297,0.584,0.183,0.487-0.134C135.259,236.709,134.01,233.486,132.633,230.331z"/>
		</g>
		<g>
			<path style="fill:#FFFFFF;" d="M113.923,210.969c0,0-0.596,1.987-0.497,3.18c0.099,1.192,1.192,3.279,1.292,4.471
				c0.099,1.192,0.199,3.08-2.385,4.571c-2.583,1.49-8.744,1.59-11.526-1.192c-2.782-2.782-0.099-11.128-0.099-11.128
				s4.372-4.67,7.75-4.273C111.836,206.995,113.923,210.969,113.923,210.969z"/>
			<path style="fill:#FFFFFF;" d="M123.958,183.645c0.397,1.093,1.292,3.875,1.093,5.067c-0.199,1.192-1.292,3.676-0.894,4.869
				c0.397,1.192,2.683,4.074,2.484,5.465c-0.199,1.391-1.59,4.968-3.279,8.446c-1.689,3.478-4.471,6.657-5.962,6.459
				c-1.49-0.199-6.459-2.385-6.459-2.385c-2.087-0.795-4.968-1.987-5.763-3.875c-0.795-1.888-0.298-14.407-0.298-14.407
				s3.18-7.85,5.366-9.439c2.186-1.59,2.186-2.782,6.061-2.385C120.182,181.856,123.958,183.645,123.958,183.645z"/>
			<path style="fill:#4C5980;" d="M111.074,184.572c0.662,0.53,1.59,2.65,1.855,3.18c0.265,0.53,0.265,0.662,0.927,0.662
				s5.167-1.192,6.889-1.722c1.722-0.53,5.034-0.397,5.167-1.06c0.132-0.662,0.397-0.53,0.132-1.457
				c-0.265-0.927-0.53-6.624-2.385-9.406c-1.855-2.782-1.722-3.577-5.962-4.902c-4.239-1.325-7.286-0.795-7.286-0.795
				s-6.624-1.59-10.599-0.795c-3.975,0.795-9.804,4.769-12.321,9.804c-2.517,5.034-3.842,9.936-3.842,12.321
				s-0.927,4.902-0.927,4.902s-6.624,11.791-8.346,16.56c-1.722,4.769-3.047,22.522-2.385,26.894
				c0.662,4.372,2.12,14.043,3.974,17.488c1.855,3.444,4.372,9.936,4.902,9.406c0.53-0.53,0.662-0.397,0.662-1.325
				c0-0.927,2.12-12.056,5.697-16.958c3.577-4.902,8.744-9.009,9.936-10.334c1.192-1.325,2.408-1.774,3.144-3.175
				c0.736-1.401,1.493-2.521,1.757-7.291c0.265-4.769,1.325-10.201,2.252-12.321c0.927-2.12,2.252-7.154,2.517-9.804
				c0.265-2.65,1.06-9.539,1.06-9.539s0.53-4.504,1.192-6.492C109.749,186.427,111.074,184.572,111.074,184.572z"/>
			<path style="fill:#4C5980;" d="M109.882,184.704c0.523,2.092-0.927,5.962-1.06,7.949s1.192,11.129,1.59,12.851
				c0.397,1.722,0.53,2.12,0,1.59c-0.53-0.53-1.59-2.915-2.385-5.432c-0.795-2.517-1.325-4.372-1.59-6.889
				c-0.265-2.517-1.457-2.782,0.132-6.359C108.16,184.837,109.617,183.645,109.882,184.704z"/>
			<path style="fill:#313B59;" d="M75.433,234.208c0.003-2.815,0.198-5.632,0.594-8.42c0.2-1.41,0.45-2.813,0.75-4.204
				c0.27-1.253,0.702-2.5,0.798-3.78c0.017-0.225-0.326-0.314-0.426-0.115c-1.205,2.377-1.488,5.528-1.851,8.143
				c-0.385,2.775-0.584,5.575-0.587,8.377c-0.007,5.706,0.692,11.505,2.55,16.915c0.075,0.219,0.4,0.132,0.348-0.096
				C76.348,245.487,75.426,239.904,75.433,234.208z"/>
			<path style="fill:#313B59;" d="M79.71,226.309c-0.389,0.568-0.439,1.352-0.549,2.017c-0.115,0.699-0.205,1.402-0.268,2.107
				c-0.125,1.403-0.18,2.871,0.131,4.252c0.035,0.156,0.245,0.104,0.26-0.035c0.146-1.374,0.133-2.762,0.271-4.139
				c0.07-0.696,0.168-1.388,0.294-2.076c0.119-0.65,0.385-1.341,0.31-2.004C80.131,226.194,79.851,226.102,79.71,226.309z"/>
			<path style="fill:#313B59;" d="M103.497,201.516c-0.771,2.208-1.188,4.57-1.735,6.843c-0.551,2.288-1.103,4.577-1.654,6.865
				c-1.103,4.579-2.166,9.165-3.204,13.76c-0.058,0.256,0.329,0.365,0.394,0.109c1.168-4.561,2.31-9.125,3.413-13.702
				c0.551-2.288,1.103-4.577,1.654-6.866c0.548-2.274,1.252-4.571,1.573-6.888C103.977,201.352,103.596,201.231,103.497,201.516z"/>
		</g>
	</g>
	<g>
		<g>
			<g>
				<path style="fill:#FFFFFF;" d="M441.749,429.664c0.495-1.155-0.795-4.902-1.59-5.034c-0.795-0.133-13.646,2.915-13.778,4.239
					c-0.132,1.325-1.06,1.457,1.59,1.722C430.621,430.856,441.352,430.591,441.749,429.664z"/>
			</g>
			<path style="fill:#A1B0BA;" d="M425.586,429.266c-1.066,0.355,0.927,0.53-2.385,1.987c-3.312,1.457-9.009,2.252-12.453,3.444
				c-3.445,1.192-5.829,3.047-6.624,5.034c-0.795,1.987-1.457,3.312-0.265,4.107c1.192,0.795,6.094,1.192,10.334,1.192
				c4.239,0,9.274-1.192,12.851-1.192s9.936-0.265,11.791-0.133c1.855,0.133,4.107,0.53,4.504-0.397
				c0.398-0.927,0.265-5.432,0-7.154c-0.265-1.722-0.132-6.889-1.59-7.022c-1.457-0.132-1.457,0.132-6.094,0.265
				C431.018,429.531,425.984,429.134,425.586,429.266z"/>
			<path style="fill:#A1B0BA;" d="M378.82,427.147c-1.192,1.06,0,1.722-2.252,3.18c-2.252,1.457-11.393,4.107-14.573,5.299
				c-3.18,1.192-5.034,3.444-5.962,5.167c-0.927,1.722-1.192,3.18-0.53,3.71c0.662,0.53,6.624,1.457,11.393,1.325
				c4.769-0.133,12.586-0.927,15.5-1.06s9.936,0.133,11.393,0c1.457-0.133,1.722-0.265,2.252-0.795
				c0.53-0.53,1.325-1.192,0.795-4.107c-0.53-2.915-1.192-9.539-2.385-10.599c-1.192-1.06-11.393-1.59-12.851-1.722
				C380.145,427.411,378.82,427.147,378.82,427.147z"/>
			<path style="fill:#313B59;" d="M378.29,276.912c-1.257,1.257-2.385,0.795-2.65,2.915c-0.265,2.12,0.53,66.241,0.53,70.48
				c0,4.239,0.265,76.045,1.59,77.104c1.325,1.06,6.889,1.06,9.009,1.325c2.12,0.265,6.624,2.12,7.684,0.53
				c1.06-1.59,1.499-8.792,1.59-12.453c0.091-3.661,0.53-60.942,0.795-64.386c0.265-3.445,2.65-9.539,3.974-17.223
				c1.325-7.684,8.214-37.625,9.009-42.924c0.795-5.299-2.65-12.983-2.65-12.983s-12.983-3.18-16.163-3.444
				C387.829,275.587,379.615,275.587,378.29,276.912z"/>
			<path style="fill:#313B59;" d="M396.573,278.767c-1.06,0.53-2.385,2.385-2.385,6.624c0,4.239,7.154,65.181,7.684,69.421
				c0.53,4.239,19.607,73.925,22.522,74.72c2.915,0.795,16.693-2.385,16.958-4.769c0.265-2.385-5.034-21.462-5.829-25.966
				c-0.795-4.504-11.393-43.189-11.658-48.488c-0.265-5.299,0.795-45.574,1.06-51.138c0.265-5.564,3.709-16.163-1.325-19.077
				c-5.034-2.915-12.983-2.915-18.018-2.915C400.547,277.177,396.573,278.767,396.573,278.767z"/>
			<path style="fill:#7991D1;" d="M395.198,292.8c-0.033-0.32-0.539-0.324-0.505,0c1.378,13.423,2.524,26.879,4.05,40.285
				c0.048,0.423,0.714,0.436,0.674,0C398.188,319.642,396.577,306.229,395.198,292.8z"/>
		</g>
		<g>
			<g>
				<path style="fill:#FFFFFF;" d="M369.679,233.06c-1.192,0-1.06-0.53-2.12,0.265c-1.06,0.795-0.662,0.397-1.457,1.457
					c-0.795,1.06-4.902,8.214-6.624,9.539c-1.722,1.325-11.129,4.504-14.176,5.564c-3.047,1.06-20.27,6.624-21.462,6.757
					c-1.192,0.132-3.047-0.53-5.432-0.397c-2.385,0.132-5.034,0.795-6.889,0.795c-1.855,0-3.312-0.132-3.444,0.927
					c-0.133,1.06-0.397,1.457,0.795,1.59c1.192,0.133,5.034,0.795,5.034,0.795s-10.599,0.53-11.261,1.06
					c-0.662,0.53-1.987,2.12-1.855,3.312c0.133,1.192,2.385,3.71,4.107,4.239c1.722,0.53,5.564,0.53,9.539-0.397
					c3.975-0.927,10.069-4.637,11.394-4.902c1.325-0.265,41.202-7.684,41.732-7.949c0.53-0.265,0.795-0.132,1.325-0.662
					c0.53-0.53,0.795-0.927,1.987-1.987c1.192-1.06,6.227-7.286,6.624-8.611c0.397-1.325-0.53-3.577-0.53-3.577
					s-3.709-5.167-5.034-5.962c-1.325-0.795-1.06-1.192-1.457-1.457L369.679,233.06z"/>
			</g>
			<path style="fill:#EB9921;" d="M385.842,201.132c-1.987,1.192-2.517,2.782-4.239,4.769c-1.722,1.987-15.898,27.821-16.03,28.749
				c-0.133,0.927,7.816,10.863,13.248,11.128c5.432,0.265,4.372-21.462,5.299-25.304c0.927-3.842,2.12-7.816,2.65-11.526
				s0.265-7.022,0.133-7.551C386.769,200.867,385.842,201.132,385.842,201.132z"/>
			<path style="fill:#EB9921;" d="M391.34,198.251c-3.304,1.469-5.366,1.822-7.485,4.471c-2.12,2.65-4.239,7.154-4.769,10.069
				c-0.53,2.915-0.132,26.231-0.132,30.206c0,3.974-4.504,34.71-3.577,35.638c0.927,0.927,3.709,1.457,3.709,1.457
				s19.607,1.192,23.317,1.06c3.71-0.133,15.103-1.06,18.812-1.987c3.71-0.927,5.432-0.795,6.359-3.577
				c0.927-2.782,0.53-9.141,0-13.248c-0.53-4.107-2.915-16.03-2.782-19.607c0.133-3.577,0.53-22.389,0.53-26.364
				c0-3.975,0.53-14.441-2.517-16.428c-3.047-1.987-11.526-4.239-17.488-4.372C399.355,195.436,393.725,197.191,391.34,198.251z"/>
			<path style="fill:#4C5980;" d="M393.725,255.781c-0.434,0.723-1.391,1.192-1.192,2.385c0.199,1.192,1.789,3.378,3.378,5.763
				c1.59,2.385,15.699,22.456,17.488,24.244c1.788,1.788,9.539,11.327,10.731,12.122c1.192,0.795,8.744-4.769,11.923-6.558
				c3.18-1.789,15.5-10.135,16.295-11.129s1.788,0.397,1.192-1.59c-0.596-1.987-10.532-15.898-12.321-17.686
				c-1.789-1.788-12.718-17.09-14.904-20.27c-2.186-3.18-4.769-5.962-5.962-5.763s-12.718,8.744-15.5,10.532
				C402.071,249.621,394.321,254.787,393.725,255.781z"/>
			<g>
				<path style="fill:#FFFFFF;" d="M424.659,232.266c0,0,3.974,8.214,4.902,9.804c0.927,1.59,1.59,2.915,1.722,3.71
					c0.132,0.795,0.265,1.722-0.265,4.107c-0.53,2.385-5.167,18.945-6.094,20.8c-0.927,1.855-2.65,5.167-3.842,6.227
					c-1.192,1.06-8.876,4.107-9.671,3.975c-0.795-0.133-1.06,0.927-0.795,1.457c0.265,0.53,0.927,0.927,2.252,0.795
					c1.325-0.133,4.372-0.398,4.372-0.398s-1.59,1.457-2.65,2.252c-1.06,0.795-2.385,1.457-2.65,2.252
					c-0.265,0.795,0.397,2.782,0.927,3.842c0.53,1.06,1.457,1.855,3.444,3.047c1.987,1.192,3.312,1.722,3.71,1.722
					c0.397,0,3.842-4.637,5.432-6.227c1.59-1.59,1.855-2.12,2.385-4.239c0.53-2.12,0.53-5.697,0.662-6.889
					c0.132-1.192,7.949-15.235,10.069-18.68c2.12-3.445,6.094-12.718,6.094-14.706c0-1.987-5.697-18.415-7.154-20.667
					s-7.816,1.06-9.804,2.252c-1.987,1.192-2.782,4.372-2.782,4.372S424.394,231.603,424.659,232.266z"/>
			</g>
			<path style="fill:#EB9921;" d="M417.24,222.064c1.15,1.937,6.757,11.526,7.684,11.526s12.056-6.094,14.441-7.949
				c2.385-1.855,3.842-3.312,3.444-4.239c-0.397-0.927,0.397-1.06-1.325-2.782c-1.722-1.722-15.103-17.488-19.342-18.68
				c-4.239-1.192-8.611,6.094-9.274,9.406C412.206,212.658,414.723,217.825,417.24,222.064z"/>
			<path style="fill:#FFD075;" d="M423.389,231.163c-5.463-6.309-8.81-13.825-10.517-21.951c-0.065-0.309-0.507-0.17-0.464,0.128
				c1.18,8.212,5.126,16.038,10.522,22.282C423.203,231.939,423.661,231.478,423.389,231.163z"/>
			<path style="fill:#FFD075;" d="M379.128,228.102c-0.002-2.55-0.004-5.101-0.006-7.651c-0.001-1.275-0.002-2.55-0.003-3.825
				c-0.001-1.201,0.111-2.449-0.177-3.622c-0.045-0.183-0.326-0.183-0.371,0c-0.288,1.173-0.177,2.421-0.178,3.622
				c-0.001,1.19-0.003,2.38-0.004,3.57c-0.003,2.635-0.005,5.271-0.008,7.906c-0.005,5.186-0.038,10.372,0.035,15.557
				c0.006,0.433,0.668,0.434,0.674,0C379.164,238.474,379.132,233.288,379.128,228.102z"/>
			<g>
				<path style="fill:#FFFFFF;" d="M405.317,195.568c-5.962-0.132-11.592,1.623-13.977,2.683c-0.955,0.424-1.797,0.755-2.576,1.075
					c-0.51,1.514-1.097,4.301,1.085,6.774c2.981,3.378,8.048,3.975,14.209,1.192c5.358-2.42,9.96-7.993,10.742-10.32
					C411.647,196.191,408.191,195.632,405.317,195.568z"/>
			</g>
		</g>
		<g>
			<g>
				<path style="fill:#FFFFFF;" d="M391.141,200.635c0.214-1.19,0.397-1.292,0.199-3.08c-0.199-1.789-0.696-3.08-0.795-4.273
					c-0.099-1.192,1.987-2.882,1.987-2.882s5.962-5.664,7.253-6.26c1.292-0.596,1.391-0.994,1.888-0.298
					c0.497,0.696,0.795,0.397,1.391,2.087c0.596,1.689,2.981,8.744,2.981,8.744s1.192,1.987,1.093,2.782
					c-0.099,0.795-0.994,1.292-4.273,3.08c-3.279,1.788-8.843,2.782-8.843,2.782S390.446,204.51,391.141,200.635z"/>
			</g>
			<g>
				<path style="fill:#FFFFFF;" d="M379.715,168.84c-1.043,1.216-1.391,1.49-0.596,4.769c0.795,3.279,1.888,5.167,1.689,7.353
					c-0.199,2.186-0.199,4.869,0.199,6.458c0.397,1.59,5.167,7.949,6.856,8.247c1.689,0.298,9.141-3.18,11.128-5.068
					c1.987-1.888,4.471-8.148,4.869-9.042c0.397-0.894,0.298-8.744-0.695-11.228c-0.994-2.484-2.385-3.776-5.763-4.67
					c-3.378-0.894-9.837-0.199-12.718,0.596C381.801,167.051,380.311,168.144,379.715,168.84z"/>
			</g>
			<path style="fill:#4C5980;" d="M402.667,172.119c-0.467-1.401-2.086-2.385-4.173-2.385s-13.513,0.894-15.103,1.292
				c-1.59,0.398-3.577,1.192-4.869,0.994c-1.292-0.199-7.551-0.894-9.936-5.067c-2.385-4.173-2.583-7.949-0.199-10.334
				c2.385-2.385,6.061-1.689,9.241-0.994c3.18,0.696,7.651,0.099,7.651,0.099s7.949-1.689,13.016-1.093
				c5.068,0.596,5.862,0.994,6.757,2.087c0.894,1.093,1.689,2.782,1.888,3.18c0.199,0.397,6.26,3.378,6.856,7.85
				c0.596,4.471-0.298,6.16-2.186,10.234c-1.888,4.074-2.981,4.869-4.67,6.757c-1.689,1.888-3.08,3.18-3.378,2.683
				c-0.298-0.497-1.789-3.08-1.391-4.571C402.568,181.359,402.965,173.013,402.667,172.119z"/>
			<g>
				<path style="fill:#FFFFFF;" d="M403.88,174.616c0.323-0.223,0.687-0.396,1.057-0.356c0.681,0.073,1.193,0.876,1.286,1.7
					c0.094,0.825-0.143,1.652-0.438,2.403c-0.885,2.254-2.349,4.165-4.134,5.396c0.228-0.158,0.266-2.207,0.3-2.565
					c0.091-0.938,0.162-1.88,0.213-2.822c0.042-0.79-0.05-1.505,0.313-2.179C402.827,175.544,403.328,174.997,403.88,174.616z"/>
			</g>
			<path style="fill:#4C5980;" d="M403.877,172.035c-0.336,0.84-0.259,4.008-1.422,6.336c-1.164,2.328-1.81,3.103-2.069,2.069
				c-0.259-1.034,0.129-1.552,0.129-3.62c0-2.069-0.647-5.431-0.388-7.241s1.293-3.75,2.457-2.974
				c1.164,0.776,1.552,2.328,1.552,3.103S404.135,171.388,403.877,172.035z"/>
			<path style="fill:#313B59;" d="M401.187,157.914c-1.589-0.47-3.595-0.241-5.245-0.229c-1.932,0.015-3.864,0.082-5.793,0.186
				c-3.663,0.199-7.341,0.501-10.947,1.195c-0.185,0.036-0.145,0.343,0.045,0.331c3.706-0.23,7.403-0.577,11.116-0.698
				c1.859-0.06,3.718-0.078,5.578-0.063c1.668,0.013,3.617,0.324,5.245-0.027C401.547,158.533,401.513,158.011,401.187,157.914z"/>
			<path style="fill:#313B59;" d="M396.643,160.408c-0.532-0.033-1.058,0.001-1.59,0.028c-0.26,0.013-0.52,0.021-0.779,0.039
				c-0.268,0.019-0.535,0.083-0.799,0.131c-0.184,0.033-0.184,0.338,0,0.371c0.264,0.048,0.531,0.114,0.799,0.131
				c0.259,0.017,0.52,0.026,0.779,0.039c0.532,0.027,1.058,0.061,1.59,0.028c0.18-0.011,0.311-0.113,0.37-0.282
				c0.023-0.065,0.023-0.139,0-0.204C396.954,160.52,396.822,160.419,396.643,160.408z"/>
		</g>
	</g>
	<g>
		<path style="fill:#7991D1;" d="M173.301,396.373c-0.633-0.481,3.012-4.95,4.615-7.126c1.603-2.176,2.61-4.356,4.003-4.546
			c1.392-0.19,37.758,0.034,43.322,0.069c5.564,0.034,72.94-1.14,76.914-1.115c3.974,0.025,26.235-0.434,27.427-0.427
			c1.192,0.007,7.086,10.974,6.287,11.764c-0.8,0.79-1.193,0.191-3.98,0.969c-2.787,0.778-68.967,1.363-73.736,1.334
			c-4.769-0.029-67.37,0.181-71.343-0.043C182.836,397.028,174.093,396.974,173.301,396.373z"/>
		<path style="fill:#4C5980;" d="M167.975,439.6c-3.849-0.275-4.173-1.391-4.571-2.782c-0.397-1.391-0.199-7.75-0.199-13.712
			s0.795-24.244,1.391-25.834c0.596-1.59,0.596-2.385,1.788-2.583c1.192-0.199,3.378,0.199,6.558,0.199
			c3.18,0,66.373,0.795,73.527,0c7.154-0.795,68.758-0.994,74.919-1.391c6.16-0.397,22.456-0.994,23.449-0.795
			c0.994,0.199,1.192,0.397,1.391,1.192c0.199,0.795,0.199,33.385,0.199,35.373c0,1.987,0.994,7.551,0.199,8.346
			c-0.795,0.795-0.199,0.596-3.18,1.192c-2.981,0.596-57.034,2.186-61.803,2.186c-4.769,0-62.995-0.397-75.117-0.199
			C194.405,440.991,170.757,439.799,167.975,439.6z"/>
		<path style="fill:#313B59;" d="M302.911,432.633c-18.564,0.508-37.136,0.847-55.708,0.867c-18.657,0.02-37.315-0.127-55.969-0.496
			c-5.195-0.103-10.39-0.254-15.586-0.328c-4.16-0.059-8.328-0.23-12.491-0.218c0.002,0.41,0.006,0.799,0.012,1.167
			c3.558,0.238,7.129,0.317,10.69,0.467c4.598,0.193,9.196,0.313,13.797,0.421c9.283,0.216,18.569,0.384,27.854,0.477
			c18.656,0.187,37.316,0.067,55.97-0.222c10.478-0.162,20.954-0.398,31.429-0.714C303.823,434.026,303.827,432.608,302.911,432.633
			z M346.568,431.257c-1.181,0.197-2.358,0.402-3.516,0.535c-3.105,0.358-6.219,0.643-9.339,0.841
			c-2.924,0.186-5.853,0.3-8.784,0.341c-1.423,0.02-2.846,0.015-4.27,0.009c-1.438-0.007-2.942-0.112-4.353,0.205
			c-0.265,0.059-0.281,0.455-0.02,0.533c2.657,0.796,5.851,0.455,8.599,0.428c3.013-0.029,6.025-0.134,9.033-0.316
			c2.812-0.17,5.622-0.404,8.422-0.71c1.456-0.159,2.91-0.339,4.362-0.535C346.656,432.13,346.609,431.681,346.568,431.257z"/>
		<path style="fill:#7991D1;" d="M208.81,416.452c-0.695-0.681-1.528-1.205-2.433-1.558c-0.45-0.176-0.928-0.276-1.406-0.34
			c-0.255-0.034-0.516-0.065-0.773-0.065c-0.254,0-0.425,0.11-0.636,0.245c-0.066,0.042-7.169,3.504-8.799,11.109
			c-0.644,3.004-0.712,6.096-0.651,9.155c0.072,3.581,0.07,7.128-0.009,10.706c-0.002,0.112,0.076,0.177,0.165,0.204
			c-0.021,0.078-0.02,0.161,0.025,0.225c0.262,0.374,0.738,0.47,1.16,0.605c0.482,0.155,0.974,0.278,1.472,0.371
			c1.032,0.192,2.087,0.264,3.135,0.202c1.018-0.06,2.036-0.228,3.006-0.543c0.939-0.305,1.961-0.68,2.696-1.355
			c0.04-0.037,0.053-0.083,0.063-0.13c0.086-0.061,0.145-0.16,0.138-0.31c-0.209-4.435-0.742-8.87,0.093-13.278
			c0.341-1.799,0.882-3.573,1.693-5.218c0.384-0.779,0.833-1.519,1.315-2.241c0.465-0.696,1.081-1.313,1.541-2.009
			c0.168-0.053,0.308-0.19,0.316-0.415C210.993,419.835,210.227,417.841,208.81,416.452z"/>
		<path style="fill:#7991D1;" d="M228.682,416.452c-0.695-0.681-1.528-1.205-2.433-1.558c-0.45-0.176-0.928-0.276-1.406-0.34
			c-0.255-0.034-0.516-0.065-0.773-0.065c-0.254,0-0.425,0.11-0.636,0.245c-0.066,0.042-7.865,4.696-8.799,11.109
			c-0.443,3.04-0.712,6.096-0.651,9.155c0.072,3.581,0.07,7.128-0.009,10.706c-0.002,0.112,0.076,0.177,0.165,0.204
			c-0.021,0.078-0.02,0.161,0.025,0.225c0.262,0.374,0.738,0.47,1.16,0.605c0.482,0.155,0.974,0.278,1.472,0.371
			c1.032,0.192,2.087,0.264,3.135,0.202c1.018-0.06,2.036-0.228,3.006-0.543c0.939-0.305,1.96-0.68,2.696-1.355
			c0.04-0.037,0.053-0.083,0.063-0.13c0.086-0.061,0.145-0.16,0.139-0.31c-0.209-4.435-0.742-8.87,0.093-13.278
			c0.341-1.799,0.882-3.573,1.693-5.218c0.384-0.779,0.833-1.519,1.315-2.241c0.465-0.696,1.081-1.313,1.541-2.009
			c0.168-0.053,0.308-0.19,0.316-0.415C230.866,419.835,230.099,417.841,228.682,416.452z"/>
		<path style="fill:#FFFFFF;" d="M261.968,394.056c-21.035,0.137-42.069,0.275-63.104,0.412c-2.907,0.019-5.814,0.038-8.722,0.057
			c-2.908,0.019-5.888-0.09-8.771,0.317c-0.236,0.033-0.138,0.353,0.053,0.378c2.618,0.335,5.317,0.218,7.954,0.201
			c2.565-0.017,5.13-0.033,7.696-0.05c5.216-0.034,10.432-0.068,15.648-0.102c10.432-0.068,20.864-0.136,31.296-0.204
			c5.985-0.039,11.971-0.078,17.956-0.117C262.546,394.943,262.542,394.053,261.968,394.056z"/>
		<path style="fill:#FFFFFF;" d="M297.54,393.157c-4.819,0.12-9.638,0.24-14.457,0.36l-7.102,0.177
			c-1.184,0.03-2.367,0.059-3.551,0.089c-1.105,0.027-2.328-0.084-3.374,0.301c-0.263,0.096-0.285,0.469,0,0.557
			c0.992,0.306,2.09,0.161,3.12,0.132c1.184-0.034,2.367-0.068,3.551-0.101l7.356-0.21c4.819-0.138,9.638-0.275,14.457-0.413
			C298.112,394.031,298.115,393.142,297.54,393.157z"/>
	</g>
	<g>
		<path style="fill:#7991D1;" d="M336.221,142.783c0.626,0.487-3.023,4.961-4.629,7.14c-1.607,2.179-2.621,4.366-4.006,4.549
			c-1.385,0.183-37.538-0.254-43.069-0.321c-5.532-0.067-72.522,0.722-76.473,0.674c-3.951-0.048-26.084,0.284-27.27,0.27
			s-6.981-11.079-6.182-11.869c0.8-0.79,1.188-0.186,3.963-0.952c2.775-0.766,68.573-0.97,73.314-0.912
			c4.741,0.057,66.978,0.211,70.927,0.458C326.745,142.069,335.438,142.174,336.221,142.783z"/>
		<path style="fill:#4C5980;" d="M341.768,99.336c3.825,0.299,4.141,1.424,4.528,2.825c0.387,1.402,0.152,7.797,0.118,13.793
			c-0.035,5.996-0.931,24.381-1.534,25.976c-0.602,1.596-0.607,2.395-1.793,2.588c-1.186,0.193-3.358-0.219-6.518-0.238
			c-3.161-0.019-65.982-1.186-73.099-0.428c-7.117,0.758-68.364,0.599-74.49,0.963c-6.127,0.364-22.331,0.869-23.317,0.663
			c-0.987-0.206-1.183-0.407-1.376-1.207c-0.193-0.801-0.003-33.581,0.008-35.58c0.012-1.999-0.944-7.601-0.149-8.396
			c0.795-0.795,0.201-0.598,3.168-1.181c2.967-0.582,56.714-1.867,61.456-1.839c4.742,0.028,62.626,0.766,74.679,0.637
			C315.5,97.783,339.003,99.12,341.768,99.336z"/>
		<path style="fill:#D66EC0;" d="M329.737,120.11c0.022-0.418-0.021-3.845-0.072-3.627c-0.051,0.176-0.03-4.836-0.122-5.254
			c0.029-0.216,0.052-0.433,0.048-0.651c-0.028-1.441-1.211-2.833-2.709-2.773c-1.501,0.059-2.703,1.196-2.742,2.742
			c-0.006,0.23-0.049,6.12-0.108,5.905c-0.035-0.178-0.115,2.846-0.064,3.14c-0.02,0.119-0.002,2.664,0.015,2.798
			c-0.012,0.149-0.024,0.298-0.036,0.448c-0.123,1.525,1.391,2.994,2.868,2.936c1.458-0.057,3.025-1.272,2.902-2.902
			c-0.012-0.157-0.023-0.314-0.035-0.47C329.7,122.267,329.701,120.369,329.737,120.11z"/>
		<path style="fill:#FFD075;" d="M317.093,120.036c0.022-0.418-0.02-3.845-0.072-3.627c-0.051,0.176-0.03-4.836-0.122-5.254
			c0.029-0.216,0.052-0.433,0.048-0.651c-0.028-1.441-1.211-2.833-2.71-2.773c-1.501,0.059-2.702,1.196-2.741,2.742
			c-0.006,0.23-0.049,6.119-0.108,5.905c-0.035-0.178-0.115,2.846-0.063,3.14c-0.02,0.12-0.002,2.664,0.015,2.798
			c-0.012,0.149-0.024,0.298-0.036,0.448c-0.123,1.525,1.391,2.994,2.868,2.936c1.458-0.058,3.025-1.272,2.902-2.902
			c-0.012-0.157-0.024-0.314-0.035-0.471C317.056,122.192,317.057,120.295,317.093,120.036z"/>
		<path style="fill:#FFD075;" d="M304.449,119.962c0.022-0.418-0.021-3.845-0.072-3.627c-0.051,0.176-0.03-4.836-0.122-5.254
			c0.029-0.216,0.052-0.433,0.048-0.651c-0.028-1.441-1.211-2.833-2.71-2.773c-1.501,0.059-2.703,1.195-2.741,2.742
			c-0.006,0.23-0.049,6.12-0.108,5.905c-0.035-0.178-0.115,2.846-0.064,3.14c-0.02,0.119-0.002,2.664,0.015,2.798
			c-0.012,0.149-0.024,0.298-0.036,0.447c-0.123,1.526,1.391,2.994,2.868,2.936c1.458-0.058,3.025-1.272,2.902-2.902
			c-0.012-0.157-0.024-0.314-0.035-0.47C304.412,122.118,304.413,120.221,304.449,119.962z"/>
		<path style="fill:#313B59;" d="M301.872,142.831c-30.519,0.177-61.038,0.577-91.555,0.932c-8.651,0.101-17.295,0.192-25.942,0.477
			c-0.353,0.012-0.359,0.553-0.003,0.557c15.257,0.17,30.519-0.141,45.776-0.308c15.259-0.167,30.518-0.335,45.778-0.509
			c8.647-0.098,17.294-0.211,25.941-0.35C302.375,143.622,302.382,142.829,301.872,142.831z"/>
		<path style="fill:#313B59;" d="M325.579,143.409c-2.998,0.136-6,0.18-9.001,0.119c-1.5-0.031-3-0.086-4.499-0.145
			c-1.336-0.053-2.893-0.382-4.198-0.059c-0.202,0.05-0.162,0.305-0.002,0.373c1.244,0.534,2.86,0.424,4.195,0.515
			c1.498,0.102,2.997,0.157,4.498,0.188c3.001,0.06,6.003,0.017,9.001-0.119C326.126,144.255,326.134,143.383,325.579,143.409z"/>
		<path style="fill:#FFFFFF;" d="M164.425,117.189c-0.006-0.934-0.012-1.868-0.018-2.802c-0.003-0.467-0.006-0.934-0.009-1.401
			c-0.003-0.452,0.063-0.957-0.092-1.384c-0.113-0.313-0.535-0.333-0.646-0.004c-0.145,0.431-0.071,0.932-0.064,1.383
			c0.007,0.431,0.014,0.862,0.021,1.294c0.016,0.97,0.032,1.94,0.048,2.91c0.03,1.828-0.064,3.751,0.234,5.556
			c0.034,0.205,0.385,0.214,0.415,0.002C164.571,120.932,164.437,119.016,164.425,117.189z"/>
		<path style="fill:#FFFFFF;" d="M265.26,97.236c-6.579-0.295-13.206-0.149-19.791-0.153c-6.597-0.004-13.194,0.013-19.791,0.078
			c-13.025,0.129-26.048,0.376-39.068,0.749c-7.441,0.213-14.882,0.44-22.317,0.813c-0.24,0.012-0.368,0.187-0.395,0.374
			c-0.293,0.219-0.203,0.865-0.197,1.168c0.012,0.608,0.025,1.215,0.05,1.823c0.024,0.567,0.047,1.134,0.071,1.701
			c0.024,0.576-0.035,1.241,0.128,1.795c0.094,0.319,0.586,0.353,0.669,0.004c0.134-0.563,0.046-1.217,0.04-1.794
			c-0.006-0.567-0.012-1.134-0.018-1.701c-0.006-0.608-0.026-1.215-0.045-1.823c-0.005-0.162,0.012-0.448-0.023-0.708
			c26.12-0.684,52.222-1.415,78.354-1.473c7.435-0.017,14.897,0.218,22.329,0.017C265.809,98.092,265.814,97.261,265.26,97.236z"/>
	</g>
	<g>
		<path style="fill:#BFCAD4;" d="M208.85,339.312c-0.059-1.772-0.116-3.543-0.179-5.315c-0.007-0.188-0.097-0.335-0.218-0.461
			c-0.115-0.284-0.412-0.529-0.893-0.594c-2.177-0.292-4.519-0.164-6.729-0.179c-2.126-0.014-4.252-0.02-6.378-0.024
			c-4.497-0.008-8.994-0.008-13.491,0.003c-4.415,0.01-8.83,0.03-13.245,0.063c-4.485,0.033-9.028-0.048-13.487,0.281
			c-0.146,0.011-0.265,0.043-0.384,0.075c-0.014,0-0.027,0.001-0.041,0.001c0.229,11.943,0.425,23.902,0.576,35.856
			c0.134,0.154,0.342,0.272,0.649,0.3c4.312,0.392,8.774,0.178,13.114,0.137c4.516-0.043,9.03-0.117,13.545-0.176
			c4.433-0.058,8.866-0.114,13.299-0.176c2.216-0.031,4.433-0.062,6.649-0.093c2.224-0.031,4.596,0.088,6.781-0.199
			c0.065-0.008,0.112-0.033,0.171-0.048c0.188-0.026,0.361-0.085,0.495-0.173c0.008-5.553-0.027-11.11-0.159-16.608
			C208.825,347.737,208.829,343.521,208.85,339.312z"/>
		<path style="fill:#FFFFFF;" d="M203.419,341.502c-1.715,1.563-3.461,3.081-5.212,4.602c-1.278-1.117-2.536-2.262-3.784-3.41
			c-0.326-0.3-0.795-0.279-1.116,0.018c-4.653,4.302-9.242,8.675-13.886,12.989c-1.904-2.082-3.816-4.172-5.641-6.32
			c-0.302-0.355-0.825-0.234-1.131,0.018c-2.581,2.12-5.004,4.523-7.443,6.808c-2.445,2.291-4.906,4.605-7.153,7.089
			c-0.262,0.289,0.104,0.816,0.446,0.56c2.655-1.99,5.148-4.204,7.639-6.394c2.364-2.078,4.811-4.159,7.062-6.37
			c1.936,1.995,3.821,4.052,5.696,6.102c0.264,0.289,0.724,0.228,0.987-0.016c4.648-4.308,9.357-8.552,14.005-12.86
			c1.273,1.103,2.544,2.213,3.78,3.355c0.323,0.299,0.765,0.261,1.084-0.017c1.936-1.688,3.866-3.372,5.842-5.013
			C205.394,341.976,204.204,340.786,203.419,341.502z"/>
	</g>
	<g>
		<path style="fill:#A1B0BA;" d="M68.081,348.631c-0.433-0.859-0.951-1.663-1.514-2.432c0.526-1.886,1.245-4.474,1.304-4.75
			c0.093-0.438,1.255-2.641,1.076-2.996c-0.179-0.354-7.115-5.047-7.627-5.005c-0.401,0.033-4.472,3.816-6.228,5.464
			c-2.348-0.477-4.748-0.507-7.087-0.144c-1.353-1.603-5.305-6.26-5.697-6.408c-0.473-0.179-7.652,3.643-8.148,4.103
			c-0.495,0.459,0.883,3.889,1.137,5.171c0.13,0.656,0.425,2.087,0.704,3.414c-0.365,0.389-0.715,0.793-1.049,1.213
			c-1.035,1.301-1.869,2.737-2.522,4.253c-2.464,0.492-8.489,1.707-8.717,1.869c-0.287,0.204-0.055,0.517-0.023,0.892
			c0.032,0.375-0.297,5.476-0.358,6.134c-0.061,0.657-0.121,1.627-0.14,2.082c-0.014,0.337,5.503,2.027,8.351,2.876
			c0.481,1.732,1.174,3.407,2.108,4.957c0.25,0.416,0.523,0.823,0.813,1.222c-0.924,2.621-2.644,7.588-2.505,7.863
			c0.189,0.375,0.972,0.686,0.972,0.686s6.051,4.238,6.332,4.175c0.281-0.063,0.345,0.062,0.625-0.158
			c0.252-0.197,4.521-3.93,5.481-4.963c2.466,0.734,5.027,0.969,7.481,0.555c1.812,2.042,5.341,5.979,5.544,5.887
			c0.272-0.124,1.022-0.502,1.022-0.502s7.128-3.301,7.125-3.601c-0.002-0.299-0.099-1.113-0.099-1.113l-1.659-6.903
			c1.66-1.779,2.828-3.861,3.63-6.133c1.499-0.319,3.312-0.692,3.998-0.78c1.043-0.133,4.371-0.594,4.577-0.992
			c0.206-0.398,0.236-0.805,0.236-0.805l0.284-8.303l-0.184-0.365c0,0-5.551-1.698-7.85-2.351
			C69.186,351.336,68.749,349.953,68.081,348.631z M57.789,364.183c-1.659,2.125-4.483,3.49-7.239,3.499
			c-1.838,0.256-3.967-0.58-5.389-1.573c-1.97-1.375-3.306-3.507-3.742-5.866c-0.775-4.191,1.47-8.362,5.33-10.135
			c3.828-1.759,8.471-0.532,11.063,2.768C60.354,356.112,60.32,360.939,57.789,364.183z"/>
		<path style="fill:#A1B0BA;" d="M74.044,306.675c-0.332-0.59-0.721-1.138-1.142-1.66c0.309-1.342,0.732-3.183,0.764-3.379
			c0.051-0.311,0.797-1.896,0.66-2.139c-0.137-0.243-5.16-3.318-5.518-3.272c-0.281,0.036-3.019,2.824-4.2,4.038
			c-1.665-0.26-3.352-0.204-4.983,0.126c-1.002-1.083-3.928-4.228-4.208-4.319c-0.338-0.11-5.259,2.805-5.593,3.143
			c-0.333,0.338,0.745,2.704,0.964,3.596c0.112,0.456,0.366,1.452,0.604,2.376c-0.244,0.285-0.477,0.58-0.698,0.886
			c-0.686,0.947-1.226,1.983-1.636,3.069c-1.715,0.424-5.909,1.471-6.064,1.592c-0.195,0.152-0.022,0.365,0.013,0.627
			s-0.034,3.857-0.055,4.321c-0.021,0.464-0.032,1.147-0.032,1.467c0.001,0.237,3.931,1.248,5.959,1.753
			c0.393,1.201,0.934,2.356,1.639,3.415c0.189,0.284,0.394,0.561,0.611,0.832c-0.565,1.871-1.614,5.415-1.508,5.604
			c0.145,0.257,0.705,0.451,0.705,0.451s4.387,2.784,4.582,2.73c0.196-0.053,0.244,0.032,0.434-0.131
			c0.171-0.147,3.05-2.906,3.692-3.662c1.756,0.437,3.563,0.52,5.274,0.151c1.338,1.376,3.944,4.03,4.083,3.959
			c0.187-0.096,0.702-0.385,0.702-0.385s4.902-2.548,4.891-2.758c-0.011-0.21-0.105-0.779-0.105-0.779l-1.386-4.797
			c1.109-1.303,1.863-2.803,2.354-4.424c1.043-0.272,2.305-0.592,2.784-0.676c0.729-0.127,3.052-0.557,3.184-0.844
			c0.132-0.286,0.14-0.573,0.14-0.573l-0.066-5.842l-0.141-0.251c0,0-3.954-1.015-5.59-1.4
			C74.906,308.54,74.555,307.583,74.044,306.675z M67.311,317.931c-1.097,1.546-3.038,2.595-4.974,2.69
			c-1.283,0.238-2.806-0.281-3.837-0.933c-1.428-0.903-2.435-2.358-2.817-4.001c-0.679-2.919,0.765-5.921,3.42-7.291
			c2.633-1.358,5.934-0.645,7.861,1.591C68.854,312.179,68.985,315.571,67.311,317.931z"/>
	</g>
	<g>
		<g>
			<path style="fill:#A1B0BA;" d="M355.777,336.672c-0.03-0.301-0.06-0.601-0.093-0.902c-0.004-0.032-0.074-0.057-0.169-0.08
				c-0.089-0.049-0.324-0.092-0.707-0.106c-1.734-0.062-3.603-0.054-5.366-0.07c-1.696-0.015-3.392-0.028-5.087-0.041
				c-3.587-0.028-7.175-0.054-10.762-0.078c-3.522-0.024-7.044-0.047-10.566-0.067c-3.578-0.021-7.201-0.061-10.762-0.031
				c-0.116,0.001-0.211,0.006-0.307,0.01c-0.011,0-0.022,0-0.032,0c0.071,2.026,0.116,4.055,0.125,6.082
				c0.105,0.027,0.27,0.048,0.515,0.055c3.436,0.092,6.997,0.081,10.46,0.1c3.602,0.019,7.205,0.033,10.807,0.049
				c3.537,0.016,7.074,0.033,10.61,0.048c1.768,0.008,3.537,0.015,5.305,0.023c1.774,0.008,3.666,0.042,5.411,0.006
				c0.052-0.001,0.09-0.005,0.137-0.007c0.15-0.003,0.288-0.012,0.397-0.026c0.058-0.941,0.082-1.884,0.028-2.817
				C355.678,338.1,355.721,337.385,355.777,336.672z"/>
			<path style="fill:#A1B0BA;" d="M336.174,348.496c-0.016-0.301-0.032-0.601-0.049-0.902c-0.002-0.032-0.041-0.057-0.094-0.079
				c-0.049-0.049-0.179-0.091-0.391-0.104c-0.959-0.058-1.993-0.046-2.968-0.057c-0.938-0.011-1.876-0.021-2.814-0.03
				c-1.984-0.02-3.968-0.038-5.952-0.054c-1.948-0.016-3.896-0.031-5.844-0.043c-1.979-0.012-3.982-0.044-5.952-0.007
				c-0.064,0.001-0.117,0.006-0.17,0.011c-0.006,0-0.012,0-0.018,0c0.035,2.026,0.055,4.054,0.055,6.082
				c0.058,0.027,0.149,0.048,0.285,0.053c1.9,0.084,3.87,0.066,5.785,0.076c1.992,0.011,3.984,0.017,5.977,0.025
				c1.956,0.008,3.912,0.016,5.868,0.024c0.978,0.004,1.956,0.007,2.934,0.011c0.981,0.004,2.027,0.033,2.993-0.006
				c0.029-0.001,0.05-0.005,0.075-0.007c0.083-0.004,0.16-0.013,0.22-0.027c0.034-0.941,0.05-1.884,0.022-2.817
				C336.116,349.924,336.142,349.21,336.174,348.496z"/>
			<path style="fill:#A1B0BA;" d="M347.827,360.48c-0.025-0.301-0.048-0.601-0.075-0.902c-0.003-0.032-0.061-0.057-0.139-0.079
				c-0.073-0.049-0.265-0.092-0.579-0.105c-1.42-0.061-2.95-0.051-4.393-0.065c-1.389-0.013-2.777-0.025-4.165-0.037
				c-2.937-0.024-5.874-0.047-8.811-0.068c-2.884-0.021-5.767-0.04-8.651-0.057c-2.929-0.017-5.896-0.054-8.811-0.021
				c-0.095,0.001-0.173,0.006-0.251,0.011c-0.009,0-0.018,0-0.026,0c0.056,2.026,0.091,4.055,0.096,6.082
				c0.086,0.027,0.221,0.048,0.422,0.054c2.813,0.089,5.729,0.075,8.564,0.09c2.949,0.016,5.899,0.026,8.848,0.039
				c2.896,0.013,5.791,0.026,8.687,0.038c1.448,0.006,2.896,0.012,4.343,0.018c1.453,0.006,3.001,0.038,4.43,0.001
				c0.042-0.001,0.073-0.005,0.112-0.007c0.123-0.004,0.236-0.013,0.325-0.027c0.048-0.941,0.069-1.884,0.025-2.817
				C347.745,361.908,347.781,361.194,347.827,360.48z"/>
		</g>
		<g>
			<path style="fill:#A1B0BA;" d="M178.922,274.732c-0.024-0.301-0.046-0.601-0.072-0.902c-0.003-0.032-0.059-0.057-0.133-0.079
				c-0.07-0.049-0.255-0.092-0.557-0.105c-1.367-0.06-2.84-0.05-4.23-0.064c-1.337-0.013-2.673-0.025-4.01-0.036
				c-2.827-0.024-5.655-0.046-8.482-0.067c-2.776-0.02-5.552-0.039-8.328-0.055c-2.82-0.017-5.676-0.053-8.482-0.02
				c-0.092,0.001-0.167,0.006-0.242,0.011c-0.008,0-0.017,0-0.025,0c0.054,2.026,0.087,4.055,0.092,6.082
				c0.083,0.027,0.213,0.048,0.406,0.054c2.708,0.088,5.515,0.074,8.244,0.089c2.839,0.015,5.678,0.025,8.518,0.038
				c2.788,0.012,5.575,0.025,8.363,0.036c1.394,0.006,2.788,0.012,4.181,0.017c1.398,0.006,2.889,0.038,4.265,0
				c0.041-0.001,0.071-0.005,0.108-0.007c0.118-0.004,0.227-0.013,0.313-0.027c0.047-0.941,0.067-1.884,0.025-2.817
				C178.842,276.161,178.877,275.446,178.922,274.732z"/>
			<path style="fill:#A1B0BA;" d="M168.609,286.604c-0.016-0.301-0.032-0.601-0.049-0.902c-0.002-0.032-0.041-0.057-0.094-0.079
				c-0.049-0.049-0.179-0.091-0.391-0.104c-0.959-0.058-1.993-0.046-2.968-0.058c-0.938-0.011-1.876-0.021-2.813-0.03
				c-1.984-0.02-3.968-0.038-5.952-0.054c-1.948-0.016-3.896-0.031-5.843-0.043c-1.979-0.012-3.982-0.044-5.952-0.007
				c-0.064,0.001-0.117,0.006-0.17,0.011c-0.006,0-0.012,0-0.018,0c0.035,2.026,0.055,4.054,0.055,6.082
				c0.058,0.027,0.149,0.047,0.285,0.053c1.9,0.084,3.87,0.066,5.785,0.076c1.992,0.011,3.984,0.017,5.977,0.025
				c1.956,0.008,3.912,0.016,5.868,0.024c0.978,0.004,1.956,0.007,2.934,0.011c0.981,0.004,2.027,0.034,2.993-0.006
				c0.029-0.001,0.05-0.005,0.076-0.007c0.083-0.004,0.16-0.013,0.219-0.027c0.034-0.941,0.05-1.884,0.022-2.817
				C168.551,288.032,168.577,287.317,168.609,286.604z"/>
		</g>
	</g>
	<path style="fill:#A1B0BA;" d="M427.88,101.542c-4.982-10.733-16.892-16.853-28.564-15.288c-8.953,1.2-16.558,7.372-20.448,15.378
		c-0.063,0.088-0.112,0.184-0.138,0.289c-1.054,2.232-1.836,4.594-2.261,7.036c-1.428,8.226,1.459,17.323,7.2,23.54
		c-0.13,0.168,2.914,2.96,4.493,3.876c2.011,1.331,7.056,2.951,7.209,2.818c8.373,1.932,17.722,0.01,24.554-5.237
		C429.628,126.502,433.056,112.692,427.88,101.542z M423.277,98.969c0.312,0.461,0.602,0.936,0.879,1.42
		c-0.915-0.189-1.85-0.319-2.721-0.502c-1.44-0.303-2.912-0.554-4.38-0.772c-0.543-2.555-1.264-5.071-2.176-7.522
		C418.221,93.341,421.153,95.83,423.277,98.969z M402.358,125.792c-3.678-0.024-7.345-0.192-11.011-0.473
		c-1.002-3.325-1.646-6.749-1.834-10.332c4.391,0.052,8.787,0.006,13.159,0.029c0,3.593-0.057,7.182-0.187,10.774
		C402.443,125.79,402.4,125.793,402.358,125.792z M404.571,113.005c0.091-4.3,0.123-8.629-0.025-12.927
		c3.453,0.031,6.931,0.208,10.343,0.686c0.219,0.031,0.437,0.064,0.656,0.095c0.754,3.974,1.057,8.031,0.883,12.1
		C412.477,113.026,408.522,112.985,404.571,113.005z M416.32,114.904c-0.009,0.121-0.01,0.242-0.02,0.363
		c-0.295,3.422-0.939,6.804-1.882,10.104c-3.402,0.247-6.812,0.372-10.228,0.396c0.134-3.582,0.237-7.166,0.322-10.75
		C408.445,115.031,412.388,114.935,416.32,114.904z M412.424,90.467c1.148,2.722,2.048,5.526,2.708,8.38
		c-3.53-0.438-7.08-0.686-10.635-0.756c-0.039-1.654-0.069-3.308-0.14-4.962c-0.056-1.3,0.102-2.993-0.13-4.45
		C407.027,88.826,409.813,89.435,412.424,90.467z M402.681,113c-4.413,0.011-8.832-0.106-13.249-0.183
		c0-0.02-0.002-0.038-0.002-0.058c-0.002-4.073,0.667-8.064,1.805-11.968c3.75-0.455,7.505-0.69,11.281-0.72
		C402.607,104.38,402.653,108.69,402.681,113z M402.039,88.658c-0.097,1.37,0.182,2.881,0.22,4.15
		c0.052,1.756,0.135,3.509,0.196,5.264c-3.511,0.007-7.038,0.231-10.525,0.647c1.117-3.109,2.6-6.064,4.007-9.052
		C397.913,89.056,399.967,88.73,402.039,88.658z M393.853,90.414c-1.838,2.563-3.2,5.504-4.208,8.588
		c-2.504,0.338-4.999,0.739-7.43,1.396C384.981,96.009,389.033,92.428,393.853,90.414z M381.02,102.476
		c2.666-0.417,5.313-0.943,7.979-1.361c-1.01,3.771-1.506,7.687-1.615,11.365c-0.003,0.103,0.005,0.209,0.003,0.312
		c-3.032-0.04-6.062-0.056-9.088,0.033C378.425,109.205,379.392,105.673,381.02,102.476z M387.407,114.958
		c0.1,3.371,0.617,6.81,1.509,10.148c-1.268-0.116-2.537-0.227-3.802-0.366c-1.36-0.149-2.858-0.467-4.274-0.409
		c-1.497-2.994-2.412-6.287-2.545-9.807C381.319,114.77,384.36,114.896,387.407,114.958z M389.487,134.53
		c-3.104-2.357-5.773-5.236-7.73-8.523c0.874,0.178,1.779,0.265,2.617,0.377c1.69,0.225,3.385,0.403,5.082,0.562
		c0.985,3.132,2.301,6.146,3.979,8.873C392.103,135.449,390.784,135.018,389.487,134.53z M402.024,137.11
		c-1.971-0.013-3.924-0.246-5.852-0.633c-0.007-0.012-0.005-0.024-0.012-0.036c-1.711-3.042-3.124-6.13-4.22-9.298
		c3.466,0.263,6.945,0.425,10.418,0.448c0.02,0,0.039-0.001,0.059-0.001c-0.075,1.816-0.155,3.632-0.23,5.449
		C402.134,134.297,401.927,135.755,402.024,137.11z M410.055,135.92c-1.747,0.533-3.546,0.913-5.384,1.089
		c-0.376,0.036-0.75,0.045-1.125,0.065c0.219-1.235,0.196-2.589,0.275-3.715c0.135-1.928,0.224-3.859,0.302-5.791
		c3.243-0.014,6.486-0.11,9.722-0.331c-0.073,0.226-0.132,0.456-0.208,0.68c-0.683,2.014-1.491,3.983-2.425,5.893
		C410.943,134.36,410.434,135.13,410.055,135.92z M421.427,128.959c-2.558,2.691-5.647,4.736-9.017,6.119
		c0.118-0.254,0.229-0.493,0.323-0.683c0.97-1.953,1.815-3.971,2.538-6.027c0.149-0.423,0.267-0.857,0.404-1.284
		c2.655-0.216,5.302-0.519,7.939-0.894C422.966,127.164,422.246,128.097,421.427,128.959z M424.724,124.335
		c-2.815,0.351-5.635,0.641-8.459,0.875c0.91-3.248,1.508-6.588,1.801-9.943c0.011-0.131,0.012-0.263,0.022-0.394
		c1.589-0.025,3.177-0.053,4.766-0.084c1.346-0.026,3.084,0.218,4.53-0.059C427.162,118.086,426.282,121.382,424.724,124.335z
		 M423.179,112.864c-1.66,0.033-3.321,0.048-4.981,0.071c0.175-3.95-0.09-7.913-0.763-11.804c1.168,0.174,2.335,0.358,3.499,0.574
		c1.416,0.262,2.899,0.782,4.362,0.971c1.378,3.15,2.109,6.613,2.143,10.084C426.068,112.548,424.475,112.839,423.179,112.864z"/>
	<g>
		<path style="fill:#FFBB39;" d="M365.273,191.648c-0.025-1.674-0.05-3.348-0.078-5.022c-0.003-0.178-0.078-0.317-0.178-0.439
			c-0.094-0.27-0.341-0.505-0.748-0.573c-1.839-0.307-3.824-0.22-5.695-0.266c-1.8-0.044-3.6-0.08-5.4-0.114
			c-3.807-0.072-7.615-0.136-11.422-0.191c-3.738-0.054-7.477-0.098-11.215-0.13c-3.798-0.033-7.643-0.174-11.423,0.072
			c-0.124,0.008-0.225,0.037-0.326,0.065c-0.011,0-0.023,0.001-0.034,0.001c0.029,11.282,0.03,22.578-0.006,33.868
			c0.111,0.147,0.286,0.262,0.546,0.293c3.646,0.432,7.426,0.294,11.102,0.317c3.824,0.024,7.647,0.019,11.471,0.028
			c3.754,0.009,7.508,0.019,11.262,0.024c1.877,0.003,3.754,0.005,5.631,0.007c1.883,0.003,3.89,0.149,5.744-0.091
			c0.055-0.007,0.095-0.03,0.145-0.043c0.159-0.022,0.306-0.075,0.422-0.156c0.083-5.243,0.13-10.492,0.094-15.686
			C365.135,199.603,365.197,195.622,365.273,191.648z"/>
		<path style="fill:#FFFFFF;" d="M355.247,192.007c-0.022-0.227-0.043-0.453-0.066-0.68c-0.003-0.024-0.053-0.043-0.121-0.06
			c-0.064-0.037-0.232-0.069-0.506-0.08c-1.242-0.047-2.581-0.04-3.843-0.051c-1.215-0.011-2.429-0.021-3.644-0.03
			c-2.569-0.02-5.139-0.039-7.708-0.057c-2.523-0.018-5.045-0.034-7.568-0.048c-2.563-0.015-5.158-0.044-7.708-0.021
			c-0.083,0.001-0.152,0.004-0.22,0.008c-0.008,0-0.016,0-0.023,0c0.05,1.528,0.082,3.058,0.088,4.587
			c0.076,0.02,0.194,0.036,0.369,0.041c2.461,0.068,5.012,0.06,7.492,0.073c2.58,0.014,5.16,0.023,7.74,0.035
			c2.533,0.011,5.066,0.023,7.599,0.034c1.267,0.005,2.533,0.011,3.8,0.016c1.271,0.005,2.625,0.031,3.875,0.003
			c0.037-0.001,0.064-0.004,0.098-0.005c0.107-0.002,0.207-0.009,0.284-0.02c0.042-0.71,0.059-1.421,0.02-2.124
			C355.176,193.084,355.207,192.545,355.247,192.007z"/>
		<path style="fill:#FFFFFF;" d="M359.63,200.906c-0.025-0.227-0.049-0.454-0.076-0.68c-0.003-0.024-0.061-0.043-0.138-0.06
			c-0.073-0.037-0.264-0.07-0.577-0.08c-1.415-0.048-2.941-0.042-4.38-0.054c-1.384-0.012-2.768-0.022-4.152-0.033
			c-2.928-0.022-5.855-0.043-8.783-0.063c-2.875-0.019-5.749-0.037-8.623-0.054c-2.92-0.017-5.877-0.048-8.783-0.027
			c-0.095,0.001-0.173,0.004-0.25,0.008c-0.009,0-0.018,0-0.026,0c0.059,1.528,0.096,3.058,0.104,4.587
			c0.086,0.02,0.221,0.036,0.42,0.041c2.805,0.07,5.711,0.064,8.537,0.079c2.94,0.016,5.88,0.027,8.82,0.041
			c2.886,0.013,5.773,0.027,8.659,0.039c1.443,0.006,2.886,0.013,4.33,0.019c1.448,0.006,2.992,0.033,4.416,0.006
			c0.042-0.001,0.073-0.004,0.112-0.005c0.122-0.003,0.235-0.009,0.324-0.02c0.047-0.71,0.066-1.421,0.022-2.124
			C359.549,201.983,359.584,201.444,359.63,200.906z"/>
		<path style="fill:#FFFFFF;" d="M351.007,209.739c-0.019-0.227-0.037-0.454-0.057-0.68c-0.002-0.024-0.046-0.043-0.105-0.06
			c-0.055-0.037-0.2-0.069-0.438-0.079c-1.074-0.046-2.232-0.038-3.324-0.049c-1.051-0.01-2.101-0.019-3.152-0.028
			c-2.222-0.018-4.445-0.036-6.667-0.052c-2.182-0.016-4.364-0.03-6.546-0.043c-2.216-0.013-4.461-0.041-6.667-0.016
			c-0.072,0.001-0.131,0.005-0.19,0.008c-0.007,0-0.013,0-0.02,0c0.043,1.528,0.069,3.058,0.073,4.587
			c0.065,0.02,0.167,0.036,0.319,0.041c2.129,0.067,4.335,0.057,6.48,0.068c2.232,0.012,4.464,0.02,6.695,0.03
			c2.191,0.01,4.382,0.02,6.573,0.029c1.095,0.005,2.191,0.009,3.287,0.014c1.099,0.005,2.271,0.029,3.352,0.001
			c0.032-0.001,0.056-0.004,0.085-0.005c0.093-0.003,0.179-0.01,0.246-0.02c0.037-0.71,0.052-1.421,0.019-2.124
			C350.944,210.816,350.971,210.277,351.007,209.739z"/>
	</g>
</g>
</svg>
